<?xml version="1.0" encoding="utf-8"?>
<svg viewBox="0 0 912 758" xmlns="http://www.w3.org/2000/svg">
  <path fill="#C0CBD1" opacity="1.000000" stroke="none" d=" M483.021606,264.846191 C481.713898,265.848846 480.548096,267.371399 479.076324,267.773132 C465.471680,271.486481 451.624359,270.029419 437.822906,269.427979 C435.359344,269.320618 432.895874,269.210327 429.564758,269.172791 C422.640533,268.382446 416.537323,267.755981 410.544952,266.569733 C407.010742,265.870056 405.652191,267.183105 404.978638,270.315979 C403.152985,278.807434 407.050720,285.109558 413.534821,289.453278 C419.228607,293.267609 425.825134,295.734283 431.846680,299.104309 C428.032562,300.950714 424.524536,303.061981 420.732849,303.920624 C409.013245,306.574585 397.270966,309.966766 385.377960,310.802765 C370.797302,311.827698 356.028961,310.998566 341.393097,310.118134 C332.556580,309.586548 323.817535,307.435394 315.060516,305.625916 C319.058014,295.143646 323.029724,285.047394 327.001434,274.951172 C332.116241,267.613800 337.231049,260.276428 342.615082,252.552841 C339.719604,250.482529 336.393188,248.182144 333.149261,245.770828 C320.642059,236.473907 311.881104,224.482712 309.737091,208.910767 C308.464691,199.669464 308.135590,190.002762 309.336609,180.781876 C311.425568,164.743500 314.561218,148.797806 318.098816,133.001556 C324.051483,106.421677 345.219666,88.325592 372.605042,86.043259 C385.487091,84.969643 398.427246,84.378899 411.351868,84.129539 C416.919556,84.022118 422.514648,85.336037 428.265167,86.306793 C421.284546,88.696861 413.982422,90.371185 407.020386,92.960129 C393.581970,97.957367 380.609802,104.045845 370.739929,114.889778 C365.770386,120.349808 360.630219,125.968201 359.736206,134.008499 C359.281006,134.052856 359.099487,134.075897 358.506042,134.074142 C350.745880,134.212296 344.484558,137.254181 339.383575,142.198593 C325.731018,155.432098 320.948975,171.768860 324.368378,190.267593 C325.802460,198.025772 327.992859,205.865906 335.144836,211.291901 C345.128693,222.075790 360.345093,223.142395 370.908722,213.394257 C376.167480,208.541443 380.332336,202.503220 385.343079,197.037659 C398.914276,206.073547 413.356689,212.281433 428.962463,216.442291 C429.442932,220.837997 429.195435,224.991669 430.378052,228.687744 C436.151062,246.729477 449.683960,256.200989 467.225647,260.914185 C472.464905,262.321899 477.754883,263.540802 483.021606,264.846191 z"/>
  <path fill="#D1D9DE" opacity="1.000000" stroke="none" d=" M315.034698,306.011932 C323.817535,307.435394 332.556580,309.586548 341.393097,310.118134 C356.028961,310.998566 370.797302,311.827698 385.377960,310.802765 C397.270966,309.966766 409.013245,306.574585 420.732849,303.920624 C424.524536,303.061981 428.032562,300.950714 432.260590,299.140015 C434.232056,298.881134 435.613251,298.894592 437.285583,299.195312 C446.278381,300.999664 454.955536,300.689972 463.547760,298.814606 C476.454987,295.997437 482.937103,288.640381 483.057861,276.968628 C491.085999,277.308746 499.114166,277.648834 507.546631,278.445770 C510.152893,293.560852 510.642426,308.259796 508.757050,323.292358 C501.362427,325.704010 494.209259,327.832642 486.634399,329.978577 C471.111816,333.029266 456.010986,336.062714 440.626160,339.153198 C441.345703,343.812897 442.146729,349.000305 442.545654,354.131775 C432.270874,351.639771 424.625153,355.613190 418.285858,362.705902 C410.743225,371.144989 407.762024,381.521240 407.331177,392.497253 C406.945831,402.315582 409.445892,411.616211 415.523712,419.610535 C422.455383,428.727936 432.689941,430.106781 445.933197,424.339844 C445.660522,430.853363 445.350037,436.892731 444.624573,442.933044 C429.116943,445.032501 414.024261,447.131012 398.472107,449.185638 C393.354736,448.976318 388.696899,448.810883 383.934753,448.314636 C377.914276,445.503571 371.899048,443.232880 366.104614,440.494843 C356.963287,436.175323 349.978516,429.134308 350.367401,418.827362 C350.944061,403.542877 357.141388,390.045807 367.761139,378.662994 C382.167206,363.221741 400.027710,353.402252 419.464935,346.015228 C424.983307,343.917999 430.534760,341.907837 437.122375,339.468445 C432.333801,338.868835 428.906403,338.309906 425.456360,338.029602 C408.490112,336.651093 391.404785,336.156830 374.576752,333.807983 C354.146240,330.956238 334.350433,325.440338 317.269409,312.917908 C316.419159,312.294556 315.114899,312.290527 314.005707,311.607727 C314.337799,309.482178 314.686249,307.747040 315.034698,306.011932 z"/>
  <path fill="#D1D9DE" opacity="1.000000" stroke="none" d=" M428.893768,215.989319 C413.356689,212.281433 398.914276,206.073547 385.349976,196.644913 C388.274353,187.070831 390.012756,177.647949 388.945404,167.965576 C387.168396,151.845352 378.779999,136.018127 360.009949,133.987167 C360.630219,125.968201 365.770386,120.349808 370.739929,114.889778 C380.609802,104.045845 393.581970,97.957367 407.020386,92.960129 C413.982422,90.371185 421.284546,88.696861 428.677917,86.343216 C451.218262,88.770821 472.391418,95.605095 492.563812,105.054298 C510.503967,113.457863 522.032349,127.937447 526.475830,147.746826 C513.368164,147.458771 500.666718,146.817291 487.525635,146.114273 C482.948578,146.360550 478.786926,146.480240 474.678040,147.009659 C459.260742,148.996155 446.009033,155.124344 438.666199,169.481934 C432.891571,180.773148 430.782196,193.306503 429.915619,206.364838 C429.473969,209.825897 429.183868,212.907608 428.893768,215.989319 z"/>
  <path fill="#C0CBD1" opacity="1.000000" stroke="none" d=" M337.279510,614.091858 C336.953705,613.890381 336.627899,613.688843 336.148865,613.239990 C333.835846,601.632019 331.492920,590.302490 329.555725,578.903931 C325.902527,557.408142 322.298523,535.900635 319.024841,514.344727 C316.420227,497.194672 314.337799,479.965302 312.014099,461.889252 C311.970276,456.881104 311.935883,452.754822 312.298218,448.729797 C316.035950,449.843384 319.331940,451.049286 322.724884,451.838074 C355.254913,459.400696 388.201080,460.574249 421.333466,457.702972 C428.558838,457.076813 435.670654,455.140503 443.087036,453.846436 C443.509277,453.878082 443.679260,453.870850 443.886688,454.266113 C442.599762,459.105255 441.275421,463.541901 439.605316,468.024109 C417.551117,482.594971 392.774567,486.484283 367.388336,488.067657 C366.888580,493.828674 366.216919,498.913239 366.049286,504.014374 C365.590851,517.967407 365.266479,531.926147 365.032227,545.884949 C364.658142,568.172607 364.399811,590.462097 363.622009,612.811279 C354.527496,613.278503 345.903503,613.685181 337.279510,614.091858 z"/>
  <path fill="#414A58" opacity="1.000000" stroke="none" d=" M576.003174,617.512878 C576.096497,630.202942 576.096497,642.434204 576.096497,654.893738 C568.422485,654.893738 561.546448,654.893738 554.124878,654.893738 C554.124878,641.389709 554.124878,628.153320 554.123169,613.990662 C554.113281,514.047852 554.104980,415.031403 554.557495,315.976440 C561.982483,315.656982 568.946777,315.376099 575.911072,315.095184 C575.910645,415.748138 575.910278,516.401123 576.003174,617.512878 z"/>
  <path fill="#9A9A9A" opacity="1.000000" stroke="none" d=" M311.901489,448.628540 C311.935883,452.754822 311.970276,456.881104 312.001740,461.468384 C303.268677,463.809418 294.606415,466.173370 285.786102,467.409637 C279.254547,468.325134 272.468811,468.306915 265.887268,467.706909 C260.650604,467.229462 256.896545,463.650970 255.034409,458.538666 C253.792725,455.129761 252.670105,451.677490 251.483551,448.213562 C243.718399,449.185760 236.225510,450.496582 228.679718,450.977600 C218.413376,451.632080 218.396057,451.360291 215.769791,439.443848 C227.350250,434.793579 227.559235,434.427063 225.224869,423.193146 C225.123779,422.706726 225.081833,422.207367 225.024750,421.712585 C222.675781,401.356659 220.356735,380.997131 217.912994,360.652588 C217.759048,359.371002 216.633408,358.206085 215.959839,356.986908 C216.017227,356.561279 216.074631,356.135681 216.533203,355.369415 C220.090286,353.026031 223.368210,351.183655 226.332062,348.928467 C227.292740,348.197510 227.895676,346.375519 227.869034,345.068787 C227.698502,336.703522 227.306976,328.342834 226.988113,319.980621 C229.418503,318.374298 231.848907,316.767975 234.905823,315.328918 C235.691879,317.966705 235.886246,320.435547 236.004547,322.908020 C236.400879,331.191254 236.552155,339.492798 237.198044,347.756012 C238.306122,361.932037 239.566071,376.100311 241.052246,390.241333 C242.074585,399.968964 243.586823,409.645111 245.086609,420.893036 C251.171707,414.249207 256.553711,409.234192 260.886627,403.435333 C267.006134,395.245392 272.350006,386.475891 278.265564,377.856079 C278.973328,377.530884 279.441010,377.303772 280.386475,377.071411 C286.493347,377.055573 292.125916,377.163361 297.750549,376.999420 C302.885162,376.849823 306.128540,373.635773 306.526733,368.699249 C306.866974,364.481140 303.721222,360.732300 298.870087,360.002625 C295.293182,359.464630 291.655823,359.328583 288.072205,358.645630 C290.761719,350.980713 293.529755,343.719940 296.067078,336.379486 C303.395416,315.178986 307.270599,293.230103 310.016174,271.045197 C315.443085,272.267181 320.870026,273.489166 326.649170,274.831177 C323.029724,285.047394 319.058014,295.143646 315.060516,305.625916 C314.686249,307.747040 314.337799,309.482178 313.721985,311.879028 C311.639435,327.320068 308.492065,342.081909 308.298737,356.882355 C307.945190,383.950470 309.338226,411.041412 310.009399,438.523712 C310.644501,442.159241 311.272980,445.393890 311.901489,448.628540 M267.028595,452.691071 C268.192566,456.369995 270.584686,459.053528 274.505402,458.889191 C280.756439,458.627167 287.074677,458.176758 293.187805,456.935760 C298.947357,455.766510 301.379974,452.315338 300.941284,446.481262 C300.310211,438.088562 299.144958,429.732117 298.072296,421.377533 C296.824341,411.657471 294.569733,409.772308 284.174011,410.030426 C278.494873,411.669739 272.675049,412.945557 267.184021,415.070862 C263.249512,416.593750 260.546417,420.344482 261.213257,424.539368 C262.677917,433.752747 264.975433,442.833740 267.028595,452.691071 M246.949463,428.691772 C246.385513,426.337341 245.821548,423.982880 245.042786,420.731628 C239.263412,425.018158 233.708740,428.556580 229.021912,433.008606 C227.795914,434.173157 228.852173,438.316742 229.691864,440.812347 C230.057587,441.899323 232.536133,442.904358 234.028687,442.867798 C238.920502,442.748016 243.800201,442.133057 249.440460,441.642731 C248.543457,437.182861 247.773132,433.352783 246.949463,428.691772 z"/>
  <path fill="#B2B1B1" opacity="1.000000" stroke="none" d=" M278.025452,377.954163 C272.350006,386.475891 267.006134,395.245392 260.886627,403.435333 C256.553711,409.234192 251.171707,414.249207 245.086609,420.893036 C243.586823,409.645111 242.074585,399.968964 241.052246,390.241333 C239.566071,376.100311 238.306122,361.932037 237.198044,347.756012 C236.552155,339.492798 236.400879,331.191254 236.004547,322.908020 C235.886246,320.435547 235.691879,317.966705 235.222473,315.201904 C235.273682,313.162048 235.922348,311.420319 235.945755,309.670258 C236.043716,302.346863 235.863708,295.019806 235.956924,287.696289 C236.065399,279.174835 240.745590,273.439240 249.100067,272.097107 C252.887543,271.488678 253.752914,270.377289 253.331711,266.343658 C251.884140,252.481674 251.096115,238.550461 250.091919,224.643082 C249.974396,223.015396 250.075958,221.371872 250.075958,219.271576 C251.967804,219.180038 253.563477,219.102844 255.585754,219.514450 C257.025360,235.338913 257.960236,250.680344 259.098328,266.006714 C259.447052,270.702850 262.434692,270.664124 265.879395,269.038605 C268.981903,269.038605 272.084381,269.038605 275.812439,269.038605 C275.158447,259.875854 274.546478,251.301697 273.902100,242.273453 C275.991913,242.175186 277.576721,242.100662 279.587036,242.511322 C280.665131,251.521576 281.317688,260.046631 282.000641,268.969116 C284.570831,268.969116 286.369080,268.969116 288.167297,268.969116 C295.184296,269.593811 302.201263,270.218506 309.617218,270.944214 C307.270599,293.230103 303.395416,315.178986 296.067078,336.379486 C293.529755,343.719940 290.761719,350.980713 288.093750,358.664185 C288.088501,359.050537 288.077271,359.106934 287.614655,359.070404 C282.561127,359.359863 277.929474,359.407806 273.388397,360.073761 C265.595673,361.216583 257.729462,362.252563 250.137817,364.256592 C243.157257,366.099304 241.836853,373.668488 247.002686,379.000732 C247.000610,378.999237 246.997818,378.994995 247.096985,379.219360 C247.395645,379.720947 247.660370,379.903687 248.223740,380.276886 C250.814545,380.804779 253.224091,381.484711 255.519684,381.210541 C263.043915,380.311859 270.526733,379.066315 278.025452,377.954163 M292.693573,302.406128 C286.141205,295.233856 277.577667,292.963989 268.963715,296.116302 C259.909363,299.429779 255.218811,305.740540 254.931717,315.848419 C255.361832,318.952850 255.077560,322.395782 256.357666,325.097473 C260.016724,332.819916 266.169617,337.746521 275.033386,337.931824 C284.021332,338.119751 291.167084,334.570587 295.404175,326.226105 C299.598816,317.965179 298.789978,310.230896 292.693573,302.406128 z"/>
  <path fill="#010101" opacity="1.000000" stroke="none" d=" M430.067169,205.985504 C430.782196,193.306503 432.891571,180.773148 438.666199,169.481934 C446.009033,155.124344 459.260742,148.996155 474.678040,147.009659 C478.786926,146.480240 482.948578,146.360550 487.532837,146.544983 C487.978333,151.951660 487.672180,156.888245 488.026947,161.776840 C489.821198,186.500137 501.194916,205.823730 521.361633,220.081909 C518.444946,235.834686 510.437622,248.425217 497.356659,257.800110 C492.238617,249.185852 488.570251,239.993500 482.558594,232.744476 C469.104767,216.521500 451.609924,206.965851 430.067169,205.985504 z"/>
  <path fill="#FEFEFE" opacity="1.000000" stroke="none" d=" M781.995789,200.279388 C780.703918,203.093353 779.783691,206.162949 778.054810,208.676331 C771.126953,218.747849 763.976746,228.667404 756.818787,238.578186 C756.092957,239.583145 754.761536,240.150757 753.049133,240.840057 C741.877136,231.558563 729.314575,227.189102 715.674377,227.386139 C702.586121,227.575226 689.521606,229.412125 677.048218,230.364471 C679.247742,229.316437 680.860474,228.454254 682.441406,227.537201 C697.984680,218.521103 702.045898,197.335022 690.882385,182.687836 C686.522217,179.240829 682.264038,176.114639 677.692749,172.786896 C673.973877,171.780365 670.568176,170.975403 667.503906,169.981323 C672.888184,168.740555 677.930847,167.688904 683.388062,166.676834 C722.982361,159.037598 754.632874,173.386505 781.995789,200.279388 z"/>
  <path fill="#EF9F11" opacity="1.000000" stroke="none" d=" M782.326782,200.145966 C754.632874,173.386505 722.982361,159.037598 683.447205,166.352905 C694.731201,149.997238 706.370544,134.005066 718.009888,118.012901 C750.470459,117.490486 772.662537,133.688217 787.901306,161.070404 C796.235840,176.046585 796.176086,176.098480 787.962585,191.024750 C786.286133,194.071213 784.430664,197.019165 782.326782,200.145966 z"/>
  <path fill="#B3C73E" opacity="1.000000" stroke="none" d=" M676.446655,230.524872 C689.521606,229.412125 702.586121,227.575226 715.674377,227.386139 C729.314575,227.189102 741.877136,231.558563 752.704346,240.876923 C752.424927,242.267685 752.128479,243.850494 751.184509,244.764526 C742.616028,253.061249 733.934448,261.241180 725.295532,269.446198 C703.992432,255.351349 681.795532,259.290985 659.733521,262.404144 C647.746094,264.095703 635.814148,266.180176 623.457153,267.671173 C626.025940,262.683777 629.165344,258.212646 631.919128,253.515442 C635.144165,248.014420 638.033325,242.316528 641.421509,236.552856 C650.178467,234.956238 658.582031,233.510788 667.402039,231.982330 C670.694519,231.441162 673.570618,230.983017 676.446655,230.524872 z"/>
  <path fill="#414A56" opacity="1.000000" stroke="none" d=" M576.002991,256.549316 C575.950317,261.712219 575.897644,266.875122 575.419739,272.529724 C571.231445,273.235443 567.468384,273.449402 563.393250,273.681091 C563.722229,271.876099 563.979980,270.462006 564.432983,268.746246 C563.778137,266.786499 563.338989,264.528625 561.987427,263.602570 C559.605103,261.970337 556.665894,261.151001 553.959839,259.991333 C554.023987,246.519485 554.133179,233.047684 554.143494,219.575806 C554.169922,185.135284 554.247742,150.694168 554.041565,116.254868 C554.013184,111.505447 555.545410,109.931519 560.015686,110.407974 C561.989746,110.618378 564.005005,110.443375 566.001526,110.443382 C575.575073,110.443405 575.575073,110.443405 575.964478,120.658981 C575.983521,137.094696 576.023438,152.617569 575.988464,168.593933 C575.949402,185.409439 575.985352,201.771469 575.973999,218.591797 C575.952209,231.549835 575.977600,244.049576 576.002991,256.549316 z"/>
  <path fill="#E7810A" opacity="1.000000" stroke="none" d=" M717.547729,117.935295 C706.370544,134.005066 694.731201,149.997238 683.032715,166.313324 C677.930847,167.688904 672.888184,168.740555 667.093628,170.009918 C661.889526,171.188187 657.437317,172.148758 652.583191,173.000198 C651.043152,173.083313 649.907166,173.289780 648.766541,173.465622 C637.518188,175.199677 626.269104,176.928604 615.017090,178.236908 C615.185059,175.848160 615.271240,173.869781 615.541199,171.916794 C617.005310,161.324829 618.514832,150.739136 620.008667,140.151276 C631.226624,137.263489 642.630798,134.947037 653.622498,131.365005 C674.336487,124.614639 694.955078,117.796936 717.547729,117.935295 z"/>
  <path fill="#222222" opacity="1.000000" stroke="none" d=" M429.915619,206.364838 C451.609924,206.965851 469.104767,216.521500 482.558594,232.744476 C488.570251,239.993500 492.238617,249.185852 497.016907,257.882843 C492.649902,260.467468 488.236481,262.665497 483.422333,264.854858 C477.754883,263.540802 472.464905,262.321899 467.225647,260.914185 C449.683960,256.200989 436.151062,246.729477 430.378052,228.687744 C429.195435,224.991669 429.442932,220.837997 428.962463,216.442291 C429.183868,212.907608 429.473969,209.825897 429.915619,206.364838 z"/>
  <path fill="#222222" opacity="1.000000" stroke="none" d=" M521.578125,219.784729 C501.194916,205.823730 489.821198,186.500137 488.026947,161.776840 C487.672180,156.888245 487.978333,151.951660 487.972473,146.606506 C500.666718,146.817291 513.368164,147.458771 526.493225,148.132187 C527.137085,159.705872 528.199890,171.310165 527.348633,182.772324 C526.434570,195.080338 523.722290,207.254807 521.578125,219.784729 z"/>
  <path fill="#C0CBD1" opacity="1.000000" stroke="none" d=" M564.237732,269.047913 C563.979980,270.462006 563.722229,271.876099 563.393250,273.681091 C567.468384,273.449402 571.231445,273.235443 575.414917,272.996338 C576.611633,272.989288 577.387817,273.007355 578.329102,273.306702 C575.778625,274.784637 572.861206,275.676666 570.423035,277.292084 C568.956238,278.263916 567.045288,280.847717 567.451355,281.844666 C568.108521,283.458160 570.391296,285.154114 572.193481,285.419891 C578.070862,286.286530 584.041443,286.521759 589.976135,286.999878 C588.740906,287.776031 587.557739,288.654999 586.261963,289.311523 C578.285095,293.352631 577.567505,294.827454 579.518311,304.060944 C580.384521,308.160767 580.450378,311.956573 576.158447,314.832764 C568.946777,315.376099 561.982483,315.656982 554.146484,315.959473 C546.229614,313.699615 539.184326,311.418213 532.095337,308.661499 C531.709900,298.783173 531.368286,289.380157 531.026672,279.977142 C533.801453,275.472748 536.531494,270.940033 539.363342,266.471802 C542.310974,261.820801 546.128723,258.754944 552.511841,260.369720 C551.985107,262.227142 551.049316,263.716370 549.194641,266.667877 C554.807678,267.555939 559.522705,268.301910 564.237732,269.047913 z"/>
  <path fill="#EF9F11" opacity="1.000000" stroke="none" d=" M619.556396,140.086975 C618.514832,150.739136 617.005310,161.324829 615.541199,171.916794 C615.271240,173.869781 615.185059,175.848160 614.575317,178.313324 C611.338440,178.651657 608.542114,178.415298 605.741577,178.344818 C594.766724,178.068588 584.498291,175.783401 576.063416,168.140457 C576.023438,152.617569 575.983521,137.094696 576.039673,121.077194 C587.113586,134.455933 601.564636,140.652512 619.556396,140.086975 z"/>
  <path fill="#4D8C9A" opacity="1.000000" stroke="none" d=" M436.994476,298.908081 C435.613251,298.894592 434.232056,298.881134 432.436890,298.831909 C425.825134,295.734283 419.228607,293.267609 413.534821,289.453278 C407.050720,285.109558 403.152985,278.807434 404.978638,270.315979 C405.652191,267.183105 407.010742,265.870056 410.544952,266.569733 C416.537323,267.755981 422.640533,268.382446 429.081726,269.177795 C439.387939,270.752411 449.304840,272.423004 459.234131,274.016266 C462.174255,274.488007 465.149323,274.741974 468.491516,275.501709 C468.076874,276.927460 467.473846,278.239899 466.450531,278.920837 C458.122162,284.462708 449.698059,289.860535 441.347412,295.369476 C439.794250,296.394104 438.440369,297.720795 436.994476,298.908081 z"/>
  <path fill="#B2B1B1" opacity="1.000000" stroke="none" d=" M215.618530,357.034302 C216.633408,358.206085 217.759048,359.371002 217.912994,360.652588 C220.356735,380.997131 222.675781,401.356659 225.024750,421.712585 C225.081833,422.207367 225.123779,422.706726 225.224869,423.193146 C227.559235,434.427063 227.350250,434.793579 215.801682,439.082153 C212.319321,416.527222 209.222870,393.920868 205.979919,371.335541 C205.180878,365.770599 206.653351,361.686829 212.012207,359.316467 C213.198029,358.791931 214.193878,357.837952 215.618530,357.034302 z"/>
  <path fill="#66A5B1" opacity="1.000000" stroke="none" d=" M530.901062,279.591248 C531.368286,289.380157 531.709900,298.783173 532.018066,309.036163 C532.091370,313.803497 530.043213,315.839142 526.399841,316.981476 C520.544922,318.817139 514.793579,320.983032 508.998505,323.009399 C510.642426,308.259796 510.152893,293.560852 507.998627,278.469666 C514.302429,278.049408 520.559875,277.998596 526.813721,278.125671 C528.141113,278.152588 529.455200,278.828491 530.901062,279.591248 z"/>
  <path fill="#B3C73E" opacity="1.000000" stroke="none" d=" M608.013916,267.955841 C597.181702,267.285004 587.624146,262.941772 578.311646,257.081543 C581.591125,246.815109 584.946533,237.140366 588.647278,227.583405 C595.359253,230.255310 601.725952,232.809464 608.068481,235.860443 C608.034241,246.890137 608.024109,257.423004 608.013916,267.955841 z"/>
  <path fill="#99B128" opacity="1.000000" stroke="none" d=" M608.020996,267.976990 C608.024109,257.423004 608.034241,246.890137 608.509644,235.891373 C619.672607,235.851654 630.370422,236.277847 641.068176,236.704041 C638.033325,242.316528 635.144165,248.014420 631.919128,253.515442 C629.165344,258.212646 626.025940,262.683777 623.013794,267.602112 C618.537537,268.104004 614.104553,268.258698 609.109619,268.216278 C608.547668,268.019196 608.064026,267.972107 608.064026,267.972107 C608.064026,267.972107 608.028137,267.998138 608.020996,267.976990 z"/>
  <path fill="#66A5B1" opacity="1.000000" stroke="none" d=" M437.285583,299.195312 C438.440369,297.720795 439.794250,296.394104 441.347412,295.369476 C449.698059,289.860535 458.122162,284.462708 466.450531,278.920837 C467.473846,278.239899 468.076874,276.927460 468.911224,275.579773 C473.441132,275.650909 477.934540,276.049957 482.742889,276.708832 C482.937103,288.640381 476.454987,295.997437 463.547760,298.814606 C454.955536,300.689972 446.278381,300.999664 437.285583,299.195312 z"/>
  <path fill="#D1D9DE" opacity="1.000000" stroke="none" d=" M590.284851,286.861206 C584.041443,286.521759 578.070862,286.286530 572.193481,285.419891 C570.391296,285.154114 568.108521,283.458160 567.451355,281.844666 C567.045288,280.847717 568.956238,278.263916 570.423035,277.292084 C572.861206,275.676666 575.778625,274.784637 578.716919,273.325012 C584.357727,273.323456 589.782959,273.485840 595.191772,273.876312 C599.877502,274.214630 599.864990,277.263153 597.787048,280.068329 C595.876526,282.647369 593.028564,284.531982 590.284851,286.861206 z"/>
  <path fill="#B2B1B1" opacity="1.000000" stroke="none" d=" M226.665833,320.106262 C227.306976,328.342834 227.698502,336.703522 227.869034,345.068787 C227.895676,346.375519 227.292740,348.197510 226.332062,348.928467 C223.368210,351.183655 220.090286,353.026031 216.587067,355.051849 C215.853836,347.949677 215.668884,340.805847 215.010971,333.705811 C214.575546,329.006683 215.795090,325.709412 220.340881,323.781921 C222.462143,322.882477 224.349930,321.432373 226.665833,320.106262 z"/>
  <path fill="#9A9A9A" opacity="1.000000" stroke="none" d=" M265.863586,268.616547 C262.434692,270.664124 259.447052,270.702850 259.098328,266.006714 C257.960236,250.680344 257.025360,235.338913 256.025757,219.558929 C257.825745,219.114578 259.612274,219.114578 261.861969,219.114578 C263.203064,235.628296 264.525421,251.911392 265.863586,268.616547 z"/>
  <path fill="#99B128" opacity="1.000000" stroke="none" d=" M588.301941,227.465607 C584.946533,237.140366 581.591125,246.815109 578.088745,256.831848 C577.510254,257.040436 577.078613,256.907013 576.324951,256.661438 C575.977600,244.049576 575.952209,231.549835 576.250488,218.759369 C580.483398,221.467621 584.392639,224.466614 588.301941,227.465607 z"/>
  <path fill="#9A9A9A" opacity="1.000000" stroke="none" d=" M288.104767,268.522430 C286.369080,268.969116 284.570831,268.969116 282.000641,268.969116 C281.317688,260.046631 280.665131,251.521576 280.026184,242.556702 C281.831787,242.116898 283.623749,242.116898 285.925110,242.116898 C286.643951,250.930618 287.343079,259.503174 288.104767,268.522430 z"/>
  <path fill="#D1D9DE" opacity="1.000000" stroke="none" d=" M564.432983,268.746246 C559.522705,268.301910 554.807678,267.555939 549.194641,266.667877 C551.049316,263.716370 551.985107,262.227142 552.948486,260.393860 C552.976013,260.049805 553.467102,260.006042 553.713501,259.998688 C556.665894,261.151001 559.605103,261.970337 561.987427,263.602570 C563.338989,264.528625 563.778137,266.786499 564.432983,268.746246 z"/>
  <path fill="#B3C73E" opacity="1.000000" stroke="none" d=" M608.149048,268.104431 C608.064026,267.972107 608.547668,268.019196 608.653320,268.078278 C608.759033,268.137360 608.526245,268.342712 608.526245,268.342712 C608.526245,268.342712 608.234131,268.236725 608.149048,268.104431 z"/>
  <path fill="#C0CBD1" opacity="1.000000" stroke="none" d=" M407.000000,648.965820 C403.912598,654.940613 397.782013,654.595093 392.704315,654.817383 C379.659363,655.388428 366.560944,655.334167 353.508362,654.857971 C347.805481,654.649902 341.998199,653.315247 336.531952,651.571594 C328.912323,649.141052 326.797516,643.362976 330.437042,636.208801 C332.690491,631.779297 335.414307,627.589172 338.501953,623.076050 C347.388947,622.247620 355.700928,621.634766 364.475830,621.050598 C369.309845,621.144897 373.680969,621.210632 377.945251,621.615112 C372.392822,624.209229 366.735382,626.069336 361.565918,628.839966 C357.106689,631.229980 356.969971,634.815796 360.258942,638.740845 C364.511078,643.815247 370.239197,646.218506 376.428497,647.951843 C386.556824,650.788330 396.769592,649.865662 407.000000,648.965820 z"/>
  <path fill="#D1D9DE" opacity="1.000000" stroke="none" d=" M407.000000,648.552002 C396.769592,649.865662 386.556824,650.788330 376.428497,647.951843 C370.239197,646.218506 364.511078,643.815247 360.258942,638.740845 C356.969971,634.815796 357.106689,631.229980 361.565918,628.839966 C366.735382,626.069336 372.392822,624.209229 378.384155,621.550659 C381.307800,621.032593 383.685791,620.917786 386.295288,620.914673 C386.683380,621.095886 386.839996,621.165466 386.996582,621.235046 C387.979523,622.481628 388.865906,623.821350 389.962097,624.958801 C394.773529,629.950867 399.925323,634.651001 404.354095,639.957458 C406.057648,641.998657 406.165192,645.371887 407.000000,648.552002 z"/>
  <path fill="#4D8C9A" opacity="1.000000" stroke="none" d=" M364.012939,621.021973 C355.700928,621.634766 347.388947,622.247620 338.665558,622.741821 C337.888977,620.041321 337.523773,617.459351 337.219055,614.484619 C345.903503,613.685181 354.527496,613.278503 363.599182,612.875854 C364.046875,612.880005 363.997498,613.006775 364.004944,613.450928 C364.012543,616.270691 364.012726,618.646362 364.012939,621.021973 z"/>
  <path fill="#D1D9DE" opacity="1.000000" stroke="none" d=" M410.838806,568.950256 C409.747650,578.898804 408.634491,588.844971 407.579559,598.797363 C407.285187,601.574524 407.162903,604.369873 406.962006,607.619324 C406.631866,609.839905 406.301361,611.598145 405.571167,613.654297 C402.792999,613.587097 400.414581,613.221924 398.024139,612.459534 C401.090607,600.243652 404.079681,588.400452 407.315521,576.625122 C408.051605,573.946350 409.641754,571.502319 410.838806,568.950256 z"/>
  <path fill="#4D8C9A" opacity="1.000000" stroke="none" d=" M387.405396,621.147217 C386.839996,621.165466 386.683380,621.095886 386.294708,620.542480 C386.433533,617.924561 386.804474,615.790405 387.392029,613.522827 C387.748505,613.293396 387.888367,613.197449 388.474335,613.122192 C391.600098,613.131653 394.279755,613.120544 396.975403,613.501465 C396.659546,615.936462 396.327667,617.979248 395.995758,620.022095 C393.268555,620.367920 390.541382,620.713684 387.405396,621.147217 z"/>
  <path fill="#68A5B1" opacity="1.000000" stroke="none" d=" M396.301819,620.273804 C396.327667,617.979248 396.659546,615.936462 397.244568,613.437866 C397.677185,612.940369 397.856659,612.898621 398.036163,612.856812 C400.414581,613.221924 402.792999,613.587097 405.552979,614.052490 C405.533936,621.555603 405.533936,621.555603 396.301819,620.273804 z"/>
  <path fill="#92A3AB" opacity="1.000000" stroke="none" d=" M335.000641,210.984848 C327.992859,205.865906 325.802460,198.025772 324.368378,190.267593 C320.948975,171.768860 325.731018,155.432098 339.383575,142.198593 C344.484558,137.254181 350.745880,134.212296 358.573425,134.411728 C372.994812,151.847839 370.109894,181.974228 357.323761,197.428391 C351.439575,204.540359 343.969025,208.981125 335.000641,210.984848 z"/>
  <path fill="#ABB9C0" opacity="1.000000" stroke="none" d=" M335.144836,211.291901 C343.969025,208.981125 351.439575,204.540359 357.323761,197.428391 C370.109894,181.974228 372.994812,151.847839 358.985413,134.436523 C359.099487,134.075897 359.281006,134.052856 359.736206,134.008499 C378.779999,136.018127 387.168396,151.845352 388.945404,167.965576 C390.012756,177.647949 388.274353,187.070831 384.998901,196.608490 C380.332336,202.503220 376.167480,208.541443 370.908722,213.394257 C360.345093,223.142395 345.128693,222.075790 335.144836,211.291901 z"/>
  <path fill="#C0CBD1" opacity="1.000000" stroke="none" d=" M310.002838,438.122833 C309.338226,411.041412 307.945190,383.950470 308.298737,356.882355 C308.492065,342.081909 311.639435,327.320068 313.738342,312.269470 C315.114899,312.290527 316.419159,312.294556 317.269409,312.917908 C334.350433,325.440338 354.146240,330.956238 374.576752,333.807983 C391.404785,336.156830 408.490112,336.651093 425.456360,338.029602 C428.906403,338.309906 432.333801,338.868835 437.122375,339.468445 C430.534760,341.907837 424.983307,343.917999 419.464935,346.015228 C400.027710,353.402252 382.167206,363.221741 367.761139,378.662994 C357.141388,390.045807 350.944061,403.542877 350.367401,418.827362 C349.978516,429.134308 356.963287,436.175323 366.104614,440.494843 C371.899048,443.232880 377.914276,445.503571 383.514648,448.406281 C375.926239,448.240631 368.582550,448.104889 361.395355,446.974274 C344.225281,444.273285 327.128937,441.103394 310.002838,438.122833 z"/>
  <path fill="#C0CBD1" opacity="1.000000" stroke="none" d=" M508.992310,374.167206 C504.475861,374.780151 499.965912,375.858643 495.441772,375.921692 C479.782379,376.140045 464.118042,376.004456 448.455597,376.005951 C447.627594,376.006042 446.799591,376.028015 445.500610,375.618927 C444.344513,369.459839 443.659332,363.721619 442.967194,357.601685 C442.956055,356.209229 442.951904,355.198456 442.947754,354.187714 C442.146729,349.000305 441.345703,343.812897 440.626160,339.153198 C456.010986,336.062714 471.111816,333.029266 486.634399,329.978577 C489.139771,330.562469 491.223389,331.163635 493.645782,332.316772 C495.450409,336.833954 496.428864,341.076904 498.493958,344.700653 C501.765533,350.441467 504.595306,356.870300 511.955353,359.017822 C512.077637,359.008423 512.321350,358.980316 512.202148,359.368286 C511.052734,364.559875 510.022522,369.363556 508.992310,374.167206 z"/>
  <path fill="#4D8C9A" opacity="1.000000" stroke="none" d=" M310.009399,438.523712 C327.128937,441.103394 344.225281,444.273285 361.395355,446.974274 C368.582550,448.104889 375.926239,448.240631 383.618896,448.737061 C388.696899,448.810883 393.354736,448.976318 398.594849,449.539124 C400.037720,450.287354 400.882507,450.896088 401.761261,450.950012 C413.711151,451.683105 425.666962,452.319305 437.617859,453.036652 C439.365967,453.141571 441.096252,453.543182 442.834778,453.807556 C435.670654,455.140503 428.558838,457.076813 421.333466,457.702972 C388.201080,460.574249 355.254913,459.400696 322.724884,451.838074 C319.331940,451.049286 316.035950,449.843384 312.298218,448.729797 C311.272980,445.393890 310.644501,442.159241 310.009399,438.523712 z"/>
  <path fill="#68A5B1" opacity="1.000000" stroke="none" d=" M442.545654,354.131775 C442.951904,355.198456 442.956055,356.209229 442.517242,357.608948 C438.705597,358.311127 435.336914,358.624359 431.594360,358.951233 C421.713745,361.581848 417.049530,368.958405 413.893951,377.370728 C408.815796,390.908356 409.583069,404.039032 418.099091,416.190063 C422.346588,422.250580 429.682739,425.006927 436.853607,422.961304 C440.136810,422.024719 443.203156,420.327972 446.367859,418.975952 C446.267975,420.339355 446.168091,421.702728 445.981781,423.465881 C432.689941,430.106781 422.455383,428.727936 415.523712,419.610535 C409.445892,411.616211 406.945831,402.315582 407.331177,392.497253 C407.762024,381.521240 410.743225,371.144989 418.285858,362.705902 C424.625153,355.613190 432.270874,351.639771 442.545654,354.131775 z"/>
  <path fill="#68A5B1" opacity="1.000000" stroke="none" d=" M443.087036,453.846405 C441.096252,453.543182 439.365967,453.141571 437.617859,453.036652 C425.666962,452.319305 413.711151,451.683105 401.761261,450.950012 C400.882507,450.896088 400.037720,450.287354 399.054352,449.583008 C414.024261,447.131012 429.116943,445.032501 444.624573,442.933044 C444.673096,446.304474 444.306671,449.676819 443.894775,453.456360 C443.679260,453.870850 443.509277,453.878082 443.087036,453.846405 z"/>
  <path fill="#D1D9DE" opacity="1.000000" stroke="none" d=" M388.028198,613.101562 C387.888367,613.197449 387.748505,613.293396 386.931885,613.343872 C378.835907,613.201233 371.416718,613.104004 363.997498,613.006775 C363.997498,613.006775 364.046875,612.880005 364.069702,612.815430 C364.399811,590.462097 364.658142,568.172607 365.032227,545.884949 C365.266479,531.926147 365.590851,517.967407 366.049286,504.014374 C366.216919,498.913239 366.888580,493.828674 367.388336,488.067657 C392.774567,486.484283 417.551117,482.594971 439.605347,468.024109 C434.093811,484.218292 428.236542,500.458069 421.690735,516.830688 C414.910126,513.854553 408.800873,514.262146 402.770111,517.050720 C385.818573,524.888977 372.854706,552.697266 377.537903,570.881958 C379.953125,580.260132 384.671082,587.299622 394.996643,589.371094 C392.668152,597.543457 390.348175,605.322510 388.028198,613.101562 z"/>
  <path fill="#4D8C9A" opacity="1.000000" stroke="none" d=" M278.265564,377.856079 C270.526733,379.066315 263.043915,380.311859 255.519684,381.210541 C253.224091,381.484711 250.814545,380.804779 248.121216,380.055023 C247.590576,379.267334 247.328094,379.082916 246.997818,378.994995 C246.997818,378.994995 247.000610,378.999237 247.004120,378.589355 C247.391876,370.745819 249.128326,368.192596 256.250488,366.842377 C266.136719,364.968109 276.127563,363.645660 286.013123,362.440186 C283.937958,367.554474 281.923309,372.315582 279.908661,377.076660 C279.441010,377.303772 278.973328,377.530884 278.265564,377.856079 z"/>
  <path fill="#367180" opacity="1.000000" stroke="none" d=" M280.386475,377.071411 C281.923309,372.315582 283.937958,367.554474 286.285156,362.279846 C287.104218,360.879822 287.590759,359.993378 288.077271,359.106934 C288.077271,359.106934 288.088501,359.050537 288.066956,359.031982 C291.655823,359.328583 295.293182,359.464630 298.870087,360.002625 C303.721222,360.732300 306.866974,364.481140 306.526733,368.699249 C306.128540,373.635773 302.885162,376.849823 297.750549,376.999420 C292.125916,377.163361 286.493347,377.055573 280.386475,377.071411 z"/>
  <path fill="#807F7F" opacity="1.000000" stroke="none" d=" M246.976135,429.107239 C247.773132,433.352783 248.543457,437.182861 249.440460,441.642731 C243.800201,442.133057 238.920502,442.748016 234.028687,442.867798 C232.536133,442.904358 230.057587,441.899323 229.691864,440.812347 C228.852173,438.316742 227.795914,434.173157 229.021912,433.008606 C233.708740,428.556580 239.263412,425.018158 245.042786,420.731628 C245.821548,423.982880 246.385513,426.337341 246.976135,429.107239 z"/>
  <path fill="#4D8C9A" opacity="1.000000" stroke="none" d=" M285.014954,410.076202 C294.569733,409.772308 296.824341,411.657471 298.072296,421.377533 C299.144958,429.732117 300.310211,438.088562 300.941284,446.481262 C301.379974,452.315338 298.947357,455.766510 293.187805,456.935760 C287.074677,458.176758 280.756439,458.627167 274.505402,458.889191 C270.584686,459.053528 268.192566,456.369995 267.328186,452.329041 C268.089661,451.966125 268.551544,451.965240 269.169281,452.288147 C271.937653,453.750580 274.492920,455.651276 277.175873,455.852783 C281.409851,456.170807 285.740479,455.448517 290.010437,454.984711 C296.506836,454.278992 299.823761,449.606842 298.874542,443.133270 C298.084625,437.745972 297.653198,432.307159 296.972687,426.902527 C295.750641,417.197021 294.664001,412.740753 285.776855,411.879944 C285.363434,411.164368 285.189209,410.620270 285.014954,410.076202 z"/>
  <path fill="#66A5B1" opacity="1.000000" stroke="none" d=" M284.594482,410.053314 C285.189209,410.620270 285.363434,411.164368 285.771423,412.120911 C286.005188,412.533386 285.997375,413.016571 285.560394,413.010468 C279.742828,414.351044 274.212860,415.290924 269.035767,417.191864 C265.753815,418.396912 263.260864,421.287201 264.026428,425.402130 C265.615051,433.940491 267.349579,442.451691 269.020782,451.221619 C269.017426,451.469177 269.013458,451.964325 269.013458,451.964355 C268.551544,451.965240 268.089661,451.966125 267.280334,451.967896 C264.975433,442.833740 262.677917,433.752747 261.213257,424.539368 C260.546417,420.344482 263.249512,416.593750 267.184021,415.070862 C272.675049,412.945557 278.494873,411.669739 284.594482,410.053314 z"/>
  <path fill="#66A5B1" opacity="1.000000" stroke="none" d=" M292.967896,303.022339 C298.789978,310.230896 299.598816,317.965179 295.404175,326.226105 C291.167084,334.570587 284.021332,338.119751 275.033386,337.931824 C266.169617,337.746521 260.016724,332.819916 256.357666,325.097473 C255.077560,322.395782 255.361832,318.952850 255.265076,315.551636 C256.324432,315.653931 257.078827,316.009216 257.772217,316.458649 C270.033905,324.405212 283.019165,321.182098 290.041321,308.433258 C291.030609,306.637207 291.993042,304.826355 292.967896,303.022339 z"/>
  <path fill="#76AEB9" opacity="1.000000" stroke="none" d=" M292.830750,302.714233 C291.993042,304.826355 291.030609,306.637207 290.041321,308.433258 C283.019165,321.182098 270.033905,324.405212 257.772217,316.458649 C257.078827,316.009216 256.324432,315.653931 255.277237,315.108643 C255.218811,305.740540 259.909363,299.429779 268.963715,296.116302 C277.577667,292.963989 286.141205,295.233856 292.830750,302.714233 z"/>
  <path fill="#66A5B1" opacity="1.000000" stroke="none" d=" M287.614655,359.070404 C287.590759,359.993378 287.104218,360.879822 286.345673,361.926636 C276.127563,363.645660 266.136719,364.968109 256.250488,366.842377 C249.128326,368.192596 247.391876,370.745819 247.006195,378.590851 C241.836853,373.668488 243.157257,366.099304 250.137817,364.256592 C257.729462,362.252563 265.595673,361.216583 273.388397,360.073761 C277.929474,359.407806 282.561127,359.359863 287.614655,359.070404 z"/>
  <path fill="#66A5B1" opacity="1.000000" stroke="none" d=" M247.096985,379.219360 C247.328094,379.082916 247.590576,379.267334 247.887756,379.770111 C247.660370,379.903687 247.395645,379.720947 247.096985,379.219360 z"/>
  <path fill="#414A56" opacity="1.000000" stroke="none" d=" M652.985107,173.109344 C657.437317,172.148758 661.889526,171.188187 666.752075,170.199036 C670.568176,170.975403 673.973877,171.780365 677.717773,173.090424 C678.023071,174.000259 677.990356,174.404968 677.612793,174.740936 C676.196350,175.336227 674.498169,175.774582 674.163330,176.704086 C672.838867,180.380295 671.941650,184.210388 670.492310,187.965683 C669.836243,187.937241 669.573792,187.926544 669.378052,187.502319 C670.579163,182.555145 671.713501,178.021515 672.914551,173.221161 C670.775940,173.221161 669.229004,173.221161 667.387878,173.221161 C667.387878,179.110733 667.387878,184.689896 667.265015,190.725876 C665.858093,195.790604 668.818298,198.002808 672.331909,200.296387 C674.335266,200.568604 676.135498,200.561676 678.396729,200.472351 C683.654053,200.394150 688.450256,200.398392 693.169678,200.759125 C693.056030,201.355942 693.019226,201.596268 692.518860,201.893188 C686.442017,201.996857 680.828735,202.043900 674.841736,202.073059 C673.257568,202.789734 672.047180,203.524307 670.836853,204.258881 C671.001282,204.753784 671.165771,205.248672 671.330200,205.743576 C672.568359,205.628220 673.806519,205.512878 675.139282,205.297699 C675.233887,205.197876 675.440308,205.016083 675.467896,205.001709 C675.495544,204.987320 675.435120,204.972229 675.587952,205.205460 C675.846497,205.591599 675.952148,205.744522 676.072144,206.299103 C676.079346,207.504074 676.072144,208.307388 676.042908,209.327362 C676.020935,209.544037 676.135803,209.964203 675.749695,210.020355 C674.478088,210.941010 673.592590,211.805511 672.495544,212.522400 C672.191956,212.229431 672.100037,212.084076 672.010132,211.572739 C670.500916,209.743408 668.989624,208.280060 666.404968,205.777390 C667.062744,208.510330 667.353210,209.716965 667.727417,211.300797 C667.732849,212.444977 667.654541,213.211960 667.340515,213.969238 C666.790894,213.981522 666.476624,213.989151 666.106018,213.599777 C666.016296,212.187317 665.982544,211.157532 665.956848,209.767899 C664.955261,208.296890 663.945557,207.185715 662.699097,206.164474 C661.756531,207.126633 661.050720,207.998871 660.110657,209.186676 C659.293213,210.024307 658.710022,210.546356 657.628052,211.041306 C656.796448,211.005493 656.463562,210.996780 656.329346,210.681488 C656.570129,210.078918 656.648315,209.781570 656.637451,209.487564 C656.632751,209.360321 656.378601,209.117508 656.348389,209.133698 C651.889526,211.521729 647.440979,213.928757 641.972961,216.886002 C644.250305,218.385971 645.584351,219.390137 647.033569,220.184250 C648.512268,220.994461 649.344543,224.406677 648.053955,225.681320 C635.761230,215.876694 632.142944,199.562500 640.157227,186.550156 C643.333679,181.392700 648.645508,177.550446 652.985107,173.109344 M662.256287,192.608749 C663.018250,193.349457 663.780273,194.090164 664.542236,194.830887 C664.976074,194.105820 665.409912,193.380753 665.843872,191.762146 C665.843872,185.540756 665.843872,179.319351 665.843872,172.616501 C663.362976,172.951187 661.830017,173.157990 659.966919,173.409332 C661.691467,179.931091 663.285034,185.957825 664.274963,191.984604 C663.872620,191.994598 663.470276,192.004578 662.938416,191.347046 C662.610413,191.253891 662.282349,191.160721 662.546204,190.388062 C661.097656,185.046021 659.649048,179.703979 658.100769,173.994156 C656.098145,174.949036 654.705994,175.612839 652.960144,176.445312 C656.142761,181.532440 659.092590,186.247360 661.981812,191.452164 C661.981812,191.452164 662.025085,191.943771 662.256287,192.608749 M655.179626,193.737259 C655.792908,193.490021 656.406189,193.242783 657.741089,192.979202 C658.221619,192.955093 658.702148,192.930984 659.643250,192.863022 C659.666931,192.467545 659.690552,192.072067 659.714172,191.676590 C659.461487,191.770325 659.208862,191.864075 658.932678,192.034973 C658.932678,192.034973 658.987061,192.094543 659.618774,191.544510 C656.940979,186.915924 654.263184,182.287323 651.403809,177.344818 C649.659302,178.721649 648.398071,179.717072 647.064697,181.500641 C647.036926,182.027512 647.009216,182.554398 646.226440,182.772156 C644.966309,183.844757 643.706177,184.917343 641.844177,186.502213 C646.880798,189.019974 650.927429,191.042862 655.005981,193.014374 C655.005981,193.014374 654.947876,193.033905 655.179626,193.737259 M655.122375,205.768311 C650.082886,207.108795 645.043335,208.449295 639.550232,209.910446 C640.496643,211.900909 641.144531,213.263382 642.015869,215.095978 C647.013123,211.863190 651.521179,208.946854 656.588806,206.042786 C656.874939,205.910202 657.161133,205.777634 657.447266,205.645065 C657.266968,205.493759 657.008362,205.177887 656.919983,205.219925 C656.559265,205.391449 656.250610,205.672394 655.122375,205.768311 M640.517944,195.625854 C639.612305,197.050171 638.706665,198.474472 637.324097,200.648895 C644.981323,200.648895 651.161499,200.648895 657.341675,200.648895 C657.397217,200.412735 657.452759,200.176575 657.508301,199.940414 C652.127686,198.563873 646.747009,197.187332 640.517944,195.625854 M638.787231,205.781265 C639.279175,206.447266 639.942810,207.761536 640.237671,207.683441 C645.922852,206.177933 651.564819,204.509247 657.957642,202.659561 C651.903259,202.659561 646.765442,202.532822 641.643921,202.765732 C640.610535,202.812744 639.639099,204.222122 638.787231,205.781265 M651.571289,193.927612 C648.211975,192.056259 644.852722,190.184906 641.126831,188.109314 C640.463562,190.212891 640.039551,191.557632 639.483887,193.320068 C645.168884,194.809128 650.503540,196.206406 655.838257,197.603699 C655.969666,197.306931 656.101135,197.010162 656.232544,196.713394 C654.896973,195.894333 653.561340,195.075287 651.571289,193.927612 M659.357727,204.479019 C659.357727,204.479019 659.539185,204.574142 659.539185,204.574142 C659.539185,204.574142 659.508484,204.387039 659.357727,204.479019 z"/>
  <path fill="#515966" opacity="1.000000" stroke="none" d=" M667.643616,210.923584 C667.353210,209.716965 667.062744,208.510330 666.404968,205.777390 C668.989624,208.280060 670.500916,209.743408 671.647705,211.703247 C672.501099,217.544098 673.718994,222.888443 675.065369,228.796890 C677.349426,227.642700 678.721313,226.949432 680.223816,226.190170 C679.078125,224.022614 678.157532,222.280960 677.516541,220.345718 C677.970947,220.007812 678.145752,219.863495 678.577759,219.939026 C679.818115,221.788361 680.801270,223.417847 682.584839,226.373825 C684.080994,223.555420 685.034790,221.758621 686.381958,219.924255 C689.475891,219.348495 691.225403,218.231049 689.945435,215.012253 C690.478149,214.665375 690.750122,214.415924 691.380127,214.105804 C692.518982,212.573578 693.299866,211.102020 694.412292,209.005615 C688.435120,207.890488 683.209656,206.915619 677.990173,205.973633 C677.996094,206.006531 678.061523,205.992966 677.939453,205.611725 C677.023315,205.144394 676.229248,205.058304 675.435120,204.972229 C675.435120,204.972229 675.495544,204.987320 675.327271,204.814362 C674.918396,204.665588 674.677734,204.689774 674.437073,204.713959 C674.639587,204.941818 674.842163,205.169678 675.044678,205.397522 C673.806519,205.512878 672.568359,205.628220 671.330200,205.743576 C671.165771,205.248672 671.001282,204.753784 670.836853,204.258881 C672.047180,203.524307 673.257568,202.789734 675.055664,202.357269 C681.916748,204.287537 688.190125,205.915710 694.463562,207.543884 C694.860657,207.099243 695.257751,206.654587 695.654846,206.209946 C694.764038,204.752151 693.873291,203.294373 692.982483,201.836578 C693.019226,201.596268 693.056030,201.355942 693.502441,200.650177 C694.359863,198.568787 694.807739,196.952835 695.483032,194.516586 C688.625488,196.261398 682.959045,197.703156 676.912170,199.091339 C676.019714,199.022919 675.507812,199.008102 674.997925,198.996521 C675.000000,198.999771 675.007324,199.007202 675.135254,198.792572 C675.833679,198.238312 676.404175,197.898712 677.374939,197.450775 C683.191589,195.844467 688.608032,194.346466 694.323730,192.765732 C693.320984,190.697083 692.634705,189.281311 691.900085,187.765778 C690.092590,188.667221 688.641968,189.390640 686.951355,190.002167 C686.481445,189.630432 686.251587,189.370590 686.307983,188.900513 C687.694275,187.189606 688.794128,185.688950 690.012695,183.937393 C690.415710,183.460541 690.700073,183.234573 690.984436,183.008606 C702.045898,197.335022 697.984680,218.521103 682.441406,227.537201 C680.860474,228.454254 679.247742,229.316437 677.048218,230.364471 C673.570618,230.983017 670.694519,231.441162 666.970703,231.977539 C660.197205,230.035843 654.271606,228.015884 648.556213,225.520554 C650.210205,224.709290 651.653992,224.373398 653.324829,224.163742 C653.733887,224.582397 653.915833,224.874802 654.069092,225.544144 C655.401978,226.845734 656.763550,227.770370 659.023193,229.304871 C660.165100,223.176239 661.113159,218.088089 662.030762,212.999573 C662.000305,212.999191 662.016785,213.057953 662.375793,213.025085 C662.967590,212.311813 663.200439,211.631439 663.630554,210.692871 C663.530518,208.981308 663.233154,207.527939 662.935791,206.074570 C663.945557,207.185715 664.955261,208.296890 665.643799,209.954697 C663.769714,216.542755 662.216919,222.584198 660.596069,228.890259 C662.702820,229.197937 664.129700,229.406311 666.161987,229.703110 C666.161987,224.237183 666.161987,219.109818 666.161987,213.982437 C666.476624,213.989151 666.790894,213.981522 667.444153,214.426941 C667.783447,219.763657 667.783447,224.632950 667.783447,229.897903 C670.128601,229.412979 671.533813,229.122421 673.815369,228.650635 C671.668762,222.484955 669.656189,216.704269 667.643616,210.923584 z"/>
  <path fill="#686F7A" opacity="1.000000" stroke="none" d=" M676.974731,197.559113 C676.404175,197.898712 675.833679,198.238312 674.852417,198.773010 C672.866882,196.865021 669.269287,195.199448 672.978149,192.232208 C673.375305,192.358490 673.721191,192.217148 674.324951,192.012955 C674.929993,191.556885 675.277039,191.163666 675.889526,190.565735 C679.587952,187.281342 683.020874,184.201675 686.854126,180.762848 C684.432556,179.088318 683.122009,178.182053 681.522278,177.075775 C679.099426,181.562851 676.898132,185.639664 674.484985,189.887634 C674.088928,190.566681 673.904724,191.074554 673.522339,191.649139 C673.324219,191.715881 672.951843,191.909912 672.933960,191.646088 C672.680664,190.944778 672.445251,190.507309 672.324280,189.749329 C674.430969,185.889572 676.576111,182.423080 678.317505,178.764404 C678.806885,177.736206 678.110229,176.143478 677.957581,174.809692 C677.990356,174.404968 678.023071,174.000259 678.030884,173.291992 C682.264038,176.114639 686.522217,179.240829 690.882385,182.687820 C690.700073,183.234573 690.415710,183.460541 689.730835,183.768127 C688.098938,183.754898 686.353699,183.091949 685.723755,183.661835 C682.725525,186.374222 680.030762,189.421997 676.980286,192.528229 C676.570984,193.089462 676.409485,193.472900 676.247925,193.856323 C676.900635,193.646378 677.553406,193.436447 678.530762,193.119293 C681.244141,191.711639 683.632935,190.411209 686.021667,189.110764 C686.251587,189.370590 686.481445,189.630432 686.728271,190.264740 C683.488342,192.945862 680.231567,195.252487 676.974731,197.559113 z"/>
  <path fill="#FEFEFE" opacity="1.000000" stroke="none" d=" M648.345947,225.995926 C654.271606,228.015884 660.197205,230.035843 666.554199,232.060562 C658.582031,233.510788 650.178467,234.956238 641.421509,236.552856 C630.370422,236.277847 619.672607,235.851654 608.533691,235.394531 C601.725952,232.809464 595.359253,230.255310 588.647278,227.583389 C584.392639,224.466614 580.483398,221.467621 576.297668,218.301056 C575.985352,201.771469 575.949402,185.409439 575.988464,168.593933 C584.498291,175.783401 594.766724,178.068588 605.741577,178.344818 C608.542114,178.415298 611.338440,178.651657 614.578491,178.735413 C626.269104,176.928604 637.518188,175.199677 648.766541,173.465622 C649.907166,173.289780 651.043152,173.083313 652.583191,173.000214 C648.645508,177.550446 643.333679,181.392700 640.157227,186.550156 C632.142944,199.562500 635.761230,215.876694 648.068237,225.671478 C648.336975,225.957870 648.345947,225.995926 648.345947,225.995926 z"/>
  <path fill="#66A5B1" opacity="1.000000" stroke="none" d=" M395.005188,588.977844 C384.671082,587.299622 379.953125,580.260132 377.537903,570.881958 C372.854706,552.697266 385.818573,524.888977 402.770111,517.050720 C408.800873,514.262146 414.910126,513.854553 421.366516,517.006042 C419.469574,523.746643 417.208344,530.444885 414.660828,537.723938 C414.274719,538.887451 414.174835,539.470093 414.074951,540.052734 C413.975006,540.437744 413.875031,540.822693 413.466797,541.729248 C412.325989,544.044373 411.381500,545.795227 410.678619,547.638184 C405.427277,561.407837 400.223724,575.195679 395.005188,588.977844 z"/>
  <path fill="#83C3CC" opacity="1.000000" stroke="none" d=" M446.573242,418.640015 C443.203156,420.327972 440.136810,422.024719 436.853607,422.961304 C429.682739,425.006927 422.346588,422.250580 418.099091,416.190063 C409.583069,404.039032 408.815796,390.908356 413.893951,377.370728 C417.049530,368.958405 421.713745,361.581848 431.570007,359.313599 C430.081085,364.200256 427.499390,368.587097 426.540436,373.303864 C423.380219,388.847931 431.544373,405.662109 446.455475,408.072479 C446.563202,411.483002 446.670929,414.893524 446.573242,418.640015 z"/>
  <path fill="#92CAD2" opacity="1.000000" stroke="none" d=" M446.567139,407.666077 C431.544373,405.662109 423.380219,388.847931 426.540436,373.303864 C427.499390,368.587097 430.081085,364.200256 431.943878,359.299927 C435.336914,358.624359 438.705597,358.311127 442.524231,357.990662 C443.659332,363.721619 444.344513,369.459839 445.057617,375.651489 C445.616669,386.489838 446.147736,396.874756 446.567139,407.666077 z"/>
  <path fill="#68A5B1" opacity="1.000000" stroke="none" d=" M515.193054,336.152161 C522.228943,336.926544 529.264832,337.700928 537.067322,338.559692 C536.393127,345.224579 535.735474,351.726196 534.554932,358.639221 C526.795166,359.027161 519.558228,359.003723 512.321350,358.980286 C512.321350,358.980316 512.077637,359.008423 512.091431,358.631592 C513.134521,350.887238 514.163757,343.519684 515.193054,336.152161 z"/>
  <path fill="#C0CBD1" opacity="1.000000" stroke="none" d=" M394.996643,589.371094 C400.223724,575.195679 405.427277,561.407837 410.678619,547.638184 C411.381500,545.795227 412.325989,544.044373 413.413940,542.022949 C413.225647,547.321716 412.854980,552.855591 412.310516,558.372314 C411.989655,561.623291 411.393097,564.847046 410.879669,568.516663 C409.641754,571.502319 408.051605,573.946350 407.315521,576.625122 C404.079681,588.400452 401.090607,600.243652 398.024139,612.459534 C397.856659,612.898621 397.677185,612.940369 397.228577,613.045776 C394.279755,613.120544 391.600098,613.131653 388.474335,613.122192 C390.348175,605.322510 392.668152,597.543457 394.996643,589.371094 z"/>
  <path fill="#D1D9DE" opacity="1.000000" stroke="none" d=" M514.769165,336.096954 C514.163757,343.519684 513.134521,350.887238 511.969177,358.640991 C504.595306,356.870300 501.765533,350.441467 498.493958,344.700653 C496.428864,341.076904 495.450409,336.833954 493.971375,332.481445 C500.753876,333.410034 507.549591,334.725891 514.769165,336.096954 z"/>
  <path fill="#4D8C9A" opacity="1.000000" stroke="none" d=" M512.202148,359.368256 C519.558228,359.003723 526.795166,359.027161 534.443481,359.042725 C534.834534,360.115326 534.814087,361.195831 534.505615,362.877563 C534.174744,364.024780 534.131836,364.570740 534.088989,365.116699 C534.387817,368.265259 533.215271,369.788971 529.819580,370.282166 C523.117432,371.255585 516.492981,372.763367 509.414368,374.108673 C510.022522,369.363556 511.052734,364.559875 512.202148,359.368256 z"/>
  <path fill="#68A5B1" opacity="1.000000" stroke="none" d=" M534.274536,364.902161 C534.131836,364.570740 534.174744,364.024780 534.400635,363.270569 C534.542480,363.604065 534.501221,364.145844 534.274536,364.902161 z"/>
  <path fill="#C0CBD1" opacity="1.000000" stroke="none" d=" M414.314209,539.855347 C414.174835,539.470093 414.274719,538.887451 414.587219,538.089783 C414.717682,538.469177 414.635559,539.063538 414.314209,539.855347 z"/>
  <path fill="#68A5B1" opacity="1.000000" stroke="none" d=" M364.004944,613.450928 C371.416718,613.104004 378.835907,613.201233 386.715271,613.477417 C386.804474,615.790405 386.433533,617.924561 386.063202,620.430786 C383.685791,620.917786 381.307800,621.032593 378.490936,621.211792 C373.680969,621.210632 369.309845,621.144897 364.475830,621.050598 C364.012726,618.646362 364.012543,616.270691 364.004944,613.450928 z"/>
  <path fill="#67AFBA" opacity="1.000000" stroke="none" d=" M269.169281,452.288147 C269.013458,451.964325 269.017426,451.469177 269.366516,451.193207 C284.040955,442.106232 287.976196,428.831726 285.997375,413.016571 C285.997375,413.016571 286.005188,412.533386 286.010620,412.292419 C294.664001,412.740753 295.750641,417.197021 296.972687,426.902527 C297.653198,432.307159 298.084625,437.745972 298.874542,443.133270 C299.823761,449.606842 296.506836,454.278992 290.010437,454.984711 C285.740479,455.448517 281.409851,456.170807 277.175873,455.852783 C274.492920,455.651276 271.937653,453.750580 269.169281,452.288147 z"/>
  <path fill="#76B8C2" opacity="1.000000" stroke="none" d=" M285.560394,413.010468 C287.976196,428.831726 284.040955,442.106232 269.369873,450.945648 C267.349579,442.451691 265.615051,433.940491 264.026428,425.402130 C263.260864,421.287201 265.753815,418.396912 269.035767,417.191864 C274.212860,415.290924 279.742828,414.351044 285.560394,413.010468 z"/>
  <path fill="#F1F1F3" opacity="1.000000" stroke="none" d=" M648.556213,225.520554 C648.345947,225.995926 648.336975,225.957870 648.322754,225.967712 C649.344543,224.406677 648.512268,220.994461 647.033569,220.184250 C645.584351,219.390137 644.250305,218.385971 641.972961,216.886002 C647.440979,213.928757 651.889526,211.521729 656.348389,209.133698 C656.378601,209.117508 656.632751,209.360321 656.637451,209.487564 C656.648315,209.781570 656.570129,210.078918 656.253906,210.723480 C655.979797,211.072052 655.927368,211.397598 655.645935,211.522980 C655.117676,211.971603 654.870850,212.294815 654.401367,212.725311 C653.902893,213.038025 653.720886,213.306900 653.409180,213.742554 C652.908875,214.048523 652.728088,214.316132 652.418579,214.750397 C651.913574,215.052979 651.731506,215.320587 651.422852,215.757172 C650.920288,216.063858 650.742371,216.334137 650.437744,216.769135 C649.928406,217.068756 649.748108,217.337982 649.311523,217.921677 C648.948547,218.797180 648.944092,219.426712 648.939636,220.056229 C649.634460,219.529648 650.329224,219.003067 651.230469,218.350983 C651.738953,218.059387 651.932495,217.809235 652.220215,217.351410 C652.718811,217.060577 652.904114,216.811157 653.181152,216.348770 C653.686401,216.053497 653.877808,215.803543 654.146118,215.337112 C654.617737,215.044342 654.800720,214.805786 655.060486,214.358612 C655.495178,214.060730 655.677979,213.834122 655.893127,213.486389 C656.000488,213.425812 656.107117,213.202957 656.381348,213.074188 C657.145996,212.319763 657.636414,211.694077 658.126831,211.068420 C658.710022,210.546356 659.293213,210.024307 660.171997,209.642242 C658.010986,214.533981 655.554382,219.285736 653.097717,224.037491 C651.653992,224.373398 650.210205,224.709290 648.556213,225.520554 z"/>
  <path fill="#D1D9DE" opacity="1.000000" stroke="none" d=" M664.878662,191.984573 C663.285034,185.957825 661.691467,179.931091 659.966919,173.409332 C661.830017,173.157990 663.362976,172.951187 665.843872,172.616501 C665.843872,179.319351 665.843872,185.540756 665.627625,192.215210 C665.204346,192.463318 665.026794,192.235413 664.878662,191.984573 z"/>
  <path fill="#F1F1F3" opacity="1.000000" stroke="none" d=" M667.387878,190.269043 C667.387878,184.689896 667.387878,179.110733 667.387878,173.221161 C669.229004,173.221161 670.775940,173.221161 672.914551,173.221161 C671.713501,178.021515 670.579163,182.555145 669.256531,187.760590 C668.508118,189.044601 667.947998,189.656830 667.387878,190.269043 z"/>
  <path fill="#D1D9DE" opacity="1.000000" stroke="none" d=" M640.942139,195.718323 C646.747009,197.187332 652.127686,198.563873 657.508301,199.940414 C657.452759,200.176575 657.397217,200.412735 657.341675,200.648895 C651.161499,200.648895 644.981323,200.648895 637.324097,200.648895 C638.706665,198.474472 639.612305,197.050171 640.942139,195.718323 z"/>
  <path fill="#F1F1F3" opacity="1.000000" stroke="none" d=" M638.713135,205.392334 C639.639099,204.222122 640.610535,202.812744 641.643921,202.765732 C646.765442,202.532822 651.903259,202.659561 657.957642,202.659561 C651.564819,204.509247 645.922852,206.177933 640.237671,207.683441 C639.942810,207.761536 639.279175,206.447266 638.713135,205.392334 z"/>
  <path fill="#F1F1F3" opacity="1.000000" stroke="none" d=" M692.518860,201.893188 C693.873291,203.294373 694.764038,204.752151 695.654846,206.209946 C695.257751,206.654587 694.860657,207.099243 694.463562,207.543884 C688.190125,205.915710 681.916748,204.287537 675.429443,202.375153 C680.828735,202.043900 686.442017,201.996857 692.518860,201.893188 z"/>
  <path fill="#F1F1F3" opacity="1.000000" stroke="none" d=" M689.684753,215.109695 C691.225403,218.231049 689.475891,219.348495 686.389893,219.941589 C686.004517,219.996506 686.031616,220.024277 686.068237,219.694733 C685.728577,219.232925 685.352234,219.100677 684.989258,218.982986 C685.002563,218.997543 685.031555,219.024155 685.067505,218.695496 C684.727844,218.234161 684.352234,218.101517 683.989624,217.983200 C684.002563,217.997528 684.031189,218.023468 684.065369,217.696869 C683.725281,217.236267 683.351013,217.102264 682.989807,216.982758 C683.002869,216.997253 683.031799,217.023376 683.060730,216.699371 C682.718750,216.239502 682.347778,216.103653 681.989929,215.982407 C682.002991,215.997025 682.032227,216.023239 682.056396,215.701065 C681.712646,215.241745 681.344788,215.104599 680.989990,214.982178 C681.003174,214.996902 681.032532,215.023209 681.054077,214.702759 C680.709534,214.243973 680.343384,214.105637 679.990234,213.982086 C680.003235,213.996872 680.032654,214.022964 680.050659,213.704865 C679.704895,213.246841 679.341187,213.106934 678.990356,212.981842 C679.003357,212.996674 679.032898,213.022736 679.046265,212.706360 C678.698914,212.249069 678.338318,212.108124 677.989868,211.980057 C678.002014,211.992935 678.034607,212.005615 678.052856,211.696869 C677.425964,210.913483 676.780884,210.438843 676.135803,209.964203 C676.135803,209.964203 676.020935,209.544037 676.416504,209.290695 C681.103027,211.061462 685.393860,213.085587 689.684753,215.109695 z"/>
  <path fill="#F1F1F3" opacity="1.000000" stroke="none" d=" M666.106018,213.599777 C666.161987,219.109818 666.161987,224.237183 666.161987,229.703110 C664.129700,229.406311 662.702820,229.197937 660.596069,228.890259 C662.216919,222.584198 663.769714,216.542755 665.635620,210.314529 C665.982544,211.157532 666.016296,212.187317 666.106018,213.599777 z"/>
  <path fill="#F1F1F3" opacity="1.000000" stroke="none" d=" M677.236938,220.539291 C678.157532,222.280960 679.078125,224.022614 680.223816,226.190170 C678.721313,226.949432 677.349426,227.642700 675.065369,228.796890 C673.718994,222.888443 672.501099,217.544098 671.645630,212.069229 C672.100037,212.084076 672.191956,212.229431 672.566528,212.836548 C674.311707,215.711975 675.774292,218.125626 677.236938,220.539291 z"/>
  <path fill="#F1F1F3" opacity="1.000000" stroke="none" d=" M677.612793,174.740936 C678.110229,176.143478 678.806885,177.736206 678.317505,178.764404 C676.576111,182.423080 674.430969,185.889572 672.120605,189.995880 C671.496948,189.703079 671.191467,188.843231 670.885986,187.983398 C671.941650,184.210388 672.838867,180.380295 674.163330,176.704086 C674.498169,175.774582 676.196350,175.336227 677.612793,174.740936 z"/>
  <path fill="#FAFAFC" opacity="1.000000" stroke="none" d=" M677.292664,199.144913 C682.959045,197.703156 688.625488,196.261398 695.483032,194.516586 C694.807739,196.952835 694.359863,198.568787 693.579224,200.293671 C688.450256,200.398392 683.654053,200.394150 678.266113,200.240570 C677.547119,199.775772 677.419922,199.460342 677.292664,199.144913 z"/>
  <path fill="#F1F1F3" opacity="1.000000" stroke="none" d=" M667.727417,211.300797 C669.656189,216.704269 671.668762,222.484955 673.815369,228.650635 C671.533813,229.122421 670.128601,229.412979 667.783447,229.897903 C667.783447,224.632950 667.783447,219.763657 667.679810,214.436646 C667.654541,213.211960 667.732849,212.444977 667.727417,211.300797 z"/>
  <path fill="#F1F1F3" opacity="1.000000" stroke="none" d=" M651.898499,194.091919 C653.561340,195.075287 654.896973,195.894333 656.232544,196.713394 C656.101135,197.010162 655.969666,197.306931 655.838257,197.603699 C650.503540,196.206406 645.168884,194.809128 639.483887,193.320068 C640.039551,191.557632 640.463562,190.212891 641.126831,188.109314 C644.852722,190.184906 648.211975,192.056259 651.898499,194.091919 z"/>
  <path fill="#F1F1F3" opacity="1.000000" stroke="none" d=" M662.042358,190.962280 C659.092590,186.247360 656.142761,181.532440 652.960144,176.445312 C654.705994,175.612839 656.098145,174.949036 658.100769,173.994156 C659.649048,179.703979 661.097656,185.046021 662.270386,190.699890 C661.994568,191.011719 662.042358,190.962280 662.042358,190.962280 z"/>
  <path fill="#FAFAFC" opacity="1.000000" stroke="none" d=" M647.136841,180.712494 C648.398071,179.717072 649.659302,178.721649 651.403809,177.344818 C654.263184,182.287323 656.940979,186.915924 659.002075,191.675659 C654.635803,188.108688 650.886353,184.410583 647.136841,180.712494 z"/>
  <path fill="#F1F1F3" opacity="1.000000" stroke="none" d=" M656.029297,206.030533 C651.521179,208.946854 647.013123,211.863190 642.015869,215.095978 C641.144531,213.263382 640.496643,211.900909 639.550232,209.910446 C645.043335,208.449295 650.082886,207.108795 655.549011,205.870239 C655.975647,205.972183 656.029297,206.030548 656.029297,206.030533 z"/>
  <path fill="#FAFAFC" opacity="1.000000" stroke="none" d=" M654.974060,193.065765 C650.927429,191.042862 646.880798,189.019974 641.844177,186.502213 C643.706177,184.917343 644.966309,183.844757 646.743652,183.226700 C649.831848,186.809418 652.402954,189.937592 654.974060,193.065765 z"/>
  <path fill="#515966" opacity="1.000000" stroke="none" d=" M670.492310,187.965668 C671.191467,188.843231 671.496948,189.703079 672.006104,190.316376 C672.445251,190.507309 672.680664,190.944778 672.959900,191.674438 C673.003662,191.966629 672.926941,191.964584 672.926941,191.964584 C669.269287,195.199448 672.866882,196.865021 674.724548,198.987656 C675.007324,199.007202 675.000000,198.999771 674.812744,199.263824 C673.793274,199.690994 672.961060,199.854126 672.128845,200.017242 C668.818298,198.002808 665.858093,195.790604 667.265015,190.725891 C667.947998,189.656830 668.508118,189.044601 669.189819,188.174133 C669.573792,187.926544 669.836243,187.937241 670.492310,187.965668 z"/>
  <path fill="#686F7A" opacity="1.000000" stroke="none" d=" M653.324829,224.163742 C655.554382,219.285736 658.010986,214.533981 660.406250,209.326675 C661.050720,207.998871 661.756531,207.126633 662.699097,206.164490 C663.233154,207.527939 663.530518,208.981308 663.250244,210.738739 C662.453918,211.714523 662.235352,212.386230 662.016785,213.057953 C662.016785,213.057953 662.000305,212.999191 661.677673,213.029648 C658.935974,217.095795 656.516846,221.131485 654.097778,225.167191 C653.915833,224.874802 653.733887,224.582397 653.324829,224.163742 z"/>
  <path fill="#515966" opacity="1.000000" stroke="none" d=" M654.989990,193.040070 C652.402954,189.937592 649.831848,186.809418 647.121155,183.381256 C647.009216,182.554398 647.036926,182.027512 647.100769,181.106567 C650.886353,184.410583 654.635803,188.108688 658.686157,191.950668 C658.987061,192.094543 658.932678,192.034973 658.994873,192.235077 C659.057007,192.435196 659.182678,192.906860 659.182678,192.906860 C658.702148,192.930984 658.221619,192.955093 656.995789,192.816772 C655.816284,192.780884 655.382080,192.907394 654.947876,193.033905 C654.947876,193.033905 655.005981,193.014374 654.989990,193.040070 z"/>
  <path fill="#686F7A" opacity="1.000000" stroke="none" d=" M689.945435,215.012253 C685.393860,213.085587 681.103027,211.061462 676.438477,209.074020 C676.072144,208.307388 676.079346,207.504074 676.410522,206.320618 C677.176758,205.957977 677.619141,205.975464 678.061523,205.992966 C678.061523,205.992966 677.996094,206.006531 678.062500,206.318146 C682.426636,209.141998 686.724426,211.654236 691.022156,214.166473 C690.750122,214.415924 690.478149,214.665375 689.945435,215.012253 z"/>
  <path fill="#515966" opacity="1.000000" stroke="none" d=" M677.516541,220.345718 C675.774292,218.125626 674.311707,215.711975 672.778076,212.984161 C673.592590,211.805511 674.478088,210.941010 675.749695,210.020355 C676.780884,210.438843 677.425964,210.913483 677.790955,212.023773 C676.505920,212.443878 675.500916,212.228333 674.139709,211.936386 C675.697876,214.836853 677.009216,217.278000 678.320618,219.719162 C678.145752,219.863495 677.970947,220.007812 677.516541,220.345718 z"/>
  <path fill="#515966" opacity="1.000000" stroke="none" d=" M664.576782,191.984589 C665.026794,192.235413 665.204346,192.463318 665.627563,192.661972 C665.409912,193.380753 664.976074,194.105820 664.542236,194.830872 C663.780273,194.090164 663.018250,193.349457 662.395996,192.373703 C662.713135,192.097290 662.890503,192.055939 663.067932,192.014557 C663.470276,192.004578 663.872620,191.994598 664.576782,191.984589 z"/>
  <path fill="#686F7A" opacity="1.000000" stroke="none" d=" M672.331909,200.296387 C672.961060,199.854126 673.793274,199.690994 674.810669,199.260559 C675.507812,199.008102 676.019714,199.022919 676.912170,199.091339 C677.419922,199.460342 677.547119,199.775772 677.805054,200.322983 C676.135498,200.561676 674.335266,200.568604 672.331909,200.296387 z"/>
  <path fill="#686F7A" opacity="1.000000" stroke="none" d=" M655.927368,211.397598 C655.927368,211.397598 655.979797,211.072052 656.055298,211.030060 C656.463562,210.996780 656.796448,211.005493 657.628052,211.041290 C657.636414,211.694077 657.145996,212.319763 656.354004,212.621094 C656.010681,211.997025 655.968994,211.697311 655.927368,211.397598 z"/>
  <path fill="#F1F1F3" opacity="1.000000" stroke="none" d=" M655.949219,205.942596 C656.250610,205.672394 656.559265,205.391449 656.919983,205.219925 C657.008362,205.177887 657.266968,205.493759 657.447266,205.645065 C657.161133,205.777634 656.874939,205.910202 656.309082,206.036667 C656.029297,206.030548 655.975647,205.972183 655.949219,205.942596 z"/>
  <path fill="#F1F1F3" opacity="1.000000" stroke="none" d=" M677.939453,205.611725 C677.619141,205.975464 677.176758,205.957977 676.396057,205.918945 C675.952148,205.744522 675.846497,205.591599 675.587952,205.205460 C676.229248,205.058304 677.023315,205.144394 677.939453,205.611725 z"/>
  <path fill="#FAFAFC" opacity="1.000000" stroke="none" d=" M659.412964,192.884949 C659.182678,192.906860 659.057007,192.435196 659.006592,192.196503 C659.208862,191.864075 659.461487,191.770325 659.714172,191.676590 C659.690552,192.072067 659.666931,192.467545 659.412964,192.884949 z"/>
  <path fill="#FAFAFC" opacity="1.000000" stroke="none" d=" M655.063721,193.385590 C655.382080,192.907394 655.816284,192.780884 656.635010,192.824951 C656.406189,193.242783 655.792908,193.490021 655.063721,193.385590 z"/>
  <path fill="#515966" opacity="1.000000" stroke="none" d=" M659.433105,204.433029 C659.508484,204.387039 659.539185,204.574142 659.539185,204.574142 C659.539185,204.574142 659.357727,204.479019 659.433105,204.433029 z"/>
  <path fill="#F1F1F3" opacity="1.000000" stroke="none" d=" M663.003174,191.680817 C662.890503,192.055939 662.713135,192.097290 662.280396,192.041214 C662.025085,191.943771 661.981812,191.452164 662.012085,191.207214 C662.042358,190.962280 661.994568,191.011719 661.974487,191.039642 C662.282349,191.160721 662.610413,191.253891 663.003174,191.680817 z"/>
  <path fill="#F1F1F3" opacity="1.000000" stroke="none" d=" M678.577759,219.939026 C677.009216,217.278000 675.697876,214.836853 674.139709,211.936386 C675.500916,212.228333 676.505920,212.443878 677.772705,212.332520 C678.034607,212.005615 678.002014,211.992935 677.797852,212.382660 C678.073486,212.855850 678.553162,212.939285 679.032898,213.022736 C679.032898,213.022736 679.003357,212.996674 678.799927,213.383087 C679.075195,213.853973 679.553955,213.938461 680.032654,214.022964 C680.032654,214.022964 680.003235,213.996872 679.804321,214.381226 C680.081177,214.851456 680.556824,214.937332 681.032532,215.023209 C681.032532,215.023209 681.003174,214.996902 680.809326,215.379913 C681.087708,215.849701 681.559998,215.936462 682.032227,216.023239 C682.032227,216.023239 682.002991,215.997025 681.811157,216.378098 C682.090149,216.847244 682.560974,216.935303 683.031799,217.023376 C683.031799,217.023376 683.002869,216.997253 682.816589,217.375916 C683.097290,217.844208 683.564209,217.933838 684.031189,218.023468 C684.031189,218.023468 684.002563,217.997528 683.821533,218.373444 C684.104187,218.840958 684.567871,218.932556 685.031555,219.024155 C685.031555,219.024155 685.002563,218.997543 684.828247,219.372314 C685.113220,219.839478 685.572388,219.931870 686.031616,220.024261 C686.031616,220.024277 686.004517,219.996506 685.996582,219.979172 C685.034790,221.758621 684.080994,223.555420 682.584839,226.373825 C680.801270,223.417847 679.818115,221.788361 678.577759,219.939026 z"/>
  <path fill="#F1F1F3" opacity="1.000000" stroke="none" d=" M677.374939,197.450775 C680.231567,195.252487 683.488342,192.945862 686.968262,190.376648 C688.641968,189.390640 690.092590,188.667221 691.900085,187.765778 C692.634705,189.281311 693.320984,190.697083 694.323730,192.765732 C688.608032,194.346466 683.191589,195.844467 677.374939,197.450775 z"/>
  <path fill="#F1F1F3" opacity="1.000000" stroke="none" d=" M691.380127,214.105804 C686.724426,211.654236 682.426636,209.141998 678.056580,206.285248 C683.209656,206.915619 688.435120,207.890488 694.412292,209.005615 C693.299866,211.102020 692.518982,212.573578 691.380127,214.105804 z"/>
  <path fill="#F1F1F3" opacity="1.000000" stroke="none" d=" M654.069092,225.544144 C656.516846,221.131485 658.935974,217.095795 661.708130,213.030029 C661.113159,218.088089 660.165100,223.176239 659.023193,229.304871 C656.763550,227.770370 655.401978,226.845734 654.069092,225.544144 z"/>
  <path fill="#FAFAFC" opacity="1.000000" stroke="none" d=" M686.307983,188.900528 C683.632935,190.411209 681.244141,191.711639 678.299683,192.885315 C677.571960,192.622498 677.399963,192.486450 677.228027,192.350403 C680.030762,189.421997 682.725525,186.374222 685.723755,183.661835 C686.353699,183.091949 688.098938,183.754898 689.612183,184.019012 C688.794128,185.688950 687.694275,187.189606 686.307983,188.900528 z"/>
  <path fill="#F1F1F3" opacity="1.000000" stroke="none" d=" M662.375793,213.025070 C662.235352,212.386230 662.453918,211.714523 663.052856,210.996918 C663.200439,211.631439 662.967590,212.311813 662.375793,213.025070 z"/>
  <path fill="#686F7A" opacity="1.000000" stroke="none" d=" M675.139282,205.297699 C674.842163,205.169678 674.639587,204.941818 674.437073,204.713959 C674.677734,204.689774 674.918396,204.665588 675.299683,204.828735 C675.440308,205.016083 675.233887,205.197876 675.139282,205.297699 z"/>
  <path fill="#FAFAFC" opacity="1.000000" stroke="none" d=" M674.696838,189.716461 C676.898132,185.639664 679.099426,181.562851 681.522278,177.075775 C683.122009,178.182053 684.432556,179.088318 686.854126,180.762848 C683.020874,184.201675 679.587952,187.281342 675.671021,190.289474 C675.023682,190.050766 674.860229,189.883621 674.696838,189.716461 z"/>
  <path fill="#FAFAFC" opacity="1.000000" stroke="none" d=" M673.720520,191.582413 C673.904724,191.074554 674.088928,190.566681 674.484985,189.887634 C674.860229,189.883621 675.023682,190.050766 675.405579,190.494202 C675.277039,191.163666 674.929993,191.556885 674.234924,191.892029 C673.886963,191.833939 673.720520,191.582413 673.720520,191.582413 z"/>
  <path fill="#FAFAFC" opacity="1.000000" stroke="none" d=" M677.974976,192.992523 C677.553406,193.436447 676.900635,193.646378 676.247925,193.856323 C676.409485,193.472900 676.570984,193.089462 676.980286,192.528229 C677.399963,192.486450 677.571960,192.622498 677.974976,192.992523 z"/>
  <path fill="#FAFAFC" opacity="1.000000" stroke="none" d=" M673.977051,191.954865 C673.721191,192.217148 673.375305,192.358490 672.978149,192.232208 C672.926941,191.964584 673.003662,191.966629 672.977783,191.938263 C672.951843,191.909912 673.324219,191.715881 673.522339,191.649139 C673.720520,191.582413 673.886963,191.833939 673.977051,191.954865 z"/>
  <path fill="#414A56" opacity="1.000000" stroke="none" d=" M651.024048,218.476486 C650.329224,219.003067 649.634460,219.529648 648.939636,220.056229 C648.944092,219.426712 648.948547,218.797180 649.635864,218.145828 C650.553833,218.241486 650.788940,218.358978 651.024048,218.476486 z"/>
  <path fill="#414A56" opacity="1.000000" stroke="none" d=" M649.994385,217.899841 C649.748108,217.337982 649.928406,217.068756 650.761719,216.994232 C651.547485,217.238663 651.782471,217.356857 652.017456,217.475037 C651.932495,217.809235 651.738953,218.059387 651.230469,218.350983 C650.788940,218.358978 650.553833,218.241486 649.994385,217.899841 z"/>
  <path fill="#414A56" opacity="1.000000" stroke="none" d=" M650.988525,216.895355 C650.742371,216.334137 650.920288,216.063858 651.742126,215.985168 C652.516907,216.233780 652.747803,216.356644 652.978760,216.479523 C652.904114,216.811157 652.718811,217.060577 652.220215,217.351410 C651.782471,217.356857 651.547485,217.238663 650.988525,216.895355 z"/>
  <path fill="#414A56" opacity="1.000000" stroke="none" d=" M653.957581,215.468155 C653.877808,215.803543 653.686401,216.053497 653.181152,216.348770 C652.747803,216.356644 652.516907,216.233780 651.966797,215.882919 C651.731506,215.320587 651.913574,215.052979 652.733765,214.976685 C653.501709,215.223587 653.729614,215.345871 653.957581,215.468155 z"/>
  <path fill="#414A56" opacity="1.000000" stroke="none" d=" M652.958618,214.875015 C652.728088,214.316132 652.908875,214.048523 653.710083,213.972900 C654.450745,214.230057 654.667175,214.360214 654.883606,214.490387 C654.800720,214.805786 654.617737,215.044342 654.146118,215.337112 C653.729614,215.345871 653.501709,215.223587 652.958618,214.875015 z"/>
  <path fill="#414A56" opacity="1.000000" stroke="none" d=" M655.785767,213.546982 C655.677979,213.834122 655.495178,214.060730 655.060486,214.358612 C654.667175,214.360214 654.450745,214.230057 653.933411,213.869537 C653.720886,213.306900 653.902893,213.038025 654.681396,212.970581 C655.384644,213.254700 655.585205,213.400833 655.785767,213.546982 z"/>
  <path fill="#414A56" opacity="1.000000" stroke="none" d=" M655.645935,211.522980 C655.968994,211.697311 656.010681,211.997025 656.079773,212.749847 C656.107117,213.202957 656.000488,213.425812 655.893127,213.486389 C655.585205,213.400833 655.384644,213.254700 654.904114,212.863312 C654.870850,212.294815 655.117676,211.971603 655.645935,211.522980 z"/>
  <path fill="#515966" opacity="1.000000" stroke="none" d=" M685.067505,218.695496 C684.567871,218.932556 684.104187,218.840958 683.808594,218.359116 C684.352234,218.101517 684.727844,218.234161 685.067505,218.695496 z"/>
  <path fill="#515966" opacity="1.000000" stroke="none" d=" M684.065369,217.696869 C683.564209,217.933838 683.097290,217.844208 682.803528,217.361420 C683.351013,217.102264 683.725281,217.236267 684.065369,217.696869 z"/>
  <path fill="#515966" opacity="1.000000" stroke="none" d=" M686.068237,219.694733 C685.572388,219.931870 685.113220,219.839478 684.814941,219.357758 C685.352234,219.100677 685.728577,219.232925 686.068237,219.694733 z"/>
  <path fill="#515966" opacity="1.000000" stroke="none" d=" M683.060730,216.699356 C682.560974,216.935303 682.090149,216.847244 681.798096,216.363480 C682.347778,216.103653 682.718750,216.239502 683.060730,216.699356 z"/>
  <path fill="#515966" opacity="1.000000" stroke="none" d=" M682.056396,215.701065 C681.559998,215.936462 681.087708,215.849701 680.796143,215.365189 C681.344788,215.104599 681.712646,215.241745 682.056396,215.701065 z"/>
  <path fill="#515966" opacity="1.000000" stroke="none" d=" M681.054077,214.702759 C680.556824,214.937332 680.081177,214.851456 679.791382,214.366440 C680.343384,214.105637 680.709534,214.243973 681.054077,214.702759 z"/>
  <path fill="#515966" opacity="1.000000" stroke="none" d=" M680.050659,213.704865 C679.553955,213.938461 679.075195,213.853973 678.786987,213.368256 C679.341187,213.106934 679.704895,213.246841 680.050659,213.704865 z"/>
  <path fill="#515966" opacity="1.000000" stroke="none" d=" M679.046265,212.706360 C678.553162,212.939285 678.073486,212.855850 677.785706,212.369781 C678.338318,212.108124 678.698914,212.249069 679.046265,212.706360 z"/>
</svg>