<?xml version="1.0" encoding="utf-8"?>
<svg viewBox="0 0 1336 1286" xmlns="http://www.w3.org/2000/svg">
  <path fill="#D1D9DE" opacity="1.000000" stroke="none" d=" M398.919617,684.401001 C401.401520,674.238098 406.489441,665.592041 411.199799,656.864319 C423.281158,634.478882 437.241760,613.255432 452.190613,592.682068 C452.971161,591.607849 453.859253,590.611694 454.860413,589.283447 C457.043640,587.482483 459.124512,588.192932 461.226166,588.779846 C484.464844,595.269348 508.181335,598.423340 532.262451,597.492493 C554.932922,596.616089 577.185974,592.828247 598.957214,586.106323 C639.047058,573.728455 675.181580,553.978882 708.336182,528.500366 C713.605652,524.450867 718.308044,519.667969 724.491455,516.166626 C734.668762,516.091064 744.043152,517.794678 752.626892,522.844543 C779.533325,538.673706 807.497986,552.261597 837.102722,562.301208 C856.557373,568.898743 876.694580,572.750122 896.824524,576.506165 C919.406738,580.719788 942.005737,584.876526 964.793640,587.886414 C966.766357,588.147034 968.753052,588.531433 970.591309,590.273560 C971.246948,591.568115 971.495483,592.552917 971.477051,593.549683 C971.313049,602.376465 972.116943,611.160400 972.574524,619.960205 C972.677795,621.947632 972.641785,623.961487 971.731689,626.288757 C969.872559,628.549377 967.667603,628.460876 965.503784,628.336548 C944.754639,627.144287 924.012085,626.016418 903.326050,623.779968 C875.993164,620.824951 848.934021,616.191833 821.853516,611.628052 C802.969177,608.445618 784.212646,604.641113 765.571899,600.249207 C760.019409,598.940979 759.760681,599.399048 760.206238,605.264038 C761.125977,617.370544 763.051819,629.384766 763.499146,641.990112 C765.142029,648.780823 764.844604,655.321472 765.271912,661.747559 C767.308167,692.373535 768.204468,723.043579 767.558899,753.743774 C767.537903,754.741150 767.393494,755.727844 766.951416,757.124817 C765.398987,759.828918 763.064209,760.197571 760.744507,760.480652 C744.094543,762.512756 727.496277,764.016846 710.609619,762.796509 C691.542358,761.418640 673.099121,757.805237 655.130188,751.461060 C653.102051,750.745056 650.969666,750.223938 649.135010,748.284973 C649.452087,745.079529 651.839294,745.835083 653.593567,745.720825 C658.562683,745.397461 663.560913,745.983765 668.527710,745.199768 C698.550476,740.460754 722.706238,717.818237 729.945618,687.276489 C735.064819,667.207825 732.951233,648.043823 724.526123,629.823669 C712.823120,604.514709 693.153137,589.088501 665.363281,584.312012 C658.133484,583.069458 651.117676,583.632935 643.664062,585.024414 C614.295837,591.010254 595.780273,608.880310 586.485168,636.291077 C577.603516,662.482544 581.587891,687.482727 595.912781,710.963135 C596.690247,712.237549 597.612610,713.453735 597.481445,715.419006 C593.221191,717.807617 591.334717,714.029419 589.067139,712.139099 C579.330811,704.022095 570.885925,694.599182 562.825073,684.850037 C548.102112,667.043457 536.121521,647.512451 526.379028,626.309143 C527.536377,631.172974 528.020691,635.913940 528.766296,640.613281 C529.522461,645.379333 530.420044,650.124146 530.692688,655.305969 C530.117676,657.322571 528.834045,658.419312 527.653809,659.565979 C516.479492,670.422424 506.396362,682.328308 495.180420,693.154053 C488.388916,699.709229 488.591888,699.886414 496.583832,704.626282 C500.861481,707.163208 505.330444,709.354431 509.589813,711.923706 C511.292328,712.950806 513.149597,713.765564 514.069336,716.177917 C515.188416,729.356689 513.473999,742.003174 511.931030,755.084106 C511.600891,755.742065 511.432648,755.983887 510.901672,756.471252 C502.573029,757.225281 494.710876,756.187500 486.893616,754.912781 C473.422150,752.715942 460.482330,748.639709 447.539612,743.180969 C446.494507,742.499939 445.962891,741.885132 445.359375,740.827148 C440.492615,715.286255 425.811890,698.076599 402.845428,687.489441 C401.357239,686.803528 399.640289,686.458862 398.919617,684.401001 z" transform="matrix(0.9999999999999999, 0, 0, 0.9999999999999999, 0, 0)"/>
  <path fill="#C0CBD1" opacity="1.000000" stroke="none" d=" M725.148804,516.715637 C706.899048,531.522766 688.485779,545.570923 668.314636,557.198975 C644.893188,570.700623 620.300293,581.421875 594.343811,588.916321 C576.828857,593.973389 558.956360,596.771851 540.710022,598.208191 C512.735657,600.410217 485.587311,596.981934 458.767365,589.435120 C457.822723,589.169250 456.811676,589.139343 455.427551,588.993652 C460.639374,579.767944 467.828888,571.724976 474.351044,563.183777 C476.057159,560.949463 478.260345,559.045532 479.701752,556.666626 C486.404816,545.603943 497.556641,540.187378 508.098236,534.019714 C513.659241,530.766052 519.419922,527.853699 525.924561,524.336121 C516.886169,522.496887 508.344757,522.404114 500.228943,520.043274 C488.420624,516.608276 477.002838,512.318359 467.000366,504.501282 C468.332642,502.506134 470.194489,502.788971 472.017883,502.890045 C496.541626,504.249054 521.071472,505.375122 545.642761,505.416382 C552.463684,505.427826 559.187866,503.860535 566.464600,504.444092 C582.886719,504.459015 598.722229,502.565094 614.596497,501.020386 C627.908936,499.725037 641.003723,497.798828 653.407837,492.510864 C672.132935,484.528168 686.656555,472.059387 695.708008,453.521301 C699.835571,445.067688 700.890686,436.018311 701.484131,426.894867 C701.849915,421.270782 701.673767,415.598328 701.772888,409.525421 C701.533569,398.748840 701.144592,388.403076 700.728882,377.647705 C701.244629,375.226044 702.430725,373.615692 703.598511,371.984955 C716.308472,354.236450 722.985168,334.513458 722.632751,312.613556 C722.428223,299.903137 719.083923,288.064636 712.773499,276.890442 C699.812195,253.938965 679.539612,239.160461 657.481445,226.237854 C644.058167,218.373901 629.693909,212.578369 615.277039,206.877136 C613.108032,206.019379 610.192322,205.854431 609.805176,202.311859 C614.781189,199.235153 619.924744,200.589783 624.934021,200.834366 C627.716675,200.970215 630.486511,201.520493 633.719849,201.459717 C660.535278,202.339020 686.435669,206.314941 712.074524,212.716827 C741.625427,220.095520 764.762390,236.027740 781.349670,262.059357 C786.743408,271.962189 791.066345,281.908997 794.642578,292.581848 C794.791992,297.760223 796.366821,302.346039 796.839966,307.473816 C797.198608,311.698639 799.097229,314.420685 802.002441,317.043610 C810.380920,324.607880 816.018860,334.153809 819.967529,344.632019 C822.001099,350.028198 824.262085,355.387695 825.363037,361.515015 C826.397034,370.401031 826.477173,378.937164 826.874634,387.874451 C824.809448,394.464355 825.303406,401.212372 822.479370,407.610443 C821.375366,412.515259 819.341919,416.694244 817.838684,421.452942 C813.441956,427.944031 809.718811,434.489838 803.887817,439.393738 C801.601501,441.316528 799.493713,443.504578 795.912720,443.846405 C784.566833,439.496307 777.245361,431.082764 771.807922,421.210083 C761.739136,402.928772 757.946655,383.248657 760.335327,362.399719 C762.111877,346.892151 766.651733,332.504822 776.287964,319.982513 C778.123413,317.597382 780.117126,315.384277 782.338867,313.356415 C783.270142,312.506500 784.992615,311.877472 784.524414,310.356171 C784.012634,308.692993 782.137390,308.745758 780.695435,308.563171 C770.506897,307.273285 761.197083,309.500183 752.847290,315.584961 C744.640381,321.565552 738.891418,329.700989 735.334900,338.849091 C723.707947,368.755463 724.424133,398.144409 741.801392,425.908966 C746.645874,433.649323 753.093323,440.284393 761.640320,444.389679 C771.204163,448.983398 780.883301,448.868896 790.687439,445.330048 C791.780090,444.935699 792.815613,444.363739 794.399780,444.499969 C796.931824,446.724823 795.545227,448.985596 794.818481,451.047211 C791.094116,461.612122 785.070618,470.885651 778.154907,480.054138 C764.674316,497.120178 747.455200,508.219086 727.550049,515.463806 C726.782410,515.743164 725.908203,515.776123 725.148804,516.715637 z" transform="matrix(0.9999999999999999, 0, 0, 0.9999999999999999, 0, 0)"/>
  <path fill="#EA8C0B" opacity="1.000000" stroke="none" d=" M1032.486938,240.461548 C1049.911743,240.178238 1065.896484,235.500687 1081.079468,227.961929 C1086.551758,225.244827 1091.999023,222.336182 1096.889404,217.989380 C1098.807007,215.016037 1101.254639,213.053848 1104.033691,211.485947 C1106.429932,210.134018 1107.795166,210.991943 1108.132568,213.650574 C1108.324097,215.159225 1108.036011,216.632812 1107.745850,218.100525 C1102.041870,246.943054 1097.136597,275.935364 1091.492065,304.789062 C1091.236084,306.097626 1091.014526,307.408356 1089.955322,308.839722 C1088.763794,309.926666 1087.632202,310.455780 1086.501709,310.464447 C1079.719604,310.516693 1076.165039,314.921844 1072.175293,319.696472 C1063.266724,330.357117 1051.030518,335.877472 1037.649902,338.159027 C1017.068665,341.668335 996.901245,338.647552 977.081848,332.604401 C955.326843,325.971069 934.880737,316.452332 915.054260,305.380493 C896.582825,295.065430 879.036560,283.299347 860.837280,271.885986 C860.311462,271.609772 860.107727,271.495941 859.614807,271.204834 C859.147705,270.901428 858.969727,270.775330 858.309753,270.255005 C857.522461,269.609192 857.210144,269.366760 856.643311,268.990051 C856.235962,268.745972 856.074219,268.647766 855.679016,268.391022 C855.143921,268.009918 854.843201,267.786102 854.308228,267.407043 C853.434692,266.843079 852.799805,266.427521 851.890930,265.895203 C850.930481,265.349304 850.185242,265.038269 849.134644,264.607300 C848.650330,264.345978 848.462585,264.223724 848.009521,263.886932 C835.694092,255.508820 822.908813,248.589050 810.218079,241.510834 C808.054871,240.304276 805.746704,239.321548 804.221069,236.726318 C798.119934,208.364258 791.636353,180.482468 783.767151,152.941406 C778.734619,135.328247 773.096252,117.916191 766.100403,100.963470 C765.112976,98.570709 763.500366,96.208603 764.768982,93.053650 C786.975220,100.424316 807.473877,111.079277 827.224426,123.165871 C860.115356,143.293900 890.075317,167.387833 919.387634,192.297134 C939.140320,209.082672 960.479187,223.283707 984.821777,232.401917 C998.407043,237.490646 1012.545166,240.691757 1027.723999,240.354156 C1029.515381,240.571884 1030.837524,240.502457 1032.486938,240.461548 z" transform="matrix(0.9999999999999999, 0, 0, 0.9999999999999999, 0, 0)"/>
  <path fill="#C0CBD1" opacity="1.000000" stroke="none" d=" M603.376831,1143.307007 C604.009888,1135.643433 605.004333,1128.255615 606.003174,1120.438232 C605.020752,1118.085693 605.483887,1116.090576 605.778137,1114.131104 C613.736572,1061.124512 621.861206,1008.143066 629.915649,955.151062 C633.141541,933.927246 636.263489,912.687744 639.760742,891.083374 C641.611206,880.303650 645.307861,870.451050 648.049805,860.341431 C648.894104,857.228333 648.557312,855.961548 644.943298,856.693481 C630.086792,859.702454 615.057922,861.455322 599.937439,862.375305 C596.779358,862.567566 595.773010,864.538696 594.863831,867.001343 C590.195374,879.647278 585.471008,892.274109 581.008057,904.993286 C562.325684,958.236572 544.442017,1011.748962 527.491211,1065.567993 C520.092346,1089.059448 512.300781,1112.430786 505.550262,1136.125488 C504.594299,1139.480957 503.540161,1142.822388 501.906494,1146.362305 C501.502258,1146.879395 501.311340,1147.061035 500.743866,1147.355225 C487.159882,1143.698853 474.643616,1138.408691 463.104980,1130.264648 C466.507782,1117.866211 470.100159,1105.821533 473.628204,1093.757812 C476.087463,1085.348633 478.458588,1076.913696 481.028992,1068.128174 C482.060059,1066.032471 483.792480,1065.912109 485.386414,1065.473022 C516.502441,1056.901611 535.321960,1036.380615 541.274597,1005.080750 C546.717346,976.462402 538.074280,951.916992 515.423584,932.410522 C524.130371,893.605652 533.114746,855.060669 542.214722,816.110229 C544.003052,814.897461 545.600342,815.536011 547.179321,816.010132 C569.756042,822.789307 592.883362,827.086609 616.278259,829.127686 C652.423950,832.281433 688.460266,831.583435 723.809692,821.767334 C730.864502,819.808289 737.603516,816.849548 745.206482,815.466309 C747.794922,818.561340 744.954224,819.344360 743.316833,820.301575 C735.991089,824.584412 728.613281,828.855652 720.703003,831.927368 C715.788574,833.835815 713.446228,836.898804 712.397888,841.994629 C705.894653,873.605042 699.032593,905.140686 692.218140,936.685730 C688.600586,953.431946 685.237671,970.232727 681.411621,987.347351 C680.915588,990.466980 679.496094,992.798218 678.212524,995.619019 C672.279175,1007.589783 669.800598,1019.875610 670.418518,1033.205444 C670.579529,1035.244751 670.862549,1036.867310 670.744751,1038.928223 C667.617188,1049.571655 666.000244,1060.129883 663.751831,1070.541138 C658.862488,1093.181763 653.851318,1115.797852 649.268372,1138.504517 C648.678406,1141.427612 648.264709,1144.444580 646.067261,1147.239624 C640.358215,1149.910767 634.959167,1147.565186 629.603455,1147.398926 C620.885254,1147.128174 612.186218,1146.028198 603.376831,1143.307007 z" transform="matrix(0.9999999999999999, 0, 0, 0.9999999999999999, 0, 0)"/>
  <path fill="#EF9E10" opacity="1.000000" stroke="none" d=" M764.783447,92.510315 C766.074402,99.741577 769.635498,105.848297 772.053894,112.336647 C781.569458,137.866257 788.641968,164.095352 795.036682,190.525345 C798.460632,204.677048 801.594604,218.899033 804.823303,233.097519 C805.041260,234.056122 804.954529,235.084000 805.012207,236.499878 C801.881836,237.943390 799.588989,235.838562 797.164673,234.620880 C775.878845,223.929504 754.089783,214.612289 731.068726,208.169098 C704.283447,200.672394 677.170715,198.716858 649.605103,201.670685 C644.988464,202.165421 640.333008,202.136978 635.326843,202.699951 C626.843262,202.636078 618.752686,201.711823 610.258423,202.583954 C608.611877,204.432739 606.733154,204.499603 604.917908,204.500229 C585.585327,204.506927 566.582581,207.405945 547.648376,210.941391 C545.366638,211.367432 543.050537,211.813950 540.552979,210.164978 C538.683289,197.463135 537.418579,185.045792 535.449890,172.741089 C534.489136,166.736069 535.998108,162.633179 540.285889,158.253311 C563.375488,134.667740 588.387146,113.678940 618.215637,99.059792 C654.156189,81.445175 691.808289,75.746147 731.298157,83.404106 C742.586670,85.593201 753.576172,88.838348 764.783447,92.510315 z" transform="matrix(0.9999999999999999, 0, 0, 0.9999999999999999, 0, 0)"/>
  <path fill="#000101" opacity="1.000000" stroke="none" d=" M568.238525,505.614014 C542.201965,507.427338 516.436523,506.658020 490.677856,505.520599 C483.044159,505.183502 475.426514,504.483368 467.377869,504.056091 C456.562408,498.423828 448.583649,489.963318 441.394043,480.796814 C428.766357,464.697052 422.062286,446.110016 419.424377,425.510254 C421.523132,423.310944 423.631378,424.530609 425.535278,425.277954 C442.231903,431.831909 459.573761,434.274689 477.413361,433.612091 C506.195068,432.543152 532.145508,423.532867 555.297119,406.261688 C571.889709,393.883575 584.923401,378.470764 594.566040,360.339905 C603.487610,343.564911 608.779785,325.557739 609.580627,306.431885 C609.748779,302.414856 610.171448,298.477112 611.421997,294.257935 C613.342407,292.458221 615.357117,292.655792 617.327881,292.999481 C630.590637,295.312347 643.928284,297.378479 656.191162,303.409088 C680.049072,315.141968 695.697083,333.319489 700.183777,360.049316 C701.027771,365.077484 703.066040,370.019196 701.881470,375.683899 C702.348083,387.071320 702.867859,398.065643 703.278931,409.516785 C701.596985,411.675415 699.494019,411.264130 697.548218,411.308990 C663.254822,412.099579 632.915161,423.682800 607.453308,446.435547 C590.804382,461.312988 578.263123,479.582275 570.625610,500.867157 C570.068542,502.419708 569.706787,504.083862 568.238525,505.614014 z" transform="matrix(0.9999999999999999, 0, 0, 0.9999999999999999, 0, 0)"/>
  <path fill="#D1D9DE" opacity="1.000000" stroke="none" d=" M702.116394,375.889526 C700.243530,368.126038 699.160156,360.034821 696.982971,352.249481 C689.499756,325.489746 670.926941,309.476196 645.450378,300.606354 C634.917053,296.939117 623.792847,295.710266 612.478760,293.472656 C607.770142,295.608337 603.499573,293.635468 599.292969,293.242554 C588.519531,292.236328 577.742615,291.762421 566.930237,291.348083 C536.750183,290.191467 507.135864,294.031311 477.792603,300.497681 C457.358154,305.000824 437.328064,310.635956 421.221313,325.167969 C420.350739,325.953430 419.318542,326.516876 417.677460,326.488037 C418.620575,309.209503 422.029205,292.624451 430.315857,277.230621 C443.820190,252.144180 463.649414,234.493134 490.478119,224.700439 C506.573151,218.825607 523.179260,214.768738 539.972595,210.125290 C548.289368,210.147598 555.929138,207.548462 563.783569,206.460419 C578.785706,204.382217 593.809937,202.739883 609.429321,202.706757 C616.642456,206.680466 624.161438,208.817047 631.273193,211.907104 C653.614685,221.614410 674.545593,233.374832 692.732544,249.972992 C705.302551,261.444885 714.722839,274.652161 720.295166,290.611694 C724.827332,303.592255 725.049805,316.962677 722.679260,330.355316 C719.711304,347.123047 713.145203,362.367188 702.116394,375.889526 z" transform="matrix(0.9999999999999999, 0, 0, 0.9999999999999999, 0, 0)"/>
  <path fill="#212121" opacity="1.000000" stroke="none" d=" M417.208252,326.820984 C438.118530,306.748566 464.848450,301.383484 491.523956,296.157867 C529.748840,288.669769 568.222595,287.539032 606.855530,292.730804 C608.340088,292.930298 609.840942,293.008972 611.689941,293.299805 C611.304077,315.196869 607.978027,336.433441 598.302429,356.150085 C589.190979,374.717316 576.805542,390.828674 560.601257,403.892059 C542.947327,418.123962 523.207886,427.860107 500.877380,432.205872 C475.594666,437.126160 450.735352,436.248077 426.442535,427.010742 C424.431000,426.245850 422.321503,425.738495 419.845947,425.089569 C414.853241,392.551605 414.618896,359.934265 417.208252,326.820984 z" transform="matrix(0.9999999999999999, 0, 0, 0.9999999999999999, 0, 0)"/>
  <path fill="#414854" opacity="1.000000" stroke="none" d=" M935.384338,1135.525146 C930.866150,1157.943481 926.331360,1179.927246 921.906128,1201.933105 C920.743896,1207.713135 919.171448,1213.145264 912.632202,1214.852539 C903.426819,1217.256104 896.379272,1209.784790 898.264709,1199.646240 C899.571167,1192.621704 901.133545,1185.645020 902.546875,1178.639893 C905.538208,1163.812988 908.506897,1148.981567 911.491211,1133.737793 C910.037598,1130.140259 911.410095,1127.075562 912.021118,1124.037964 C928.571533,1041.758667 945.319946,959.519348 961.941833,877.254517 C975.727539,809.026794 989.689575,740.834656 1003.273743,672.566284 C1003.924072,669.298096 1004.654663,666.050659 1005.627686,662.429932 C1009.870178,643.357910 1012.987366,624.480896 1017.280029,605.846252 C1018.819092,599.164978 1019.104797,599.051697 1025.998291,599.433594 C1030.625610,599.689941 1035.237305,600.506104 1039.915405,599.769470 C1041.520508,599.516785 1043.430786,599.682312 1044.231567,601.495911 C1044.925171,603.066589 1043.916382,604.474731 1042.901245,605.539062 C1029.104492,620.002197 1027.975342,638.686035 1025.669678,656.984131 C1025.382812,659.260437 1026.077881,661.221313 1027.369019,663.067322 C1028.502686,664.688049 1029.921997,666.165100 1030.194824,668.636597 C1018.078003,728.207031 1006.034485,787.368774 994.014282,846.535339 C974.837585,940.928345 955.676331,1035.324585 936.508179,1129.719238 C936.143982,1131.512939 935.775330,1133.305664 935.384338,1135.525146 z" transform="matrix(0.9999999999999999, 0, 0, 0.9999999999999999, 0, 0)"/>
  <path fill="#D0D8DD" opacity="1.000000" stroke="none" d=" M1030.406494,669.189392 C1022.085388,662.970703 1024.129150,654.586548 1025.337158,646.665833 C1026.660767,637.987427 1028.140015,629.285156 1031.178589,620.977661 C1033.449585,614.769043 1037.567017,609.750916 1041.877808,604.886963 C1042.771729,603.878296 1044.071533,602.875854 1043.271851,601.510559 C1042.638428,600.429321 1041.072510,600.855713 1040.022949,601.115540 C1034.676758,602.439209 1029.379395,601.189697 1024.176514,600.519958 C1020.592285,600.058655 1019.626953,600.935120 1018.977905,604.232666 C1015.226257,623.291260 1011.263062,642.308228 1007.163696,661.671631 C999.493530,664.024048 993.863708,660.309265 988.205811,655.670654 C987.009216,650.211975 987.176697,645.126892 987.938293,640.087280 C988.606384,635.666748 988.219604,631.235474 988.506531,626.354736 C988.293945,615.644592 988.329224,605.397827 988.542480,594.715088 C991.225342,583.518188 996.486023,574.118958 1003.952087,566.042847 C1010.302307,559.173706 1018.337830,558.327026 1027.353149,560.821716 C1035.297485,563.665405 1042.719360,566.700928 1049.587524,571.680420 C1053.581299,574.390564 1057.732788,576.282471 1060.749634,579.684631 C1063.250488,582.504822 1062.743164,586.865051 1064.462402,589.434265 C1065.771484,591.390564 1071.065063,589.683289 1074.122070,591.781311 C1082.232544,597.347656 1084.290161,605.949280 1084.866577,614.846252 C1086.194702,635.341003 1079.627075,653.089233 1064.863525,667.517334 C1058.633423,673.605896 1051.481323,677.890686 1042.176880,675.952820 C1037.649536,675.009949 1033.930054,672.577026 1030.406494,669.189392 z" transform="matrix(0.9999999999999999, 0, 0, 0.9999999999999999, 0, 0)"/>
  <path fill="#414A57" opacity="1.000000" stroke="none" d=" M1049.898682,571.565796 C1042.422729,569.150452 1035.730103,564.710754 1027.801025,562.108887 C1026.118652,559.515930 1026.853882,557.070862 1027.322876,554.656189 C1029.999878,540.872437 1032.817017,527.116455 1035.613525,512.936401 C1035.751953,512.264465 1035.816162,511.997650 1036.001465,511.337677 C1036.399536,510.171722 1036.744751,509.428589 1037.310303,508.339172 C1040.759766,504.401306 1044.783936,501.690674 1048.293335,498.381409 C1052.396484,494.512115 1054.433838,490.042725 1055.395020,484.561951 C1059.328369,462.130341 1063.584106,439.755493 1067.591187,416.917603 C1073.533203,382.522522 1080.222290,348.684204 1086.443848,314.759369 C1086.773682,312.961212 1087.093140,311.133179 1088.710205,309.400757 C1091.514282,296.254578 1094.075562,283.429474 1096.527954,270.583557 C1099.997559,252.408249 1103.396484,234.219391 1106.792847,216.030197 C1107.063232,214.582352 1107.079102,213.086990 1107.256226,211.143372 C1103.284668,212.600388 1101.016479,215.819977 1097.530518,217.759674 C1097.920044,214.812119 1098.274658,211.615219 1099.351807,208.683914 C1101.623535,202.501633 1107.648071,199.488342 1113.776245,201.077682 C1119.699951,202.614014 1123.397949,207.881668 1122.160278,214.446655 C1118.496460,233.878830 1114.515503,253.251785 1110.582031,272.632385 C1095.409302,347.389008 1080.203857,422.138977 1065.016968,496.892761 C1059.987305,521.650208 1054.977051,546.411560 1049.898682,571.565796 z" transform="matrix(0.9999999999999999, 0, 0, 0.9999999999999999, 0, 0)"/>
  <path fill="#4C8B99" opacity="1.000000" stroke="none" d=" M515.108765,932.538574 C517.182007,931.341553 518.219482,932.891479 519.374084,934.012146 C542.107422,956.078125 549.086914,982.602966 540.783386,1012.919312 C534.013123,1037.638062 518.062378,1054.533447 494.398651,1064.244507 C490.362213,1065.901001 486.084747,1066.545532 481.543762,1067.674683 C492.803986,1022.900330 504.241211,977.989685 515.108765,932.538574 z" transform="matrix(0.9999999999999999, 0, 0, 0.9999999999999999, 0, 0)"/>
  <path fill="#4C8B99" opacity="1.000000" stroke="none" d=" M746.360840,816.392700 C735.944275,819.303894 726.092163,823.062683 715.720398,825.248840 C703.273132,827.872498 690.817993,830.027161 678.117432,831.179932 C662.342285,832.611816 646.556763,832.376282 630.834473,831.790771 C614.234131,831.172607 597.707703,828.828552 581.372986,825.503662 C568.445984,822.872375 555.420837,820.652832 542.669128,815.833313 C542.927551,813.055664 543.524658,810.406555 544.157471,807.366150 C543.977356,806.192261 543.733276,805.415894 543.640503,804.185669 C543.661194,800.970764 543.155029,798.110046 544.736084,795.105225 C547.529602,793.311890 549.925842,794.518799 552.228821,795.268921 C571.446655,801.528320 591.168945,805.553101 611.188721,807.891235 C631.168762,810.224854 651.182251,811.083191 671.385193,809.855896 C693.756226,808.496826 715.634949,804.858215 737.347839,799.691284 C743.664246,798.188232 749.836609,796.191956 756.026978,794.255737 C758.392761,793.515808 760.718689,792.438354 763.691528,793.434326 C766.537598,797.804626 765.336060,802.060303 764.275269,806.696411 C760.775696,812.070679 754.891724,812.955811 749.792480,815.804077 C748.995422,816.079224 748.536072,816.213318 747.730469,816.413879 C747.154663,816.502197 746.921265,816.510498 746.360840,816.392700 z" transform="matrix(0.9999999999999999, 0, 0, 0.9999999999999999, 0, 0)"/>
  <path fill="#C0CBD1" opacity="1.000000" stroke="none" d=" M446.730469,742.287292 C460.142487,746.339600 473.034119,751.497925 486.834137,753.404297 C494.308319,754.436646 501.823883,755.169312 509.760132,756.071045 C511.738037,757.987427 511.275452,760.117004 510.889313,762.200378 C509.906891,767.500549 508.990692,772.819641 506.949768,778.271484 C505.458069,780.631409 503.210968,780.905090 501.208557,781.647156 C496.202332,783.502502 491.946838,786.169617 490.135162,791.983032 C478.644440,789.956421 467.293365,788.464661 456.380920,785.002869 C451.329651,783.400391 446.375275,781.492371 441.151733,779.449463 C443.549896,770.429626 445.752197,761.640503 446.060791,752.406006 C446.169830,749.142944 444.817383,745.780823 446.730469,742.287292 z" transform="matrix(0.9999999999999999, 0, 0, 0.9999999999999999, 0, 0)"/>
  <path fill="#4C8B99" opacity="1.000000" stroke="none" d=" M446.898376,741.745972 C447.854095,753.671448 447.401855,765.201111 442.995026,776.258545 C442.633209,777.166504 442.066498,777.992737 441.260742,779.016418 C424.255371,771.516296 409.969482,760.942383 400.423645,744.948303 C393.069611,732.626465 389.434265,719.372559 392.229248,704.479919 C394.295959,702.753418 395.476044,704.357300 396.580688,705.414856 C411.105713,719.321045 427.442566,730.614990 445.714325,739.769531 C446.241852,740.509827 446.505219,741.003845 446.898376,741.745972 z" transform="matrix(0.9999999999999999, 0, 0, 0.9999999999999999, 0, 0)"/>
  <path fill="#66A5B0" opacity="1.000000" stroke="none" d=" M446.024872,739.600830 C436.899963,737.850220 429.600891,732.252502 421.945190,727.402588 C411.431030,720.741760 402.357422,712.239380 392.648071,704.110596 C393.516815,697.261108 395.624878,690.737366 398.699921,684.230225 C406.599701,687.983643 414.447968,691.490845 421.111572,697.052734 C434.416412,708.157654 443.178040,721.926514 446.024872,739.600830 z" transform="matrix(0.9999999999999999, 0, 0, 0.9999999999999999, 0, 0)"/>
  <path fill="#ABB9C0" opacity="1.000000" stroke="none" d=" M489.878845,792.606384 C490.232269,786.257629 493.931580,782.267883 501.052551,780.151062 C502.477173,779.727539 503.934753,779.414978 505.764954,779.006287 C507.810089,777.340271 509.976379,776.817139 512.106506,776.842346 C515.567322,776.883301 518.171631,775.619507 520.464844,772.693359 C523.569702,773.132080 523.236267,775.429749 523.282043,777.280090 C523.368042,780.759155 523.898865,784.150208 524.634583,787.531921 C525.481018,791.422485 527.301453,794.587952 531.378662,796.519226 C531.970581,796.727539 532.204956,796.813965 532.770630,797.069275 C536.516602,800.150513 539.552063,803.648010 544.578003,804.728088 C544.783203,805.514221 544.713989,806.069702 544.418945,806.800049 C535.504700,808.805725 526.825562,810.682556 518.124268,812.450195 C512.941833,813.502930 507.724304,814.224426 502.390594,814.034607 C498.702545,813.903259 496.151154,812.420349 494.490631,809.090698 C491.952606,804.001404 490.516357,798.632874 489.878845,792.606384 z" transform="matrix(0.9999999999999999, 0, 0, 0.9999999999999999, 0, 0)"/>
  <path fill="#4C8B99" opacity="1.000000" stroke="none" d=" M462.804077,1130.023804 C474.727478,1136.381470 486.804230,1142.191284 499.855255,1146.611328 C502.228271,1152.685791 498.921844,1157.428467 496.796722,1162.760010 C495.389038,1163.996826 494.044128,1164.065796 492.745178,1163.668945 C481.069702,1160.101074 469.836945,1155.643433 460.427490,1146.975586 C457.997864,1144.844604 457.849304,1142.811768 459.010223,1140.199585 C460.325653,1137.239746 461.178711,1134.074219 462.286499,1130.625000 C462.340271,1130.251953 462.665344,1130.128540 462.804077,1130.023804 z" transform="matrix(0.9999999999999999, 0, 0, 0.9999999999999999, 0, 0)"/>
  <path fill="#B2C63D" opacity="1.000000" stroke="none" d=" M1032.441406,240.316299 C1031.508545,241.350021 1030.087158,241.013580 1028.436768,240.617798 C1029.486816,240.359482 1030.777222,240.283798 1032.441406,240.316299 z" transform="matrix(0.9999999999999999, 0, 0, 0.9999999999999999, 0, 0)"/>
  <path fill="#D1D9DE" opacity="1.000000" stroke="none" d=" M501.299622,1147.090820 C505.695679,1130.260742 510.761414,1113.953125 515.909851,1097.664673 C530.922913,1050.166260 545.894836,1002.652771 562.058899,955.532532 C572.511658,925.061646 583.538818,894.787842 594.332153,864.434021 C594.920044,862.780701 595.228271,861.031616 597.813171,860.953247 C614.385925,860.451172 630.751343,858.071411 646.993469,854.898926 C650.722778,854.170471 651.169312,854.621826 650.150452,858.342224 C647.310059,868.714844 643.268555,878.763550 641.348389,889.740845 C632.782227,913.884644 623.716064,937.463989 614.891296,961.132385 C600.165894,1000.626038 585.445251,1040.121460 570.800964,1079.645142 C566.691772,1090.735474 562.651367,1101.852905 558.567444,1112.953247 C557.485474,1115.894287 556.798096,1119.060913 554.263184,1121.733032 C550.445007,1131.418457 546.892334,1140.823853 543.190918,1150.554443 C541.975342,1151.705688 540.783752,1152.308472 539.437012,1152.387207 C527.324890,1153.096436 515.343079,1152.494751 503.697021,1148.688965 C502.907379,1148.430908 502.192078,1148.015625 501.299622,1147.090820 z" transform="matrix(0.9999999999999999, 0, 0, 0.9999999999999999, 0, 0)"/>
  <path fill="#C0CBD1" opacity="1.000000" stroke="none" d=" M460.076294,1146.926758 C469.693298,1152.543335 479.216003,1158.229370 489.965485,1161.461426 C491.707062,1161.985107 493.460327,1162.470093 495.596069,1162.965088 C497.738037,1162.085083 499.557281,1162.409546 501.315643,1162.815796 C510.529846,1164.944702 519.848083,1165.864136 529.301880,1165.491211 C531.105835,1165.419922 532.948059,1165.487549 534.795288,1166.958740 C535.036560,1167.719971 535.025391,1168.100464 535.003479,1168.766235 C533.022827,1170.737793 530.616760,1170.340210 528.312439,1170.468384 C515.396912,1171.186646 502.746368,1168.971680 490.075745,1167.009644 C485.099670,1166.239136 480.109070,1166.393066 475.118683,1166.625366 C472.763367,1166.734985 470.503448,1167.384155 468.539612,1168.755127 C465.513977,1170.867554 465.061646,1173.487549 467.276031,1176.434326 C469.003174,1178.732666 471.236023,1180.498413 473.823151,1181.736450 C488.433228,1188.728394 503.842651,1191.251953 519.949829,1190.053711 C525.078918,1189.672241 530.092102,1188.198242 535.639038,1188.744141 C537.172546,1193.783203 533.908936,1198.473755 528.009399,1199.799438 C519.766418,1201.651611 511.371521,1202.851685 502.935944,1202.938477 C485.832275,1203.114746 468.762604,1205.188110 451.710785,1204.715454 C441.214081,1204.424683 430.490021,1204.981079 420.088593,1202.085205 C409.738159,1199.203735 406.520447,1192.367798 411.575378,1182.875122 C415.683960,1175.159424 422.417938,1169.944702 429.244293,1164.922119 C436.216217,1159.792358 443.670441,1155.416626 451.516205,1151.714111 C454.365387,1150.369507 457.081055,1148.741821 460.076294,1146.926758 z" transform="matrix(0.9999999999999999, 0, 0, 0.9999999999999999, 0, 0)"/>
  <path fill="#D1D9DE" opacity="1.000000" stroke="none" d=" M699.036255,1085.420166 C697.393860,1096.847778 694.098328,1107.498047 691.060181,1118.599121 C689.012329,1126.474365 687.014893,1133.973877 684.956299,1141.869019 C684.284058,1143.055298 683.630127,1143.818970 682.625793,1144.093628 C671.097290,1147.247314 659.346436,1148.386597 646.741943,1147.406372 C650.233093,1127.171021 654.416870,1107.480347 658.575684,1087.784302 C661.746704,1072.766479 664.873718,1057.739502 668.064880,1042.726074 C668.300720,1041.616821 668.897461,1040.584351 669.596863,1039.274170 C671.647461,1040.386353 671.646729,1042.523926 672.153076,1044.403320 C676.247986,1059.602539 683.338074,1072.827393 696.685486,1081.982666 C697.791565,1082.741333 698.799377,1083.620483 699.036255,1085.420166 z" transform="matrix(0.9999999999999999, 0, 0, 0.9999999999999999, 0, 0)"/>
  <path fill="#D1D9DE" opacity="1.000000" stroke="none" d=" M678.284668,1160.530151 C692.092163,1169.668945 704.671082,1179.637329 715.833740,1191.331177 C716.408264,1191.932983 717.038208,1192.484375 717.586609,1193.108398 C722.069153,1198.208496 721.893250,1198.373291 715.939880,1201.586670 C705.514465,1207.213745 694.441528,1207.271362 683.466736,1204.780518 C666.055603,1200.829102 650.140320,1193.662231 637.662476,1180.234009 C635.643677,1178.061401 633.628418,1175.639160 634.386780,1172.870483 C635.298584,1169.541138 638.884216,1169.448975 641.837769,1169.000732 C650.251709,1167.723999 658.825195,1167.226685 666.910767,1163.527832 C670.127808,1160.226807 673.879517,1159.664917 678.284668,1160.530151 z" transform="matrix(0.9999999999999999, 0, 0, 0.9999999999999999, 0, 0)"/>
  <path fill="#D1D9DE" opacity="1.000000" stroke="none" d=" M535.995361,1188.517334 C514.345581,1194.186890 493.339386,1192.597778 473.086884,1183.038574 C472.185638,1182.613159 471.136749,1182.306396 470.457794,1181.638428 C467.494659,1178.723022 462.555573,1176.553833 464.239075,1171.313843 C465.829346,1166.364258 470.657379,1165.364624 475.197052,1165.062378 C483.327820,1164.520996 491.392456,1165.323853 499.389191,1166.960815 C510.837219,1169.304077 522.454712,1169.110352 534.524963,1169.038818 C535.327820,1175.388550 535.662964,1181.725708 535.995361,1188.517334 z" transform="matrix(0.9999999999999999, 0, 0, 0.9999999999999999, 0, 0)"/>
  <path fill="#4C8B99" opacity="1.000000" stroke="none" d=" M603.011230,1143.448608 C614.291992,1143.665771 625.354492,1146.354248 636.682251,1146.524414 C639.505066,1146.566772 642.325073,1146.793945 645.603271,1146.900024 C646.060120,1146.864014 645.996338,1146.980469 645.967224,1147.040161 C647.449829,1152.854736 645.064636,1158.028198 643.257385,1163.658691 C630.527832,1164.717163 618.206421,1163.132080 605.865845,1161.703003 C601.635681,1161.213257 600.310303,1159.257690 601.237976,1155.138306 C602.071838,1151.435791 602.435791,1147.627686 603.011230,1143.448608 z" transform="matrix(0.9999999999999999, 0, 0, 0.9999999999999999, 0, 0)"/>
  <path fill="#66A5B0" opacity="1.000000" stroke="none" d=" M535.403320,1167.217896 C522.138184,1167.168945 509.224548,1167.037354 496.336853,1163.130859 C497.257751,1157.857666 499.591492,1153.040649 500.065216,1147.302490 C500.085785,1146.882812 500.580658,1146.861694 500.815125,1146.780273 C514.468384,1150.676025 528.182800,1151.751709 542.568787,1150.880737 C541.497864,1155.016479 539.966248,1159.158203 538.402893,1163.287842 C537.842468,1164.768311 537.761780,1166.607300 535.403320,1167.217896 z" transform="matrix(0.9999999999999999, 0, 0, 0.9999999999999999, 0, 0)"/>
  <path fill="#66A5B0" opacity="1.000000" stroke="none" d=" M643.463989,1164.041016 C643.091370,1158.464111 644.726135,1153.212036 645.902954,1147.485962 C658.804626,1146.536987 671.649048,1145.793091 684.533264,1142.341797 C682.982788,1148.273071 683.117798,1154.926880 678.916931,1160.542236 C675.012756,1161.515747 671.398438,1162.251953 667.394592,1163.078979 C659.323730,1163.736206 651.644104,1164.343262 643.463989,1164.041016 z" transform="matrix(0.9999999999999999, 0, 0, 0.9999999999999999, 0, 0)"/>
  <path fill="#C0CBD1" opacity="1.000000" stroke="none" d=" M765.506897,758.088318 C766.327148,769.841064 765.528198,781.569336 763.947876,793.685791 C757.807007,794.184509 752.491333,797.202087 746.784363,798.729614 C722.280151,805.288574 697.551392,809.974976 672.112122,811.299927 C660.483215,811.905640 648.829651,812.400635 637.303345,811.780457 C611.005798,810.365601 584.949097,806.740112 559.611938,799.087402 C555.005127,797.696045 550.387817,796.339294 545.054199,794.659058 C542.895813,791.617737 542.568298,788.628235 542.513550,785.628357 C542.172852,766.973206 540.054321,748.459229 538.047791,729.494873 C535.461548,707.057983 532.481323,685.120178 529.288818,663.210022 C528.978577,661.080994 528.414307,658.931091 529.739014,656.460815 C528.225891,645.088501 526.494202,634.103760 524.762512,623.119080 C525.069702,623.046509 525.376892,622.973999 525.684082,622.901489 C530.028992,631.075378 534.245239,639.320923 538.745361,647.408447 C548.470093,664.885498 560.299377,680.817322 573.890442,695.512756 C580.214783,702.350952 586.818848,708.810425 594.115112,714.572815 C594.865417,715.165283 595.830322,715.486084 597.072144,715.933105 C600.538879,716.142456 601.400452,718.958191 603.092773,720.788818 C604.301636,722.096375 605.512146,723.391663 607.505615,724.881836 C608.243713,725.459778 608.416809,725.620605 608.824463,726.047607 C618.033936,735.098022 628.496887,741.183472 641.212402,743.911865 C643.934326,744.809875 646.757019,744.211975 648.853760,746.656128 C658.109924,751.955566 668.123047,754.411011 678.050781,756.706482 C694.344360,760.473999 710.997131,762.502258 727.718567,761.831177 C740.209900,761.329773 752.814941,761.017273 765.506897,758.088318 z" transform="matrix(0.9999999999999999, 0, 0, 0.9999999999999999, 0, 0)"/>
  <path fill="#C0CBD1" opacity="1.000000" stroke="none" d=" M971.460266,657.467041 C954.098145,659.490173 937.006226,660.452637 919.380859,659.948242 C914.354797,654.016541 911.149841,647.197327 905.795654,641.801025 C889.775452,625.654785 870.918457,619.295227 848.531311,624.497864 C833.522583,627.985718 821.419373,636.013306 812.003662,648.163940 C811.290405,649.084351 810.566345,650.003479 809.219849,650.808533 C797.223083,649.977783 785.862122,647.036011 774.397522,644.662720 C770.523193,643.860718 766.675354,642.931091 762.415955,642.077759 C761.270508,629.048523 759.886841,616.060608 758.154785,603.114990 C757.455322,597.887329 758.127563,596.823059 763.327759,598.104065 C783.423340,603.054688 803.712646,607.048950 824.106567,610.489685 C842.191406,613.540833 860.300598,616.445007 878.447021,619.144104 C895.143982,621.627563 911.967285,622.747803 928.692627,624.846436 C933.436218,625.441650 938.276978,625.553223 943.057922,625.834351 C951.993164,626.359802 960.988159,625.819519 970.716919,627.324402 C973.231934,630.911194 972.645447,634.458069 972.546265,637.872070 C972.360046,644.278870 973.471741,650.748047 971.460266,657.467041 z" transform="matrix(0.9999999999999999, 0, 0, 0.9999999999999999, 0, 0)"/>
  <path fill="#66A5B0" opacity="1.000000" stroke="none" d=" M649.469849,747.004272 C646.786560,745.424438 643.946838,746.611938 641.322632,745.173767 C629.168762,740.557190 618.440125,734.205505 608.197632,726.277832 C607.920593,726.044800 607.982178,726.007263 607.979248,726.043213 C607.836365,725.929504 607.696350,725.779846 607.293579,725.789551 C602.972717,723.697327 601.109436,719.379761 597.694336,716.112549 C590.497253,705.637207 585.368347,694.557678 582.679688,682.367310 C574.319336,644.460938 591.728699,604.155701 627.420166,588.373596 C632.151306,586.281677 637.039856,584.686768 642.596619,583.980347 C644.369507,585.805725 642.911194,587.001404 641.962341,588.210693 C640.262024,590.377869 638.612061,592.580322 636.760254,595.099609 C635.674622,596.348206 634.601807,597.003296 633.143311,597.765137 C609.101501,607.511414 591.843201,633.781860 591.185608,659.446350 C590.667175,679.675598 595.827209,697.649902 608.998108,713.043884 C619.538513,725.363403 632.886536,732.925903 648.988586,735.640747 C678.349670,740.591125 708.154480,722.091553 718.855896,692.261353 C719.388916,690.894409 720.055481,690.101440 721.254761,689.261658 C724.523376,688.209106 727.153992,686.296265 730.714478,686.774658 C728.053223,703.138367 719.821350,716.406494 708.045410,727.424011 C694.586182,740.016479 678.657898,747.133362 659.916077,747.060425 C656.590088,747.047424 653.264160,747.017578 649.469849,747.004272 z" transform="matrix(0.9999999999999999, 0, 0, 0.9999999999999999, 0, 0)"/>
  <path fill="#78AFBA" opacity="1.000000" stroke="none" d=" M731.293213,686.716309 C728.249634,687.970642 725.471008,688.940491 722.321960,689.938110 C719.956116,687.687195 721.077515,685.216064 721.619202,682.854858 C726.681824,660.787292 722.507202,640.294067 709.529053,622.109192 C693.487244,599.631592 668.100159,588.756958 641.968445,595.183411 C640.209900,595.615845 638.435364,596.258484 636.290161,595.243164 C637.147278,590.763550 641.131226,588.455505 642.972168,584.328979 C657.646729,580.020935 671.719666,582.546021 685.113525,588.623108 C712.979126,601.266357 727.761353,623.818665 733.027466,653.377686 C735.018677,664.554626 733.703247,675.488342 731.293213,686.716309 z" transform="matrix(0.9999999999999999, 0, 0, 0.9999999999999999, 0, 0)"/>
  <path fill="#66A5B0" opacity="1.000000" stroke="none" d=" M969.984070,590.505737 C976.437317,590.981079 982.817322,591.916809 989.600586,592.914307 C990.009460,603.685852 990.015015,614.395691 989.958862,625.573364 C984.023071,628.069275 978.046143,628.907227 971.537720,627.286682 C971.191711,626.976807 970.989380,627.017273 970.885742,627.020874 C971.604370,614.978149 969.230408,603.009094 969.984070,590.505737 z" transform="matrix(0.9999999999999999, 0, 0, 0.9999999999999999, 0, 0)"/>
  <path fill="#66A5B0" opacity="1.000000" stroke="none" d=" M513.192261,715.683960 C517.615112,717.737915 521.990295,720.238953 526.682861,722.874207 C527.597046,724.009888 528.288940,725.026978 528.327759,726.200012 C528.651733,735.981567 528.700317,745.741455 524.886230,755.445190 C520.326416,757.980713 515.987610,758.156311 511.201477,756.255432 C511.610840,742.650757 513.307312,729.444214 513.192261,715.683960 z" transform="matrix(0.9999999999999999, 0, 0, 0.9999999999999999, 0, 0)"/>
  <path fill="#4C8B99" opacity="1.000000" stroke="none" d=" M510.701111,755.969238 C515.025879,755.813965 519.244873,756.608643 523.735840,755.051575 C526.772217,761.303772 524.164795,766.855286 521.311279,772.703247 C519.678772,776.932434 517.213623,778.757629 512.845276,778.133911 C510.961334,777.864929 508.930908,778.622070 506.559937,778.937195 C507.218018,773.556885 508.308441,768.157166 509.334839,762.745422 C509.698181,760.829773 509.905457,758.884521 510.191711,756.528870 C510.199493,756.104919 510.537445,756.026733 510.701111,755.969238 z" transform="matrix(0.9999999999999999, 0, 0, 0.9999999999999999, 0, 0)"/>
  <path fill="#FFFEFE" opacity="1.000000" stroke="none" d=" M1088.586914,309.094482 C1083.833984,337.015900 1078.670898,364.943695 1073.495605,392.869232 C1072.042725,400.709473 1070.553955,408.543091 1068.984375,416.789001 C1061.544556,418.155273 1056.629150,423.313171 1051.081543,427.416992 C1024.285034,447.239258 994.288940,459.104492 961.236511,463.178925 C948.501160,464.748840 935.717651,464.616394 922.545410,463.375793 C893.976013,459.963501 867.695801,450.759308 842.355957,437.417236 C834.708069,433.144226 827.385193,429.069427 820.100037,424.927673 C818.956604,424.277557 817.761658,423.699005 817.019531,422.108215 C817.203857,416.951752 820.072144,412.964142 821.073120,407.992004 C824.966797,404.897858 829.791931,405.969513 834.279602,404.181580 C862.627869,395.325348 880.506470,376.624756 886.856323,348.197144 C893.280212,319.438141 884.229248,295.011780 862.594849,275.167267 C861.144836,273.837158 859.230896,272.915070 858.822266,270.367798 C861.396240,269.328339 862.759705,271.399170 864.413269,272.490234 C887.178284,287.511230 910.228882,302.050446 934.683044,314.214722 C957.730591,325.679260 981.688416,334.734863 1007.376953,337.660370 C1029.215332,340.147369 1050.328857,337.795715 1067.851196,322.345154 C1069.339111,321.033142 1071.117310,319.721832 1071.916992,318.014893 C1075.214600,310.977325 1081.190796,309.211365 1088.586914,309.094482 z" transform="matrix(0.9999999999999999, 0, 0, 0.9999999999999999, 0, 0)"/>
  <path fill="#212121" opacity="1.000000" stroke="none" d=" M568.432312,505.974670 C570.586060,495.127594 575.588318,485.432190 581.330139,476.072540 C597.884827,449.087097 621.107239,430.059143 650.602051,418.838593 C661.587219,414.659546 673.014648,411.952789 684.838074,410.834381 C690.643616,410.285248 696.412903,410.080597 702.692017,409.982239 C703.283020,429.909241 702.845215,449.631042 689.693359,466.496613 C675.259705,485.006012 656.239624,495.838531 633.481262,499.875916 C612.155273,503.659180 590.521301,505.043274 568.432312,505.974670 z" transform="matrix(0.9999999999999999, 0, 0, 0.9999999999999999, 0, 0)"/>
  <path fill="#D1D9DE" opacity="1.000000" stroke="none" d=" M795.583984,444.916748 C790.466858,446.485474 785.974792,448.685516 780.661499,449.170685 C761.746826,450.897736 749.997437,440.190521 740.348511,426.361145 C730.686401,412.512787 726.427612,396.368286 726.264221,379.812622 C726.047791,357.876373 730.767090,337.025879 745.798645,319.662872 C754.026123,310.159332 773.369080,303.984772 784.462646,307.970795 C786.952393,308.865356 789.360046,309.794037 785.904175,312.426453 C775.708618,320.192688 769.830322,330.788483 765.966614,342.685089 C757.441040,368.936310 759.717285,394.424561 772.063660,418.946075 C777.333801,429.413239 785.180237,437.699280 796.234741,443.116211 C796.550415,443.865356 796.266541,444.354889 795.583984,444.916748 z" transform="matrix(0.9999999999999999, 0, 0, 0.9999999999999999, 0, 0)"/>
  <path fill="#B2C63D" opacity="1.000000" stroke="none" d=" M795.271484,445.447449 C795.636414,444.605255 795.939575,444.147186 796.418823,443.472412 C804.356140,438.841309 809.667480,432.112305 814.197998,424.641174 C814.787720,423.668579 815.056458,422.433350 816.621887,421.850342 C825.146118,426.290833 833.340149,430.841553 841.754517,435.653076 C843.464783,437.481598 843.517517,439.550659 843.876465,441.494965 C848.926147,468.846741 854.017761,496.188202 862.269287,522.815918 C862.714233,524.252014 863.112732,525.705933 862.294006,527.542603 C854.250427,525.305969 847.388672,520.887817 840.408569,516.811157 C819.502563,504.600922 798.891235,491.886444 777.352539,480.075256 C781.745056,472.533356 787.272949,465.623962 790.837524,457.482849 C792.507080,453.669769 794.150635,449.865387 795.271484,445.447449 z" transform="matrix(0.9999999999999999, 0, 0, 0.9999999999999999, 0, 0)"/>
  <path fill="#FEFDFC" opacity="1.000000" stroke="none" d=" M635.411133,202.849274 C653.269592,198.798447 671.806946,198.092834 690.447571,199.536179 C731.426941,202.709213 768.388062,218.214508 804.665222,236.881607 C817.832214,244.387299 830.662354,251.832520 843.453857,259.343536 C845.570740,260.586578 847.518677,262.117340 849.285889,263.824951 C846.786682,265.380463 844.803223,264.130951 842.941162,263.268982 C832.815430,258.581726 822.015320,257.754700 810.697388,257.434814 C802.563049,257.931458 794.993286,259.163849 787.791992,262.174286 C785.985901,262.929291 784.185364,263.785675 781.755493,263.499207 C777.488525,260.111206 775.336426,255.505264 772.252869,251.623352 C755.556763,230.604385 733.428162,218.941544 707.672241,213.016541 C688.565552,208.621170 669.384399,205.062561 649.778748,203.792862 C645.153442,203.493317 640.515137,203.090103 635.411133,202.849274 z" transform="matrix(0.9999999999999999, 0, 0, 0.9999999999999999, 0, 0)"/>
  <path fill="#47505D" opacity="1.000000" stroke="none" d=" M781.343750,263.694885 C790.269409,259.506622 799.437988,256.735382 809.624146,256.373230 C811.231628,257.638428 811.164612,259.046448 810.451782,260.882568 C806.977356,262.743256 806.403381,265.189423 807.023315,268.584839 C808.810547,278.373962 810.262085,288.224518 812.009827,298.021820 C812.820068,302.563873 813.032471,307.123169 813.267456,310.893738 C813.251404,306.093475 812.557922,300.390259 815.262268,294.822296 C819.617432,295.643646 818.009644,299.682495 819.730225,302.368652 C821.170044,306.014404 818.481384,309.319092 820.139526,312.913239 C821.925781,315.620239 822.552185,318.172363 822.856934,321.092590 C823.609253,328.300629 824.644775,335.521759 827.195312,342.379639 C827.882202,344.226532 827.445618,345.961304 827.261597,348.103516 C827.028442,349.320496 826.694763,350.156708 826.738220,351.369934 C826.830811,351.886749 826.881348,352.091797 827.023438,352.602112 C827.608398,355.030670 828.947998,356.838196 829.388550,359.316864 C829.281982,360.084595 829.077515,360.467926 829.072388,360.924286 C829.515137,361.255829 829.645996,361.451630 829.895508,361.990234 C830.250122,364.131195 830.370056,365.899963 828.399231,367.341064 C824.622742,366.636597 825.179626,363.459015 824.148560,360.786926 C819.245056,343.462097 813.067566,327.288849 798.742432,315.754028 C796.378174,313.850250 796.120972,311.271667 795.839355,308.190430 C797.998657,307.279633 798.989624,308.970581 800.241333,310.336212 C798.135742,304.777679 795.179016,299.586212 793.798828,293.445892 C790.279175,283.139252 786.139465,273.436676 781.343750,263.694885 z" transform="matrix(0.9999999999999999, 0, 0, 0.9999999999999999, 0, 0)"/>
  <path fill="#FAFAFB" opacity="1.000000" stroke="none" d=" M824.024780,360.902283 C825.119934,362.492126 826.207520,364.572052 827.571228,366.853912 C828.530823,367.534027 829.304321,367.973053 829.661072,368.739258 C833.739075,377.498016 837.739197,386.303741 841.316101,395.268799 C843.400208,400.492188 838.172180,400.384766 834.970825,402.026917 C827.616394,403.888428 826.182434,402.921143 825.497375,396.082825 C825.299866,394.111633 824.790100,392.144501 825.638489,389.762878 C825.175354,380.028381 824.596252,370.710358 824.024780,360.902283 z" transform="matrix(0.9999999999999999, 0, 0, 0.9999999999999999, 0, 0)"/>
  <path fill="#47505D" opacity="1.000000" stroke="none" d=" M825.546448,389.613525 C826.098328,391.601227 826.415222,393.860596 826.791138,396.110107 C827.868958,402.559723 827.878418,402.558136 834.595093,400.986328 C835.964600,401.944611 836.004578,403.041656 835.242920,404.578339 C830.860413,406.966553 826.290405,406.882629 821.508667,407.638367 C824.355225,402.125366 823.302185,395.634216 825.546448,389.613525 z" transform="matrix(0.9999999999999999, 0, 0, 0.9999999999999999, 0, 0)"/>
  <path fill="#F8F8F8" opacity="1.000000" stroke="none" d=" M793.583008,293.350586 C796.960327,299.936096 800.095093,306.774963 803.229858,313.613831 C802.937073,313.839844 802.644226,314.065826 802.351379,314.291840 C800.401367,312.130493 798.451355,309.969116 796.124207,307.797821 C794.944885,303.059906 794.142700,298.331940 793.583008,293.350586 z" transform="matrix(0.9999999999999999, 0, 0, 0.9999999999999999, 0, 0)"/>
  <path fill="#323943" opacity="1.000000" stroke="none" d=" M835.368774,404.951019 C834.984497,403.882294 834.984375,402.831360 834.990723,401.386322 C841.452026,398.001953 841.412720,398.019623 838.432068,391.389954 C834.902222,383.538849 831.448975,375.653320 827.905029,367.419281 C829.724365,365.618744 828.628479,363.506195 829.073181,361.321869 C831.470520,361.000732 831.858398,363.063080 832.533875,364.634430 C836.138123,373.019135 840.206482,381.192749 843.805847,389.579773 C844.540588,391.291840 844.961548,394.005280 847.571838,393.441162 C850.303955,392.850800 852.899414,391.322205 854.380005,388.810822 C855.290344,387.266602 853.667542,386.089752 852.757751,384.962585 C845.359070,375.796295 837.811218,366.752136 830.323730,357.658722 C828.947571,355.987457 827.727783,354.220428 826.260132,352.195099 C826.031128,351.932220 826.006470,351.994995 826.040039,351.998566 C825.643250,351.603119 825.480591,351.114838 825.814941,350.200195 C826.342041,340.626648 822.371338,332.120972 821.440308,323.080353 C821.140137,320.165558 821.997375,316.880981 819.241699,314.204071 C818.019958,309.645294 820.232544,305.915405 821.563416,302.115570 C825.247131,291.597961 829.343079,281.226166 833.197815,270.767548 C834.931458,266.063843 834.644348,265.383423 830.513916,264.192963 C825.882263,262.858032 824.522156,263.582489 823.898132,268.566833 C822.824707,277.140137 822.211182,285.766235 821.407043,294.370209 C821.143250,297.192413 821.095947,300.030731 819.171875,302.749939 C816.987061,300.809418 817.365845,297.927094 816.181580,295.215027 C813.744629,292.176208 814.380615,288.931793 814.770874,285.888000 C815.382690,281.116241 815.664124,276.317322 816.259827,271.544495 C817.215637,263.885437 817.081299,263.868683 810.155029,260.891846 C810.025574,259.361511 810.032349,258.231476 810.042175,256.762329 C823.563904,255.256195 836.174438,258.516235 848.650879,264.199890 C849.027161,264.134827 849.028870,264.057983 848.990479,264.059387 C849.797729,264.795593 850.945618,264.305450 852.206665,264.928406 C852.214050,266.670593 853.417236,266.631958 854.652344,266.652649 C855.069580,266.883484 855.288574,267.255280 855.785522,267.834473 C855.999878,268.080017 855.994751,268.009399 855.959961,268.016052 C856.401794,268.417542 857.001282,268.506073 857.782715,268.886139 C857.999390,269.091248 857.992737,269.010132 857.952393,269.015259 C858.183777,269.216309 858.429443,269.440796 858.811523,269.884338 C858.973999,270.074921 858.971008,269.994965 858.931152,269.993958 C864.289673,275.734741 870.449890,280.703339 875.142151,287.174988 C907.170593,331.349152 884.263916,390.556244 835.368774,404.951019 z" transform="matrix(0.9999999999999999, 0, 0, 0.9999999999999999, 0, 0)"/>
  <path fill="#FEFDFC" opacity="1.000000" stroke="none" d=" M852.210571,264.817963 C851.383850,267.035522 850.416260,264.997070 849.150024,264.487427 C850.194153,262.631653 850.896790,264.370880 852.210571,264.817963 z" transform="matrix(0.9999999999999999, 0, 0, 0.9999999999999999, 0, 0)"/>
  <path fill="#FFFEFE" opacity="1.000000" stroke="none" d=" M857.949280,268.727570 C857.197021,269.957092 856.694092,269.050873 856.005493,268.395325 C856.690979,267.512909 857.296326,267.931030 857.949280,268.727570 z" transform="matrix(0.9999999999999999, 0, 0, 0.9999999999999999, 0, 0)"/>
  <path fill="#FFFEFE" opacity="1.000000" stroke="none" d=" M859.101562,269.732483 C858.537231,269.952301 858.100525,269.829681 857.787903,269.363708 C858.351074,269.143585 858.790039,269.266815 859.101562,269.732483 z" transform="matrix(0.9999999999999999, 0, 0, 0.9999999999999999, 0, 0)"/>
  <path fill="#FFFEFE" opacity="1.000000" stroke="none" d=" M856.040649,267.715210 C855.468201,267.812042 854.936584,267.544067 854.655396,266.877319 C855.297729,266.769165 855.689575,267.059784 856.040649,267.715210 z" transform="matrix(0.9999999999999999, 0, 0, 0.9999999999999999, 0, 0)"/>
  <path fill="#D1D9DE" opacity="1.000000" stroke="none" d=" M762.617310,808.049927 C762.947205,818.565308 760.635681,828.954285 758.593567,839.277100 C751.055176,877.384521 742.585999,915.296509 733.020813,952.955078 C732.654846,954.396240 732.354980,955.854248 731.964600,957.707214 C726.820496,960.175598 721.252136,960.235779 716.081665,962.111755 C703.297058,966.750305 692.477722,973.950745 684.477478,985.100037 C683.511169,986.446655 682.580933,987.836487 680.511719,988.405884 C682.589417,976.287964 684.928589,964.130127 687.515137,952.025085 C695.593994,914.216003 703.861938,876.446838 711.753479,838.598999 C712.534424,834.853455 714.269348,833.051575 717.340881,831.866821 C726.673584,828.266907 735.224854,823.122192 744.017944,818.456482 C744.715515,818.086304 745.261169,817.429626 745.955688,816.586365 C746.033936,816.266663 746.416870,816.046570 746.630554,815.990723 C747.035828,815.811951 747.227356,815.688904 747.705566,815.380249 C752.759888,812.859009 757.527466,810.523438 762.617310,808.049927 z" transform="matrix(0.9999999999999999, 0, 0, 0.9999999999999999, 0, 0)"/>
  <path fill="#66A5B0" opacity="1.000000" stroke="none" d=" M680.081787,988.735657 C685.218079,982.140259 690.012390,975.642090 696.778442,970.897400 C707.128723,963.639343 718.173218,958.443848 731.476807,958.054199 C726.265076,980.974915 720.732056,1003.866821 714.952942,1026.696411 C709.987061,1046.312988 704.740112,1065.858521 699.312988,1085.611816 C692.707275,1080.284668 685.996643,1075.331665 681.254578,1068.098511 C675.529236,1059.365479 671.765625,1050.045532 669.925476,1039.434570 C669.608826,1037.561523 669.350342,1036.090820 669.140137,1034.245361 C670.951782,1023.729858 673.077942,1013.664124 675.303284,1003.615479 C675.878723,1001.016968 676.921448,998.541443 677.166382,995.486084 C678.090332,993.078003 679.058472,991.063843 680.081787,988.735657 z" transform="matrix(0.9999999999999999, 0, 0, 0.9999999999999999, 0, 0)"/>
  <path fill="#4C8B99" opacity="1.000000" stroke="none" d=" M676.950317,995.399780 C679.418640,998.164185 677.153992,1001.179138 676.663330,1004.028076 C675.054321,1013.370483 672.848938,1022.610779 670.824036,1031.879639 C670.695007,1032.470337 670.151062,1032.970581 669.494263,1033.691650 C668.172607,1020.444336 670.691589,1007.721008 676.950317,995.399780 z" transform="matrix(0.9999999999999999, 0, 0, 0.9999999999999999, 0, 0)"/>
  <path fill="#4C8B99" opacity="1.000000" stroke="none" d=" M971.129089,627.443970 C977.164795,627.378784 983.007568,625.354309 989.446045,626.031128 C989.559692,635.676331 989.222168,645.311401 988.846558,655.402222 C983.207642,656.522583 977.606689,657.187317 971.583679,657.847778 C971.129822,647.866028 971.098145,637.888550 971.129089,627.443970 z" transform="matrix(0.9999999999999999, 0, 0, 0.9999999999999999, 0, 0)"/>
  <path fill="#A3BA30" opacity="1.000000" stroke="none" d=" M921.698853,462.409668 C932.619690,462.367096 943.202026,463.317902 953.899902,462.441345 C992.002136,459.319489 1025.942261,445.951660 1055.709717,422.030273 C1059.410889,419.056122 1062.807007,415.958588 1068.465332,417.210693 C1066.097046,432.952972 1063.307983,448.707794 1060.516724,464.462280 C1059.335815,471.127411 1057.797119,477.753418 1057.067261,484.467438 C1056.339478,491.162445 1053.259155,496.254913 1048.329956,500.476196 C1045.057007,503.279053 1041.720825,506.008087 1038.156982,509.001099 C1037.624268,509.595276 1037.452759,510.002808 1037.224365,510.751343 C1037.062744,511.048218 1037.117310,510.996552 1037.143921,511.023071 C1035.522217,509.775848 1034.841919,511.558563 1033.926270,512.191406 C998.289429,536.821167 958.860168,546.386963 915.875305,542.260010 C908.744019,541.575439 901.768921,540.206421 894.363770,538.808716 C892.500732,536.903809 893.460571,535.176880 894.264465,533.593323 C905.205933,512.042175 912.754578,489.222473 919.582092,466.130310 C919.959167,464.854858 920.313660,463.567078 921.698853,462.409668 z" transform="matrix(0.9999999999999999, 0, 0, 0.9999999999999999, 0, 0)"/>
  <path fill="#FAFAFB" opacity="1.000000" stroke="none" d=" M1037.365723,511.032959 C1036.193848,510.379150 1037.014404,510.000763 1037.612061,509.383179 C1037.823486,509.827240 1037.746216,510.422485 1037.365723,511.032959 z" transform="matrix(0.9999999999999999, 0, 0, 0.9999999999999999, 0, 0)"/>
  <path fill="#C0CBD1" opacity="1.000000" stroke="none" d=" M544.903809,804.510132 C539.357300,805.836731 536.387085,802.108459 533.131470,798.320435 C536.420227,795.983765 540.238342,795.116333 544.473267,794.645386 C544.823669,794.834473 544.905579,794.911377 544.946594,794.949707 C544.976807,798.012573 544.966003,801.037109 544.903809,804.510132 z" transform="matrix(0.9999999999999999, 0, 0, 0.9999999999999999, 0, 0)"/>
  <path fill="#C0CBD1" opacity="1.000000" stroke="none" d=" M747.738037,815.187256 C747.836426,815.483948 747.608948,815.696594 747.077026,815.883789 C747.057495,815.683289 747.270630,815.431580 747.738037,815.187256 z" transform="matrix(0.9999999999999999, 0, 0, 0.9999999999999999, 0, 0)"/>
  <path fill="#D1D9DE" opacity="1.000000" stroke="none" d=" M544.879517,794.418091 C541.213928,796.110718 537.880920,798.347961 533.391113,798.014526 C532.976685,798.022156 532.503601,797.984375 532.266724,797.970825 C527.866333,793.731567 527.239014,788.118347 526.777893,782.757080 C525.284241,765.391235 529.131592,748.805908 535.047302,732.611389 C535.502136,731.366333 536.103333,730.169617 537.606201,729.160156 C538.190125,728.999084 538.374084,729.005310 538.834717,729.029297 C541.181152,735.702209 541.152649,742.681580 541.829224,749.496460 C543.297791,764.288574 543.949646,779.161743 544.879517,794.418091 z" transform="matrix(0.9999999999999999, 0, 0, 0.9999999999999999, 0, 0)"/>
  <path fill="#C0CBD1" opacity="1.000000" stroke="none" d=" M537.799805,728.721130 C531.673645,745.006287 527.573364,761.443115 527.941650,778.839539 C528.078125,785.283630 529.844849,791.252380 531.975464,797.585205 C524.197632,796.577515 523.222290,789.225708 522.025635,780.470154 C521.713379,778.185059 522.426392,775.819275 521.278564,773.272644 C521.884644,767.256409 524.202881,761.787415 524.154053,755.438904 C526.944336,744.816528 527.030518,734.380615 527.035889,723.474487 C530.531250,724.822083 534.062317,726.635803 537.799805,728.721130 z" transform="matrix(0.9999999999999999, 0, 0, 0.9999999999999999, 0, 0)"/>
  <path fill="#4C8B99" opacity="1.000000" stroke="none" d=" M809.311707,651.170471 C816.207581,638.628113 827.077759,630.424255 840.334717,625.614014 C863.762512,617.113159 885.070068,621.228088 903.698364,637.888916 C910.318359,643.809692 915.463501,650.934937 918.893066,659.566833 C882.230957,660.487793 845.865356,657.122131 809.311707,651.170471 z" transform="matrix(0.9999999999999999, 0, 0, 0.9999999999999999, 0, 0)"/>
  <path fill="#4C8B99" opacity="1.000000" stroke="none" d=" M607.923523,726.395508 C615.110596,729.016541 620.969238,734.279907 627.946716,737.643005 C632.252136,739.718201 636.380371,742.160767 640.788696,744.712952 C628.092285,742.307373 617.175476,736.038269 607.923523,726.395508 z" transform="matrix(0.9999999999999999, 0, 0, 0.9999999999999999, 0, 0)"/>
  <path fill="#4C8B99" opacity="1.000000" stroke="none" d=" M607.259521,726.037109 C607.237000,725.637085 607.428589,725.270996 607.909424,725.904663 C607.976318,726.079102 607.488220,726.125305 607.259521,726.037109 z" transform="matrix(0.9999999999999999, 0, 0, 0.9999999999999999, 0, 0)"/>
  <path fill="#97B026" opacity="1.000000" stroke="none" d=" M921.591187,462.024536 C915.062500,487.263336 906.781616,511.877167 894.941040,535.175354 C894.499329,536.044495 894.303711,537.038818 893.982239,538.331787 C883.125610,536.395386 872.709351,532.800842 862.304504,528.102478 C858.577148,514.733032 854.700439,501.689362 851.780945,488.434906 C848.013428,471.330292 843.966003,454.253204 841.979248,436.356689 C857.643494,443.669373 873.587585,450.721741 890.448181,455.562622 C900.546936,458.462036 910.842896,460.299042 921.591187,462.024536 z" transform="matrix(0.9999999999999999, 0, 0, 0.9999999999999999, 0, 0)"/>
  <path fill="#91CAD2" opacity="1.000000" stroke="none" d=" M635.710571,595.109009 C642.983337,593.876282 649.750671,591.619324 657.023987,591.930298 C673.768311,592.646179 688.192505,598.409424 700.523743,609.902954 C718.348938,626.517273 725.778137,647.183838 724.875916,671.073425 C724.647583,677.119629 722.977905,683.111389 721.960999,689.546997 C721.384155,690.469849 720.816833,690.973877 720.125977,691.738953 C717.270325,694.145996 713.935425,694.630188 710.691711,695.309021 C689.190247,699.808472 669.101379,696.001465 651.206970,683.482483 C621.322693,662.575378 614.685669,625.878235 632.722656,597.287476 C633.802734,596.397766 634.618042,595.818848 635.710571,595.109009 z" transform="matrix(0.9999999999999999, 0, 0, 0.9999999999999999, 0, 0)"/>
  <path fill="#83C3CC" opacity="1.000000" stroke="none" d=" M632.612305,596.983948 C633.309814,599.932739 630.980713,601.766907 629.989197,604.162415 C621.560425,624.526917 621.476868,644.619934 633.822937,663.429993 C646.165833,682.235291 664.036255,692.278137 686.434143,695.191345 C697.796753,696.669250 708.367188,694.010559 719.592957,692.000977 C717.001709,703.081238 710.604736,712.135498 702.481934,719.898682 C690.482971,731.366516 675.870789,737.810913 659.353577,737.818359 C630.913269,737.831116 606.323608,721.116150 595.463318,693.381592 C585.381592,667.635559 587.569519,642.495911 603.814941,619.426392 C611.019531,609.195312 620.366760,601.433289 632.612305,596.983948 z" transform="matrix(0.9999999999999999, 0, 0, 0.9999999999999999, 0, 0)"/>
  <path fill="#F8F8F8" opacity="1.000000" stroke="none" d=" M803.659729,304.348755 C798.288025,292.533417 793.170532,281.018066 787.836731,269.603821 C786.546448,266.842590 786.727844,265.734589 789.875488,264.701355 C800.294250,261.281342 800.198730,261.148376 801.901978,271.730865 C803.799194,283.518799 805.819580,295.286865 807.726440,307.073303 C807.976807,308.621246 808.532593,310.218109 807.518066,312.745789 C806.096497,309.635406 804.965515,307.160645 803.659729,304.348755 z" transform="matrix(0.9999999999999999, 0, 0, 0.9999999999999999, 0, 0)"/>
  <path fill="#FAFAFB" opacity="1.000000" stroke="none" d=" M809.589111,260.634216 C818.573853,261.146973 818.642883,261.152374 817.957092,269.914001 C817.326416,277.972229 816.525269,286.017120 815.848022,294.523743 C815.108582,301.007629 814.320374,307.035706 813.532104,313.063751 C813.379150,313.102173 813.226196,313.140594 813.073242,313.178986 C811.425964,303.562836 809.766113,293.948792 808.136108,284.329681 C807.107788,278.261475 806.234131,272.164612 805.078125,266.121368 C804.403381,262.593719 804.794006,260.270508 809.589111,260.634216 z" transform="matrix(0.9999999999999999, 0, 0, 0.9999999999999999, 0, 0)"/>
  <path fill="#F8F8F8" opacity="1.000000" stroke="none" d=" M818.909119,303.395813 C820.194580,290.269653 821.664551,277.572357 822.776917,264.843750 C823.043640,261.791504 824.067078,261.526794 826.681702,261.865692 C837.330383,263.245880 837.505554,263.431122 833.886902,273.171997 C828.926697,286.524078 823.973267,299.878693 818.996338,313.611877 C816.845703,310.601440 819.220032,307.205627 818.909119,303.395813 z" transform="matrix(0.9999999999999999, 0, 0, 0.9999999999999999, 0, 0)"/>
  <path fill="#F8F8F8" opacity="1.000000" stroke="none" d=" M825.892578,352.288544 C827.388000,350.987091 827.657166,352.416504 828.148987,353.011230 C837.248840,364.015808 846.262146,375.092468 855.421509,386.047028 C857.191772,388.164215 857.293396,389.263916 854.860046,390.980499 C845.919983,397.287231 845.971863,397.384888 841.520569,387.628571 C837.531860,378.886078 833.575867,370.128723 829.348267,361.141022 C829.091125,360.904144 829.049866,360.955231 829.082397,360.956970 C828.977417,360.835785 828.839844,360.712860 828.758911,360.319092 C827.794983,357.580444 826.774536,355.112640 825.892578,352.288544 z" transform="matrix(0.9999999999999999, 0, 0, 0.9999999999999999, 0, 0)"/>
  <path fill="#F8F8F8" opacity="1.000000" stroke="none" d=" M808.310303,314.267029 C808.301880,313.781982 808.400818,313.509277 808.499756,313.236511 C808.584534,313.370209 808.759521,313.522522 808.736572,313.633972 C808.676392,313.925323 808.529724,314.198792 808.310303,314.267029 z" transform="matrix(0.9999999999999999, 0, 0, 0.9999999999999999, 0, 0)"/>
  <path fill="#F8F8F8" opacity="1.000000" stroke="none" d=" M825.659058,349.847504 C826.266113,350.384094 826.487183,350.905304 826.390869,351.714355 C824.628113,351.713593 824.615662,350.896393 825.659058,349.847504 z" transform="matrix(0.9999999999999999, 0, 0, 0.9999999999999999, 0, 0)"/>
  <path fill="#F8F8F8" opacity="1.000000" stroke="none" d=" M803.666687,315.684509 C803.421082,315.673401 803.368835,315.469696 803.316528,315.265991 C803.497681,315.341278 803.678833,315.416595 803.666687,315.684509 z" transform="matrix(0.9999999999999999, 0, 0, 0.9999999999999999, 0, 0)"/>
  <path fill="#323943" opacity="1.000000" stroke="none" d=" M828.679688,360.167603 C828.815491,360.048218 829.060425,360.472076 829.087646,360.715393 C828.924622,360.734802 828.734314,360.510895 828.679688,360.167603 z" transform="matrix(0.9999999999999999, 0, 0, 0.9999999999999999, 0, 0)"/>
  <path fill="#F8F8F8" opacity="1.000000" stroke="none" d=" M838.703003,332.460022 C836.470215,332.179169 834.663147,331.973694 831.407715,331.603516 C849.299744,328.604828 865.701416,325.320709 882.260193,323.369720 C888.091492,322.682648 884.424194,329.119049 885.511047,332.114899 C886.100342,333.739105 886.807922,337.383514 882.277466,336.890564 C867.906677,335.326904 853.513306,333.971375 838.703003,332.460022 z" transform="matrix(0.9999999999999999, 0, 0, 0.9999999999999999, 0, 0)"/>
  <path fill="#F8F8F8" opacity="1.000000" stroke="none" d=" M829.805298,346.867798 C843.011536,355.937195 855.900269,365.009613 868.766235,374.114105 C869.636658,374.730042 871.062683,375.407898 869.960510,376.812988 C867.604370,379.816620 865.163269,382.799805 862.030701,385.017761 C860.112793,386.375671 859.466614,384.162018 858.651123,383.174896 C849.021606,371.517609 839.459656,359.804504 829.726318,347.812195 C829.542542,347.304993 829.512390,347.091675 829.805298,346.867798 z" transform="matrix(0.9999999999999999, 0, 0, 0.9999999999999999, 0, 0)"/>
  <path fill="#F8F8F8" opacity="1.000000" stroke="none" d=" M846.368530,337.674225 C858.562317,338.834930 870.298096,339.994720 882.048035,340.985596 C884.512207,341.193390 884.927246,341.863464 884.498230,344.342712 C882.517761,355.787109 882.618408,355.814270 872.215942,351.884430 C861.051697,347.666840 849.890198,343.442078 838.741394,339.183960 C837.454590,338.692505 835.811646,338.716400 834.859558,336.606567 C838.776062,336.963165 842.345825,337.288177 846.368530,337.674225 z" transform="matrix(0.9999999999999999, 0, 0, 0.9999999999999999, 0, 0)"/>
  <path fill="#F8F8F8" opacity="1.000000" stroke="none" d=" M876.321167,306.310364 C878.890137,304.814362 880.240540,304.843506 881.354919,307.798798 C885.323059,318.322113 885.303711,318.386902 874.311951,320.077576 C863.170105,321.791351 852.068298,323.764557 840.944763,325.598572 C839.013062,325.917084 837.060486,326.108856 834.726196,325.262817 C848.477844,319.001495 862.229553,312.740204 876.321167,306.310364 z" transform="matrix(0.9999999999999999, 0, 0, 0.9999999999999999, 0, 0)"/>
  <path fill="#F8F8F8" opacity="1.000000" stroke="none" d=" M859.688354,362.314423 C850.687500,355.864075 841.973633,349.629761 833.082397,343.268524 C835.243958,342.734161 836.916321,343.189606 838.666199,343.853241 C851.362122,348.668152 864.070679,353.452026 876.825134,358.109009 C879.330750,359.023865 879.998047,359.931702 878.841187,362.597595 C874.388062,372.859589 874.485962,372.900604 865.651794,366.571106 C863.763794,365.218414 861.867737,363.877075 859.688354,362.314423 z" transform="matrix(0.9999999999999999, 0, 0, 0.9999999999999999, 0, 0)"/>
  <path fill="#FAFAFB" opacity="1.000000" stroke="none" d=" M863.422913,280.619690 C868.235107,283.988586 866.977234,286.183533 863.112427,289.190125 C852.876892,297.152679 843.011536,305.590790 832.983826,313.821350 C831.742249,314.840424 830.713562,316.370056 828.395691,315.832214 C837.526062,303.066833 846.625549,290.433838 855.598389,277.711456 C857.095215,275.589142 858.214355,275.738220 859.808289,277.381622 C860.847046,278.452576 862.035583,279.378357 863.422913,280.619690 z" transform="matrix(0.9999999999999999, 0, 0, 0.9999999999999999, 0, 0)"/>
  <path fill="#F8F8F8" opacity="1.000000" stroke="none" d=" M852.872070,272.365295 C852.236633,276.339630 849.417969,278.831421 847.357239,281.766602 C839.937439,292.335144 832.375488,302.803925 824.829346,313.363525 C823.383362,312.167114 824.184387,311.295074 824.491821,310.476318 C829.562744,296.969330 834.817749,283.527924 839.630493,269.929901 C840.956116,266.184448 842.451965,266.263062 845.226624,267.964813 C847.629517,269.438568 850.152710,270.716125 852.872070,272.365295 z" transform="matrix(0.9999999999999999, 0, 0, 0.9999999999999999, 0, 0)"/>
  <path fill="#F8F8F8" opacity="1.000000" stroke="none" d=" M833.375000,319.787659 C844.680542,309.927643 856.145874,300.579712 867.435120,291.023743 C870.002502,288.850555 871.398560,289.030701 872.968262,291.873352 C874.565735,294.766266 876.419983,297.517456 878.368164,300.664032 C863.732544,307.270325 849.394775,313.742157 834.704956,320.292603 C834.059021,320.322266 833.765015,320.273315 833.375000,319.787659 z" transform="matrix(0.9999999999999999, 0, 0, 0.9999999999999999, 0, 0)"/>
  <path fill="#F8F8F8" opacity="1.000000" stroke="none" d=" M834.089600,320.110718 C833.420410,321.313202 832.369324,321.104950 831.296509,320.686218 C831.773132,320.351440 832.249756,320.016663 833.002686,319.516418 C833.461487,319.517426 833.643921,319.683838 834.089600,320.110718 z" transform="matrix(0.9999999999999999, 0, 0, 0.9999999999999999, 0, 0)"/>
  <path fill="#F8F8F8" opacity="1.000000" stroke="none" d=" M829.711304,347.352814 C829.123718,347.144775 828.674744,346.771240 828.225769,346.397705 C828.779785,346.362915 829.333801,346.328125 830.008057,346.575256 C830.128235,346.857178 829.849915,347.187317 829.711304,347.352814 z" transform="matrix(0.9999999999999999, 0, 0, 0.9999999999999999, 0, 0)"/>
  <path fill="#F8F8F8" opacity="1.000000" stroke="none" d=" M833.098328,326.108521 C834.084290,326.629913 833.470520,326.698608 833.088745,326.809998 C832.965881,326.845856 832.802734,326.743774 832.658020,326.704803 C832.710815,326.518036 832.763611,326.331268 833.098328,326.108521 z" transform="matrix(0.9999999999999999, 0, 0, 0.9999999999999999, 0, 0)"/>
  <path fill="#F8F8F8" opacity="1.000000" stroke="none" d=" M832.989624,336.273499 C833.752808,336.436371 833.762146,336.619904 833.239319,336.790283 C833.099854,336.835754 832.921692,336.812042 832.773743,336.772980 C832.241150,336.632263 832.237000,336.453308 832.989624,336.273499 z" transform="matrix(0.9999999999999999, 0, 0, 0.9999999999999999, 0, 0)"/>
  <path fill="#F8F8F8" opacity="1.000000" stroke="none" d=" M823.292542,314.723938 C823.300171,314.419434 823.513000,314.348572 823.725830,314.277710 C823.649841,314.504333 823.573792,314.730957 823.292542,314.723938 z" transform="matrix(0.9999999999999999, 0, 0, 0.9999999999999999, 0, 0)"/>
</svg>