<svg xmlns="http://www.w3.org/2000/svg" width="1280" height="800" viewBox="0 0 1280 800" version="1.1"><path d="M 694.538 131.348 L 692.695 132.696 692.300 145.098 L 691.905 157.500 693.703 160.980 C 694.691 162.894, 697.075 165.518, 699 166.810 L 702.500 169.160 706.320 168.557 C 710.687 167.868, 714.496 165.656, 715.564 163.190 C 715.966 162.261, 716.567 156.550, 716.898 150.500 L 717.500 139.500 720.086 139.199 C 721.508 139.034, 723.181 139.513, 723.804 140.264 L 724.937 141.630 725.219 154.565 L 725.500 167.500 727.805 167.827 C 729.073 168.006, 730.760 167.614, 731.555 166.954 L 733 165.755 733 152.525 L 733 139.296 730.739 135.940 C 728.326 132.359, 725.805 131.259, 719.650 131.100 L 715.800 131 712.400 134.400 L 709 137.800 709 147.329 L 709 156.857 707.429 158.429 C 705.557 160.300, 702.861 160.461, 701.200 158.800 L 700 157.600 700 145 L 700 132.400 698.800 131.200 C 697.278 129.678, 696.799 129.695, 694.538 131.348 M 697.771 199.745 C 696.270 200.676, 694.358 203.148, 693.521 205.239 L 692 209.040 692.117 215.270 C 692.181 218.697, 692.519 224.425, 692.867 228 L 693.500 234.500 696.500 234.500 L 699.500 234.500 700.127 224 C 700.473 218.225, 700.810 212.068, 700.877 210.317 L 701 207.135 703.118 206.463 L 705.235 205.791 707.292 207.847 L 709.349 209.904 709.925 217.747 L 710.501 225.590 712.305 228.343 C 713.297 229.857, 715.547 231.972, 717.304 233.044 L 720.500 234.993 725.179 234.996 L 729.857 235 731.429 233.429 L 733 231.857 733 215.907 L 733 199.957 730.473 198.806 L 727.946 197.654 726.906 198.694 L 725.866 199.734 725.282 212.867 L 724.698 226 722.384 226 L 720.070 226 719.056 224.105 C 718.499 223.063, 717.767 219.575, 717.431 216.355 C 716.509 207.516, 715.211 204.319, 711.199 201.012 L 707.544 198 704.022 198.027 C 702.085 198.041, 699.272 198.815, 697.771 199.745 M 701.355 264.992 C 700.175 265.468, 697.925 267.542, 696.355 269.601 L 693.500 273.344 693.500 283.422 L 693.500 293.500 695.509 296.919 C 696.613 298.799, 699.065 301.202, 700.956 302.259 L 704.394 304.180 713.626 303.840 L 722.858 303.500 725.679 301.410 C 727.231 300.261, 729.165 298.011, 729.979 296.410 L 731.457 293.500 731.824 284.860 L 732.191 276.220 730.137 271.576 L 728.083 266.932 724.573 265.466 L 721.064 264 712.282 264.063 C 707.452 264.098, 702.535 264.516, 701.355 264.992 M 703.200 273.200 L 702 274.400 702 283.643 L 702 292.887 704.223 294.443 L 706.445 296 713.600 296 L 720.755 296 722.122 294.353 L 723.490 292.705 723.776 284.215 L 724.061 275.725 722.376 273.863 L 720.690 272 712.545 272 L 704.400 272 703.200 273.200 M 698.307 333.679 C 696.552 334.575, 694.626 336.489, 694.028 337.933 L 692.941 340.557 693.220 354.529 L 693.500 368.500 695.865 368.835 C 697.166 369.019, 698.661 368.739, 699.186 368.214 C 699.711 367.689, 700.291 361.828, 700.474 355.191 C 700.657 348.553, 701.101 342.645, 701.462 342.061 C 701.823 341.478, 703.191 341, 704.502 341 L 706.887 341 708.443 343.223 L 710 345.445 710.022 350.973 L 710.044 356.500 711.964 360.729 L 713.884 364.959 717.192 366.976 L 720.500 368.993 725.550 368.996 C 728.327 368.998, 731.140 368.460, 731.800 367.800 L 733 366.600 732.985 351.050 C 732.976 342.498, 732.639 334.982, 732.235 334.350 C 731.512 333.218, 729.616 332.649, 727.343 332.882 L 726.186 333 725.465 347 L 724.744 361 723.027 361 C 722.083 361, 720.565 360.177, 719.655 359.171 L 718 357.343 718 351.531 L 718 345.719 715.803 341.319 L 713.605 336.919 710.438 334.962 C 708.696 333.885, 705.972 332.789, 704.385 332.527 L 701.500 332.050 698.307 333.679 M 641.250 349.718 L 640 350.167 640 353.461 C 640 355.273, 640.650 357.294, 641.444 357.954 C 642.238 358.613, 643.063 360.805, 643.276 362.826 C 643.489 364.847, 643.739 362.814, 643.832 358.309 C 644 350.142, 643.617 348.869, 641.250 349.718" stroke="none" fill="#595959" fill-rule="evenodd"/><path d="M 293.169 111.101 C 279.758 114.191, 266.396 120.239, 253.025 129.269 C 247.352 133.101, 246.922 133.549, 238.338 144.560 L 231.274 153.620 226.698 165.060 C 220.655 180.167, 220.072 182.935, 219.337 200.051 L 218.712 214.602 219.928 222.917 C 220.596 227.491, 221.742 232.643, 222.474 234.367 C 223.205 236.090, 225.711 241.882, 228.042 247.237 L 232.280 256.974 240.701 266.951 L 249.123 276.929 255.940 281.888 C 268.830 291.263, 278.307 295.476, 295.438 299.449 C 311.942 303.277, 334.381 299.932, 351.901 291.032 C 359.089 287.381, 364.151 283.662, 372.277 276.060 L 378.819 269.940 385.324 260.220 C 388.902 254.874, 393.493 247.125, 395.526 243 L 399.223 235.500 401.095 225.500 L 402.967 215.500 402.984 202.588 L 403 189.676 401.404 184.088 C 395.701 164.120, 389.087 151.680, 377.553 139.228 C 371.350 132.531, 358.295 122.211, 351.895 118.946 C 347.305 116.605, 335.382 112.857, 325.357 110.605 L 318.214 109 309.857 109.090 C 305.261 109.140, 297.751 110.045, 293.169 111.101 M 189.480 111.545 C 174.910 114.202, 162.069 119.467, 148.069 128.524 C 123.813 144.215, 111.001 166.572, 108.401 197.744 L 107.742 205.641 108.994 214.570 C 114.555 254.261, 138.494 282.170, 178.490 295.590 C 196.930 301.777, 212.961 301.348, 236.101 294.051 C 246.136 290.886, 251 287.996, 251 285.200 C 251 284.289, 247.640 280.159, 243.533 276.022 C 239.426 271.885, 234.104 265.575, 231.706 262 L 227.347 255.500 223.923 255.631 C 222.040 255.703, 217.350 256.298, 213.500 256.954 L 206.500 258.147 199.460 257.551 L 192.420 256.955 184.698 254.074 C 165.584 246.943, 155.203 234.873, 151.521 215.500 C 148.383 198.991, 150.447 188.466, 159.889 172.827 C 163.882 166.214, 174.512 158.687, 184.932 155.094 L 191.363 152.877 199.432 152.325 L 207.500 151.772 216.750 153.386 C 221.838 154.274, 226.418 155, 226.927 155 C 227.436 155, 229.333 152.414, 231.141 149.253 C 232.950 146.092, 237.933 139.856, 242.215 135.396 L 250 127.287 250 124.766 C 250 121.458, 249.077 120.792, 238.660 116.593 C 223.345 110.418, 205.625 108.600, 189.480 111.545 M 413.299 113.918 C 411.538 115.015, 409.288 117.394, 408.299 119.206 L 406.500 122.500 406 178 C 405.725 208.525, 405.767 244.300, 406.093 257.500 L 406.685 281.500 407.912 285.865 C 409.406 291.179, 412.477 294.419, 417.622 296.110 L 421.500 297.384 450.341 297.749 L 479.182 298.114 490.006 296.043 C 495.959 294.904, 504.356 292.822, 508.665 291.415 C 516.525 288.851, 527 283.521, 527 282.087 C 527 281.666, 528.013 280.847, 529.250 280.268 C 532.684 278.661, 545.650 266.304, 550.460 260.052 C 557.656 250.700, 564.819 233.924, 567.135 221 C 568.603 212.807, 568.642 193.233, 567.205 186 C 566.109 180.488, 562.642 169.949, 559.489 162.551 C 556.377 155.246, 550.795 147.612, 542.684 139.565 C 530.047 127.031, 517.071 119.264, 501.500 114.916 L 493.500 112.682 455 112.304 L 416.500 111.925 413.299 113.918 M 679.374 114.418 L 677.249 115.939 677.149 250.812 L 677.049 385.685 678.450 387.593 L 679.851 389.500 712.176 389.200 L 744.500 388.900 746.250 386.839 L 748 384.778 748 251.080 L 748 117.382 746.582 115.441 L 745.163 113.500 713.332 113.199 L 681.500 112.898 679.374 114.418 M 589.500 115.032 C 555.400 115.394, 526.712 116.033, 525.750 116.452 C 523.285 117.525, 523.555 118.508, 527.045 121.174 C 534.436 126.820, 548.841 140.283, 552.500 144.963 C 554.700 147.778, 557.550 150.772, 558.833 151.618 L 561.167 153.155 609.171 153.328 L 657.176 153.500 659.088 151.139 L 661 148.778 660.976 136.139 C 660.941 117.699, 659.705 113.811, 654 114.202 C 652.625 114.296, 623.600 114.669, 589.500 115.032 M 694.538 131.348 L 692.695 132.696 692.300 145.098 L 691.905 157.500 693.703 160.980 C 694.691 162.894, 697.075 165.518, 699 166.810 L 702.500 169.160 706.320 168.557 C 710.687 167.868, 714.496 165.656, 715.564 163.190 C 715.966 162.261, 716.567 156.550, 716.898 150.500 L 717.500 139.500 720.086 139.199 C 721.508 139.034, 723.181 139.513, 723.804 140.264 L 724.937 141.630 725.219 154.565 L 725.500 167.500 727.805 167.827 C 729.073 168.006, 730.760 167.614, 731.555 166.954 L 733 165.755 733 152.525 L 733 139.296 730.739 135.940 C 728.326 132.359, 725.805 131.259, 719.650 131.100 L 715.800 131 712.400 134.400 L 709 137.800 709 147.329 L 709 156.857 707.429 158.429 C 705.557 160.300, 702.861 160.461, 701.200 158.800 L 700 157.600 700 145 L 700 132.400 698.800 131.200 C 697.278 129.678, 696.799 129.695, 694.538 131.348 M 296.251 153.486 C 287.857 155.841, 282.946 158.844, 275.960 165.897 L 269.420 172.500 265.460 180.500 L 261.500 188.500 261.519 204.500 L 261.538 220.500 265.618 229.063 L 269.698 237.627 275.599 243.318 L 281.500 249.009 289.500 253.255 L 297.500 257.500 311 257.500 L 324.500 257.500 332.052 253.720 L 339.604 249.939 345.822 243.778 L 352.040 237.618 354.600 232.385 C 358.240 224.945, 360.963 213.609, 360.983 205.812 C 361.040 183.508, 348.118 162.289, 329.999 154.935 L 324.500 152.703 313 152.358 L 301.500 152.014 296.251 153.486 M 450.650 156.174 C 450.308 157.453, 450.021 179.777, 450.014 205.781 L 450 253.063 451.750 253.781 C 452.712 254.177, 461.375 254.440, 471 254.368 L 488.500 254.235 494.500 251.976 C 502.343 249.023, 505.126 247.079, 513.312 238.833 L 520.123 231.970 522.726 226.235 L 525.329 220.500 525.366 205.500 L 525.403 190.500 523.198 185 C 521.985 181.975, 518.827 176.575, 516.180 173 L 511.367 166.500 505.007 162.236 C 501.509 159.891, 496.364 157.222, 493.573 156.304 L 488.500 154.636 469.887 154.242 L 451.273 153.848 450.650 156.174 M 607.361 184.749 L 574.223 185.027 573.108 186.370 L 571.993 187.714 571.746 204.607 L 571.500 221.500 578.500 222.335 C 582.350 222.794, 601.635 222.956, 621.355 222.694 L 657.210 222.219 658.855 220.564 L 660.500 218.909 660.260 202.705 L 660.021 186.500 658.319 185.250 L 656.618 184 648.559 184.236 C 644.126 184.366, 625.588 184.597, 607.361 184.749 M 697.771 199.745 C 696.270 200.676, 694.358 203.148, 693.521 205.239 L 692 209.040 692.117 215.270 C 692.181 218.697, 692.519 224.425, 692.867 228 L 693.500 234.500 696.500 234.500 L 699.500 234.500 700.127 224 C 700.473 218.225, 700.810 212.068, 700.877 210.317 L 701 207.135 703.118 206.463 L 705.235 205.791 707.292 207.847 L 709.349 209.904 709.925 217.747 L 710.501 225.590 712.305 228.343 C 713.297 229.857, 715.547 231.972, 717.304 233.044 L 720.500 234.993 725.179 234.996 L 729.857 235 731.429 233.429 L 733 231.857 733 215.907 L 733 199.957 730.473 198.806 L 727.946 197.654 726.906 198.694 L 725.866 199.734 725.282 212.867 L 724.698 226 722.384 226 L 720.070 226 719.056 224.105 C 718.499 223.063, 717.767 219.575, 717.431 216.355 C 716.509 207.516, 715.211 204.319, 711.199 201.012 L 707.544 198 704.022 198.027 C 702.085 198.041, 699.272 198.815, 697.771 199.745 M 559.314 255.731 C 557.562 256.704, 553.824 260.425, 551.009 264 C 544.958 271.683, 536.527 279.679, 530.903 283.070 C 528.686 284.406, 525.888 286.258, 524.686 287.185 L 522.500 288.871 524.172 290.572 L 525.844 292.272 590.978 292.212 L 656.111 292.152 657.556 290.954 L 659 289.755 659 274.069 L 659 258.382 657.581 256.441 L 656.162 254.500 609.331 254.231 L 562.500 253.961 559.314 255.731 M 701.355 264.992 C 700.175 265.468, 697.925 267.542, 696.355 269.601 L 693.500 273.344 693.500 283.422 L 693.500 293.500 695.509 296.919 C 696.613 298.799, 699.065 301.202, 700.956 302.259 L 704.394 304.180 713.626 303.840 L 722.858 303.500 725.679 301.410 C 727.231 300.261, 729.165 298.011, 729.979 296.410 L 731.457 293.500 731.824 284.860 L 732.191 276.220 730.137 271.576 L 728.083 266.932 724.573 265.466 L 721.064 264 712.282 264.063 C 707.452 264.098, 702.535 264.516, 701.355 264.992 M 703.200 273.200 L 702 274.400 702 283.643 L 702 292.887 704.223 294.443 L 706.445 296 713.600 296 L 720.755 296 722.122 294.353 L 723.490 292.705 723.776 284.215 L 724.061 275.725 722.376 273.863 L 720.690 272 712.545 272 L 704.400 272 703.200 273.200 M 144.879 315.995 C 139.313 317.410, 134.508 320.659, 131.442 325.083 L 128.656 329.104 128.205 334.547 L 127.753 339.990 129.038 343.245 C 131.836 350.330, 136.015 353.075, 151.633 358.089 C 163.522 361.906, 165.861 364.073, 162.723 368.364 C 162.021 369.324, 159.658 370.524, 157.473 371.030 L 153.500 371.950 147.722 370.926 C 144.544 370.363, 140.319 368.799, 138.333 367.451 C 136.346 366.103, 133.920 365, 132.942 365 L 131.163 365 129.082 368.368 C 126.540 372.480, 126.416 376.176, 128.750 378.231 C 129.713 379.079, 132.975 381.048, 136 382.609 L 141.500 385.445 152 385.473 L 162.500 385.500 169 381.949 L 175.500 378.398 177.899 373.449 C 180.822 367.420, 181.091 361.748, 178.706 356.458 C 176.471 351.501, 172.482 348.741, 163.500 345.937 C 159.650 344.735, 154.253 342.958, 151.506 341.989 L 146.512 340.228 144.549 337.598 L 142.586 334.969 144.746 332.810 L 146.905 330.651 154.770 330.735 L 162.635 330.820 166.439 332.410 C 168.532 333.285, 170.871 334, 171.637 334 C 173.703 334, 176.992 327.983, 176.996 324.195 L 177 320.889 171.750 318.493 L 166.500 316.097 157.500 315.586 C 152.550 315.305, 146.871 315.489, 144.879 315.995 M 305.940 316.342 L 303.500 317.558 303.236 349.765 L 302.972 381.972 305.103 384.103 L 307.234 386.234 311.704 385.730 C 314.162 385.453, 316.690 384.710, 317.321 384.079 L 318.469 382.931 319.094 367.439 C 319.438 358.918, 320.029 351.637, 320.408 351.259 C 321.751 349.916, 324.628 352.782, 335.270 366.061 C 341.194 373.452, 347.327 380.787, 348.899 382.359 L 351.757 385.218 356.168 385.715 L 360.579 386.213 361.735 384.819 L 362.892 383.425 363.152 350.449 C 363.294 332.313, 363.067 316.917, 362.646 316.237 L 361.882 315 356.191 315.015 C 353.061 315.024, 349.825 315.457, 349 315.977 L 347.500 316.924 347.186 334.462 L 346.871 352 345.563 352 C 343.817 352, 338.020 345.565, 329.349 334 C 325.431 328.775, 320.488 322.628, 318.363 320.339 L 314.500 316.179 311.440 315.653 C 309.757 315.363, 307.282 315.673, 305.940 316.342 M 422 316.363 C 414.200 318.716, 410.625 320.725, 406.316 325.177 C 401.751 329.894, 397.847 336.995, 396 343.945 L 394.818 348.389 395.496 353.945 C 395.870 357, 397.491 362.276, 399.099 365.668 L 402.024 371.836 407.070 376.373 C 409.845 378.868, 414.561 382.106, 417.550 383.568 L 422.985 386.227 433.243 385.786 L 443.500 385.344 449 382.816 C 452.025 381.426, 455.400 379.275, 456.500 378.035 L 458.500 375.782 458.500 362.543 L 458.500 349.305 457.128 347.652 L 455.755 346 451.378 346 L 447 346 445 348 L 443 350 443 358.066 C 443 362.502, 442.534 367.002, 441.965 368.066 L 440.930 370 432.359 370 L 423.788 370 420.018 367.014 L 416.247 364.028 413.624 358.487 C 410.341 351.554, 410.329 348.294, 413.561 341.463 L 416.122 336.049 419.311 333.775 L 422.500 331.500 431.158 331.154 L 439.816 330.808 444.246 333.404 C 446.682 334.832, 449.834 336, 451.249 336 L 453.822 336 456.411 332.923 C 457.835 331.231, 459 328.999, 459 327.964 C 459 325.284, 454.401 321.255, 448 318.327 L 442.500 315.812 434.500 315.409 L 426.500 315.006 422 316.363 M 589.323 315.797 C 588.125 315.975, 586.604 316.773, 585.942 317.570 L 584.739 319.020 584.811 350.260 C 584.851 367.442, 584.910 381.990, 584.942 382.589 C 585.099 385.542, 594.214 387.027, 597.488 384.632 L 599.359 383.265 599.953 370.882 C 600.827 352.689, 602.129 351.832, 609.402 364.659 C 612.099 369.414, 615.136 374.136, 616.152 375.152 L 618 377 621.449 377 L 624.898 377 627.299 373.750 C 628.619 371.962, 631.102 367.995, 632.818 364.934 C 634.533 361.872, 636.851 358.540, 637.968 357.529 L 640 355.690 640 352.952 L 640 350.214 641.402 349.676 C 643.693 348.797, 644.008 349.932, 643.832 358.417 C 643.739 362.863, 643.489 364.847, 643.276 362.826 C 643.063 360.805, 642.249 358.622, 641.468 357.973 L 640.047 356.794 640.570 365.147 C 640.858 369.741, 641.330 375.445, 641.619 377.822 L 642.144 382.144 644.072 384.072 L 646 386 650.429 386 L 654.857 386 656.306 384.551 L 657.755 383.102 658.430 374.801 C 658.801 370.235, 658.853 356.001, 658.544 343.169 L 657.984 319.838 656.957 317.919 C 656.392 316.864, 654.933 315.950, 653.715 315.889 C 645.768 315.492, 643.333 317.520, 636.774 330 C 630.358 342.208, 624.720 351.150, 622.645 352.409 L 620.847 353.500 618.140 350.298 C 616.652 348.536, 614.033 344.486, 612.320 341.298 C 610.607 338.109, 606.734 331.225, 603.714 326 L 598.222 316.500 594.861 315.987 C 593.012 315.704, 590.520 315.619, 589.323 315.797 M 232.748 317.750 C 231.889 318.712, 229.292 323.550, 226.976 328.500 C 217.007 349.811, 210 365.075, 210 365.484 C 210 365.726, 208.391 369.313, 206.425 373.455 C 204.459 377.597, 203 381.761, 203.182 382.707 L 203.514 384.429 206.566 385.304 L 209.618 386.180 213.567 385.116 L 217.517 384.053 219.208 380.777 C 220.138 378.974, 222.062 374.665, 223.483 371.199 C 224.905 367.733, 227.547 361.658, 229.354 357.699 C 231.161 353.740, 233.478 348.475, 234.503 346 C 235.529 343.525, 236.692 341.116, 237.088 340.646 L 237.807 339.793 239.476 340.727 C 241.094 341.632, 242.482 344.637, 252.530 369 C 255.139 375.325, 258.331 381.609, 259.624 382.964 L 261.974 385.429 267.473 385.429 L 272.971 385.429 274.184 384.216 L 275.396 383.004 273.533 377.752 C 272.507 374.863, 268.658 366.200, 264.977 358.500 C 261.297 350.800, 257.933 343.375, 257.501 342 C 256.666 339.340, 250.903 326.505, 248.296 321.500 C 246 317.091, 244.148 316, 238.964 316 L 234.310 316 232.748 317.750 M 513.574 318.514 C 512.293 319.897, 510.969 322.406, 510.632 324.091 C 510.295 325.775, 507.765 331.757, 505.010 337.385 C 502.254 343.013, 500 347.960, 500 348.378 C 500 348.796, 497.031 355.295, 493.401 362.819 C 489.772 370.344, 486.565 378.171, 486.274 380.214 L 485.746 383.927 488.346 385.112 L 490.945 386.296 495.222 385.398 L 499.500 384.500 501.712 380 C 506.355 370.555, 511.325 359.211, 514.060 351.815 C 519.170 337.995, 520.544 337.200, 524.547 345.750 C 526.027 348.913, 528.936 355.100, 531.011 359.500 C 533.085 363.900, 535.470 369.546, 536.310 372.046 C 537.150 374.546, 538.624 378.241, 539.585 380.256 L 541.332 383.920 544.315 384.960 C 547.687 386.136, 551.390 386.270, 554.855 385.342 L 557.210 384.712 556.616 381.002 C 555.994 377.112, 553.653 371.448, 546.489 356.500 C 544.116 351.550, 540.092 342.380, 537.547 336.122 C 529.584 316.546, 529.205 316.080, 521.202 316.032 L 515.905 316 513.574 318.514 M 698.307 333.679 C 696.552 334.575, 694.626 336.489, 694.028 337.933 L 692.941 340.557 693.220 354.529 L 693.500 368.500 695.865 368.835 C 697.166 369.019, 698.661 368.739, 699.186 368.214 C 699.711 367.689, 700.291 361.828, 700.474 355.191 C 700.657 348.553, 701.101 342.645, 701.462 342.061 C 701.823 341.478, 703.191 341, 704.502 341 L 706.887 341 708.443 343.223 L 710 345.445 710.022 350.973 L 710.044 356.500 711.964 360.729 L 713.884 364.959 717.192 366.976 L 720.500 368.993 725.550 368.996 C 728.327 368.998, 731.140 368.460, 731.800 367.800 L 733 366.600 732.985 351.050 C 732.976 342.498, 732.639 334.982, 732.235 334.350 C 731.512 333.218, 729.616 332.649, 727.343 332.882 L 726.186 333 725.465 347 L 724.744 361 723.027 361 C 722.083 361, 720.565 360.177, 719.655 359.171 L 718 357.343 718 351.531 L 718 345.719 715.803 341.319 L 713.605 336.919 710.438 334.962 C 708.696 333.885, 705.972 332.789, 704.385 332.527 L 701.500 332.050 698.307 333.679" stroke="none" fill="#f9f9f9" fill-rule="evenodd"/></svg>