<svg id="Layer_1" data-name="Layer 1" xmlns="http://www.w3.org/2000/svg" viewBox="0 0 261.59 261.59"><defs><style>.cls-1{fill:#fff;}.cls-2{fill:#ebebeb;}.cls-3{fill:#dfdfdf;}.cls-4{fill:#b8b8b8;opacity:0.2;}</style></defs><circle class="cls-1" cx="180.18" cy="180" r="130.79" transform="translate(-123.89 130.92) rotate(-45)"/><circle class="cls-2" cx="187.05" cy="251.03" r="24.17" transform="translate(-166.92 129.51) rotate(-39.95)"/><path class="cls-3" d="M164.73,253.28a24.15,24.15,0,0,1,41.88-16.41,24.15,24.15,0,1,0-37.26,30.58A24,24,0,0,1,164.73,253.28Z" transform="translate(-49.38 -49.21)"/><circle class="cls-2" cx="103.63" cy="156.71" r="33.34" transform="translate(-108.73 200.96) rotate(-86.36)"/><path class="cls-3" d="M72.84,159.81a33.3,33.3,0,0,1,57.76-22.64,33.31,33.31,0,1,0-51.39,42.18A33.14,33.14,0,0,1,72.84,159.81Z" transform="translate(-49.38 -49.21)"/><circle class="cls-2" cx="198.89" cy="61.16" r="14.18"/><path class="cls-3" d="M235.19,111.69a14.16,14.16,0,0,1,24.56-9.63A14.17,14.17,0,1,0,237.89,120,14.13,14.13,0,0,1,235.19,111.69Z" transform="translate(-49.38 -49.21)"/><circle class="cls-2" cx="166.55" cy="83.39" r="17.62" transform="translate(-2.43 176.98) rotate(-76.65)"/><path class="cls-3" d="M150.28,85a17.6,17.6,0,0,1,30.52-12,17.6,17.6,0,1,0-27.15,22.29A17.53,17.53,0,0,1,150.28,85Z" transform="translate(-49.38 -49.21)"/><path class="cls-2" d="M192.4,78.45a8.24,8.24,0,1,1,8.24-8.24A8.23,8.23,0,0,1,192.4,78.45Z" transform="translate(-49.38 -49.21)"/><path class="cls-3" d="M184.8,71a8.22,8.22,0,0,1,14.27-5.59,8.23,8.23,0,1,0-12.7,10.42A8.16,8.16,0,0,1,184.8,71Z" transform="translate(-49.38 -49.21)"/><path class="cls-2" d="M62.05,188.24A8.24,8.24,0,1,1,70.29,180,8.23,8.23,0,0,1,62.05,188.24Z" transform="translate(-49.38 -49.21)"/><path class="cls-3" d="M54.45,180.77a8.23,8.23,0,0,1,14.27-5.6A8.23,8.23,0,1,0,56,185.59,8.13,8.13,0,0,1,54.45,180.77Z" transform="translate(-49.38 -49.21)"/><path class="cls-2" d="M107.9,120a4.12,4.12,0,1,1,4.11-4.12A4.12,4.12,0,0,1,107.9,120Z" transform="translate(-49.38 -49.21)"/><path class="cls-3" d="M104.09,116.26a4.12,4.12,0,0,1,7.14-2.8,4.11,4.11,0,1,0-6.35,5.21A4.09,4.09,0,0,1,104.09,116.26Z" transform="translate(-49.38 -49.21)"/><path class="cls-2" d="M79,196.48a4.12,4.12,0,1,1,4.12-4.12A4.12,4.12,0,0,1,79,196.48Z" transform="translate(-49.38 -49.21)"/><path class="cls-3" d="M75.18,192.74a4.12,4.12,0,0,1,7.14-2.8A4.11,4.11,0,1,0,76,195.15,4,4,0,0,1,75.18,192.74Z" transform="translate(-49.38 -49.21)"/><path class="cls-2" d="M219.52,248.08a4.12,4.12,0,1,1,4.12-4.12A4.12,4.12,0,0,1,219.52,248.08Z" transform="translate(-49.38 -49.21)"/><path class="cls-3" d="M215.72,244.35a4.12,4.12,0,0,1,7.14-2.8A4.12,4.12,0,0,0,215.4,244a4.05,4.05,0,0,0,1.11,2.8A4,4,0,0,1,215.72,244.35Z" transform="translate(-49.38 -49.21)"/><path class="cls-2" d="M246.92,134.52A4.12,4.12,0,1,1,251,130.4,4.13,4.13,0,0,1,246.92,134.52Z" transform="translate(-49.38 -49.21)"/><path class="cls-3" d="M243.12,130.78a4.12,4.12,0,0,1,7.14-2.8,4.12,4.12,0,1,0-6.35,5.22A4.07,4.07,0,0,1,243.12,130.78Z" transform="translate(-49.38 -49.21)"/><path class="cls-2" d="M287,168.13a8.24,8.24,0,1,1,8.24-8.24A8.24,8.24,0,0,1,287,168.13Z" transform="translate(-49.38 -49.21)"/><path class="cls-3" d="M279.34,160.66a8.24,8.24,0,0,1,14.28-5.6,8.23,8.23,0,1,0-12.7,10.43A8.19,8.19,0,0,1,279.34,160.66Z" transform="translate(-49.38 -49.21)"/><path class="cls-2" d="M234.1,286.45a8.24,8.24,0,1,1,8.24-8.24A8.24,8.24,0,0,1,234.1,286.45Z" transform="translate(-49.38 -49.21)"/><path class="cls-3" d="M226.49,279a8.24,8.24,0,0,1,14.28-5.6,8.23,8.23,0,1,0-12.7,10.42A8.13,8.13,0,0,1,226.49,279Z" transform="translate(-49.38 -49.21)"/><circle class="cls-2" cx="171.41" cy="172.01" r="13.31"/><path class="cls-3" d="M208.5,222.45a13.3,13.3,0,0,1,23.06-9,13.29,13.29,0,1,0-20.51,16.83A13.17,13.17,0,0,1,208.5,222.45Z" transform="translate(-49.38 -49.21)"/><circle class="cls-2" cx="89.35" cy="207.46" r="13.31"/><path class="cls-3" d="M126.44,257.9a13.3,13.3,0,0,1,23.06-9A13.3,13.3,0,1,0,129,265.7,13.23,13.23,0,0,1,126.44,257.9Z" transform="translate(-49.38 -49.21)"/><path class="cls-4" d="M151.31,260.4a158.65,158.65,0,0,1-91.62-29.47,130.8,130.8,0,0,0,246-87.59A159.43,159.43,0,0,1,151.31,260.4Z" transform="translate(-49.38 -49.21)"/><path class="cls-4" d="M162.15,283.93a158.57,158.57,0,0,1-87.45-26.6,130.76,130.76,0,0,0,236.17-73.49A159.42,159.42,0,0,1,162.15,283.93Z" transform="translate(-49.38 -49.21)"/></svg>