<svg id="Layer_1" data-name="Layer 1" xmlns="http://www.w3.org/2000/svg" viewBox="0 0 360 360"><path d="M146.66,204.71h0a1.16,1.16,0,0,1-1.14-1.16l.58-99.14h2.31l-.59,99.14A1.15,1.15,0,0,1,146.66,204.71Z" style="fill:#282057"/><circle cx="147.26" cy="103.39" r="2.82" transform="translate(13.62 223.86) rotate(-77.11)" style="fill:#282057"/><path d="M212.33,145.78c.19-3.35.41-7,.65-10.5a4.18,4.18,0,0,1-2-.45c-1.64-.87-2.45-1.92-4.51-1.18-1.89.68-3.74,2.58-6,2.07-2.68-.63-3.12-4.26-5.36-5.83a4.92,4.92,0,0,0-2.47-.83c-2.71-.18-5.14,1.5-7.84,1.63-5.31.26-10.14-4.4-14-7.46-8.7-6.9-20.08-6-25.46-3.07,0,5.9,0,13.89,0,20.63a20.54,20.54,0,0,1,18.56-3c3.89,1.36,10.18,4.74,14.14,6,8.59,2.72,12.56-1.29,15.26-1,2.34.26,2.92,1.6,3.78,3.54s4,7,6.52,4.5c.57-.58,1.87-3.91,4.34-2.6C209.92,149.31,211.93,152.87,212.33,145.78Z" style="fill:#f9fbfc"/><path d="M211.7,158.37c0-.06.31-7.3.66-12.59-.8.31-2.15,2.44-4.13,1.39-2.48-1.31-3.77,2-4.34,2.6-2.47,2.53-5.7-2.67-6.52-4.5s-1.44-3.27-3.78-3.54c-2.71-.31-6.68,3.71-15.26,1-4-1.26-10.25-4.64-14.14-6a20.6,20.6,0,0,0-18.76,3.13c0,6.2-.13,14.22-.13,14.22a20,20,0,0,1,18.8-3.53c3.8,1.34,7.12,3.95,11.11,4.78,11.33,2.35,15.24-3.13,17.89-2.83,2.29.25,2.85,1.58,3.69,3.51s3.93,7,6.36,4.47a12.8,12.8,0,0,0,1.3-2.06c.8-1.23,1.93-1.65,3-.56C209.85,160.38,212.32,159.44,211.7,158.37Z" style="fill:#058800"/><path d="M145.37,121.05c5.24-3.12,16.55-4.07,25.43,3,3.85,3.06,8.68,7.72,14,7.46,2.7-.13,5.14-1.81,7.84-1.63a4.89,4.89,0,0,1,2.47.83c2.24,1.57,2.68,5.2,5.37,5.83,2.21.51,4.07-1.39,5.95-2.07,2.07-.74,2.88.31,4.51,1.18a4.18,4.18,0,0,0,2,.44c.53-6.42,1.13-15.15,1.76-15.93-1.25,1.11-3,2.29-4.44,1.48s-2.29-1.88-4.26-1.12c-1.79.71-3.58,2.63-5.66,2.15-2.54-.59-2.91-4.2-5-5.73a4.31,4.31,0,0,0-2.33-.79c-2.56-.15-4.89,1.57-7.44,1.73-5,.33-9.54-4.24-13.15-7.24-11.06-9.17-27-4-27,1.08C145.41,111.7,145.37,117,145.37,121.05Z" style="fill:#ff7f00"/><ellipse cx="177.64" cy="135.81" rx="4.59" ry="6.27" transform="translate(-38.48 193.17) rotate(-52.26)" style="fill:#282057"/><path d="M181,139.9a.34.34,0,0,1,.39.11,2.9,2.9,0,0,0,.53-.39.25.25,0,0,1-.06-.36.29.29,0,0,1,.37,0,3.47,3.47,0,0,0,.37-.57.31.31,0,0,1-.16-.36c0-.11.19-.14.33-.07a1.58,1.58,0,0,0,.09-.31l.06-.3a.37.37,0,0,1-.25-.33c0-.13.13-.2.28-.16a3.64,3.64,0,0,0-.05-.73.39.39,0,0,1-.32-.28.19.19,0,0,1,.21-.24,5.46,5.46,0,0,0-.28-.77.4.4,0,0,1-.36-.22c-.07-.14,0-.27.11-.3-.13-.23-.27-.44-.42-.66a.34.34,0,0,1-.38-.14.22.22,0,0,1,0-.34,7.23,7.23,0,0,0-.61-.63.3.3,0,0,1-.38,0,.27.27,0,0,1-.09-.36c-.24-.19-.49-.36-.75-.53a.24.24,0,0,1-.35.05.32.32,0,0,1-.19-.35l-.38-.17a3.68,3.68,0,0,0-.35-.15c0,.13-.15.19-.3.14a.4.4,0,0,1-.27-.33,7.6,7.6,0,0,0-.8-.17.19.19,0,0,1-.22.22.39.39,0,0,1-.33-.27,5.07,5.07,0,0,0-.79,0c0,.14,0,.27-.14.29a.39.39,0,0,1-.37-.2,4,4,0,0,0-.61.2.23.23,0,0,1,0,.34.37.37,0,0,1-.39-.12,3.45,3.45,0,0,0-.53.39c.12.12.15.27.06.36a.28.28,0,0,1-.37,0,3,3,0,0,0-.37.56.34.34,0,0,1,.17.36.24.24,0,0,1-.34.08,1.71,1.71,0,0,0-.09.3c0,.1,0,.2-.05.3a.37.37,0,0,1,.24.34c0,.13-.13.19-.28.15a3.59,3.59,0,0,0,.05.73.4.4,0,0,1,.32.29.18.18,0,0,1-.21.23,6.09,6.09,0,0,0,.28.78.38.38,0,0,1,.36.22.2.2,0,0,1-.11.3c.13.22.27.44.42.65a.37.37,0,0,1,.39.14c.09.13.09.28,0,.34.19.22.39.43.61.64a.31.31,0,0,1,.38,0,.27.27,0,0,1,.09.36,7.81,7.81,0,0,0,.75.53c.06-.11.21-.13.36-.05a.32.32,0,0,1,.18.35l.38.18.35.14c0-.12.15-.18.3-.13a.38.38,0,0,1,.27.32,6,6,0,0,0,.8.17.19.19,0,0,1,.22-.22.38.38,0,0,1,.33.27,5.07,5.07,0,0,0,.79,0,.19.19,0,0,1,.14-.28.38.38,0,0,1,.37.19,4,4,0,0,0,.61-.2A.22.22,0,0,1,181,139.9Z" style="fill:#fffeff"/><path d="M177.6,136.11l-.55,1.63c0,.14-.36,2.31-.36,2.31l.05,0s.63-2,.66-2.18l.22-1.77Zm.48-.52,0,0,1.8-.42c.14,0,2.18-.88,2.18-.88l0-.05s-2.21.57-2.35.62Zm-.76.28v0l-1.81.42-2.18.88,0,0,2.35-.61Zm.11-.55h0l-1-1.88c-.09-.14-1.66-2.37-1.66-2.37h0s1.32,2.31,1.42,2.46Zm.37,0,.55-1.62c0-.14.36-2.31.36-2.31l-.05,0s-.63,2-.66,2.17l-.22,1.77Zm-.56.19v0l-2-1-2.71-1.06v0l2.65,1.31Zm.73.61h0l1,1.88,1.66,2.38.05,0-1.41-2.46Zm2.26.54-2.07-.76h0l2,1,2.71,1.05v0Zm-3-1.25h0L175.5,134c-.15-.11-2.52-1.63-2.52-1.63l0,0,2.38,1.83Zm.86.58v0l1.78,1.42c.15.11,2.52,1.64,2.52,1.64l0,0-2.38-1.84Zm0-.31v0l2,.09c.16,0,2.54-.22,2.54-.22l0,0-2.63-.06Zm-.66.33-1.06,1.3c-.07.11-1.07,1.94-1.07,1.94l.05,0,1.34-1.75.76-1.5Zm.06-.74h0l-.51-1.93c-.05-.15-1-2.52-1-2.52H176s.68,2.38.73,2.53Zm.38.12,1.06-1.29,1.07-1.95-.05,0-1.34,1.75-.76,1.51Zm-.06.75h0l.51,1.92c.06.16,1,2.53,1,2.53h.05s-.69-2.38-.74-2.54Zm-.6-.41v0l-2-.1-2.54.22,0,0s2.48.07,2.63.06Zm.74-.27,0,0,1.49-.88c.11-.08,1.69-1.45,1.69-1.45l0,0s-1.81,1.13-1.92,1.21Zm.17.33v0l2.08.59c.16,0,2.71.45,2.71.45v0l-2.74-.72Zm-.77.15,0,0-1.49.88c-.11.08-1.69,1.45-1.69,1.45l0,0s1.81-1.13,1.92-1.21Zm.34.19h0l0,1.83c0,.15.33,2.49.33,2.49l0,0s0-2.29,0-2.44Zm-.08-.85h0l0-1.83c0-.15-.32-2.5-.32-2.5h-.06s0,2.28,0,2.43Zm-.43.33v0l-2.08-.59-2.71-.44v0s2.57.69,2.74.72Zm.11-.27h0l-1.44-1.72-2.15-2.08,0,0,1.95,2.23Zm.72.73h0l1.44,1.71,2.15,2.08,0,0-2-2.23Z" style="fill:#282057"/><path d="M178.39,136c-.07.32-.44.44-.82.27a.84.84,0,0,1-.56-.88c.07-.32.44-.45.82-.28A.86.86,0,0,1,178.39,136Z" style="fill:#282057"/><path d="M202.58,122.36a3.56,3.56,0,0,1-2.23.28c-1.83-.42-2.53-2.42-3.57-4.07,0,2.53.32,31.7,1.2,33S199.85,130.61,202.58,122.36Z" style="opacity:0.1"/><path d="M211.18,159.37c-2.23-8.79-.16-29-1.39-24.77-1,3.53-1.6,17.87-1.8,23.77A3.58,3.58,0,0,0,211.18,159.37Z" style="opacity:0.1"/><path d="M204.79,158a79.88,79.88,0,0,0,0-9.49c-.79-6.36-.29,3.21-4.07,12.4a1.94,1.94,0,0,0,2.48-.41,12.8,12.8,0,0,0,1.3-2.06A3.93,3.93,0,0,1,204.79,158Z" style="opacity:0.1"/><path d="M185.58,117.85c-5,.33-9.54-4.24-13.14-7.23a56.63,56.63,0,0,1,3.6,5.11c2.4,4,6.44,5.31,12.09,1.55A9.89,9.89,0,0,1,185.58,117.85Z" style="opacity:0.1"/><polygon points="198.95 323.45 217.48 323.45 217.48 337.98 202.13 337.98 198.95 323.45" style="fill:#513d43"/><polygon points="200.12 297.04 220.34 297.3 220.69 314.93 202.16 314.93 200.12 297.04" style="fill:#513d43"/><path d="M205.2,315.5c1.26-11.17,8.48-19.28,16.13-18.1s12.81,11.19,11.54,22.36-8.48,19.28-16.13,18.11S203.93,326.68,205.2,315.5Z" style="fill:#513d43"/><path d="M210.53,316.18c.87-7.64,5.8-13.18,11-12.37s8.76,7.64,7.89,15.28-5.8,13.17-11,12.37S209.67,323.81,210.53,316.18Z" style="fill:#513d43"/><path d="M211.11,316.41c.73-6.4,4.86-11,9.24-10.36s7.33,6.4,6.61,12.8-4.86,11-9.24,10.37S210.39,322.81,211.11,316.41Z" style="fill:#513d43"/><path d="M187.48,315.31C188.21,304,195,295.85,202.74,297s13.35,11.29,12.62,22.56-7.56,19.45-15.26,18.27S186.75,326.58,187.48,315.31Z" style="fill:#3d2d31"/><ellipse cx="199.59" cy="220.5" rx="8.18" ry="8.22" style="fill:#82646a"/><polygon points="82.64 221.19 79.08 221.19 74.73 259.17 82.64 259.17 82.64 221.19" style="fill:#513f42"/><polygon points="123.7 221.19 120.15 221.19 115.8 259.17 123.7 259.17 123.7 221.19" style="fill:#513f42"/><polygon points="136.19 206.5 69.02 206.5 33.37 253.72 100.55 253.72 136.19 206.5" style="fill:#513f42"/><ellipse cx="146.13" cy="317.45" rx="14" ry="20.53" transform="translate(-4.31 2.02) rotate(-0.78)" style="fill:#3d2d31"/><polygon points="143.65 323.45 162.19 323.45 162.19 337.98 146.84 337.98 143.65 323.45" style="fill:#3d2d31"/><polygon points="144.83 297.04 165.05 297.3 165.4 314.93 146.86 314.93 144.83 297.04" style="fill:#3d2d31"/><ellipse cx="163.74" cy="317.63" rx="20.38" ry="13.98" transform="translate(-165.57 456.39) rotate(-85.58)" style="fill:#3d2d31"/><path d="M155.24,316.18c.86-7.64,5.8-13.18,11-12.37s8.75,7.64,7.89,15.28-5.8,13.17-11,12.37S154.37,323.81,155.24,316.18Z" style="fill:#3d2d31"/><ellipse cx="163.74" cy="317.63" rx="11.67" ry="8.01" transform="translate(-165.57 456.4) rotate(-85.58)" style="fill:#3d2d31"/><polygon points="78.17 316.5 53.94 316.5 53.94 312.38 75.53 312.38 88.72 283.79 92.47 285.52 78.17 316.5" style="fill:#513f42"/><polygon points="125.14 316.5 100.91 316.5 100.91 312.38 122.5 312.38 135.69 283.79 139.44 285.52 125.14 316.5" style="fill:#513f42"/><polygon points="129.87 316.5 154.1 316.5 154.1 312.38 132.51 312.38 119.32 283.79 115.57 285.52 129.87 316.5" style="fill:#3d2d31"/><polygon points="180.27 316.5 204.5 316.5 204.5 312.38 182.91 312.38 169.72 283.79 165.97 285.52 180.27 316.5" style="fill:#3d2d31"/><polygon points="225.41 316.5 249.64 316.5 249.64 312.38 228.05 312.38 214.85 283.79 211.11 285.52 225.41 316.5" style="fill:#3d2d31"/><polygon points="175.31 316.5 151.08 316.5 151.08 312.38 172.67 312.38 185.87 283.79 189.61 285.52 175.31 316.5" style="fill:#513f42"/><path d="M236.25,282.71h-166a5.33,5.33,0,0,0,0,10.65h166a5.33,5.33,0,1,0,0-10.65Z" style="fill:#513f42"/><rect x="142.38" y="187.63" width="8.48" height="37.34" style="fill:#513f42"/><polygon points="150.85 197.14 146.1 198.84 146.1 224.97 150.85 224.97 150.85 197.14" style="fill:#665053"/><rect x="138.31" y="218.44" width="21.65" height="8.76" style="fill:#cccaba"/><rect x="137.85" y="218.44" width="9.68" height="8.76" style="fill:#a8a198"/><polygon points="207.33 223.83 201.14 223.83 201.14 258.88 235.97 258.88 207.33 223.83" style="fill:#cccaba"/><polygon points="221.08 240.66 207.33 223.83 197.39 223.83 201.14 245.95 221.08 240.66" style="fill:#a8a198"/><polygon points="198.35 223.83 192.16 223.83 192.16 258.88 226.99 258.88 198.35 223.83" style="fill:#9b938a"/><rect x="197.16" y="254.3" width="42.18" height="5.5" style="fill:#665053"/><rect x="186.54" y="254.3" width="36.51" height="5.5" style="fill:#513f42"/><polygon points="164.14 221.31 137.34 221.31 134.13 258.42 173.76 258.42 164.14 221.31" style="fill:#665053"/><polygon points="147.03 221.31 135.4 221.31 134.01 258.42 151.2 258.42 147.03 221.31" style="fill:#513f42"/><ellipse cx="51.2" cy="317.45" rx="20.53" ry="14" transform="translate(-266.92 364.33) rotate(-89.22)" style="fill:#49373a"/><polygon points="53.68 323.45 35.14 323.45 35.14 337.98 50.38 337.98 53.68 323.45" style="fill:#49373a"/><polygon points="52.5 297.04 32.28 297.3 31.93 314.93 50.47 314.93 52.5 297.04" style="fill:#49373a"/><ellipse cx="33.59" cy="317.63" rx="13.98" ry="20.38" transform="translate(-24.39 3.54) rotate(-4.42)" style="fill:#665053"/><path d="M42.09,316.18c-.86-7.64-5.8-13.18-11-12.37s-8.75,7.64-7.89,15.28,5.8,13.17,11,12.37S43,323.81,42.09,316.18Z" style="fill:#543c40"/><ellipse cx="33.59" cy="317.63" rx="8.01" ry="11.67" transform="translate(-24.39 3.54) rotate(-4.42)" style="fill:#b7b29e"/><path d="M114,315.31C113.3,304,106.47,295.85,98.77,297S85.41,308.33,86.14,319.6s7.56,19.45,15.26,18.27S114.75,326.58,114,315.31Z" style="fill:#49373a"/><polygon points="102.56 323.45 84.02 323.45 84.02 337.98 99.56 337.98 102.56 323.45" style="fill:#49373a"/><polygon points="101.38 297.04 81.16 297.3 80.81 314.93 99.35 314.93 101.38 297.04" style="fill:#49373a"/><ellipse cx="82.47" cy="317.63" rx="13.98" ry="20.38" transform="translate(-24.25 7.3) rotate(-4.42)" style="fill:#665053"/><path d="M91,316.18c-.86-7.64-5.8-13.18-11-12.37s-8.75,7.64-7.89,15.28,5.8,13.17,11,12.37S91.84,323.81,91,316.18Z" style="fill:#543c40"/><path d="M90.39,316.41c-.72-6.4-4.86-11-9.23-10.36s-7.34,6.4-6.62,12.8,4.86,11,9.24,10.37S91.12,322.81,90.39,316.41Z" style="fill:#b7b29e"/><path d="M163.7,315.31C163,304,156.14,295.85,148.44,297s-13.35,11.29-12.63,22.56,7.56,19.45,15.26,18.27S164.42,326.58,163.7,315.31Z" style="fill:#49373a"/><polygon points="152.23 323.45 133.7 323.45 133.7 337.98 150.04 337.98 152.23 323.45" style="fill:#49373a"/><polygon points="151.05 297.04 130.83 297.3 130.49 314.93 149.02 314.93 151.05 297.04" style="fill:#49373a"/><path d="M146,315.5c-1.27-11.17-8.49-19.28-16.13-18.1S117,308.59,118.3,319.76s8.49,19.28,16.13,18.11S147.25,326.68,146,315.5Z" style="fill:#665053"/><path d="M140.65,316.18c-.87-7.64-5.8-13.18-11-12.37s-8.75,7.64-7.89,15.28,5.8,13.17,11,12.37S141.51,323.81,140.65,316.18Z" style="fill:#543c40"/><path d="M140.06,316.41c-.72-6.4-4.85-11-9.23-10.36s-7.34,6.4-6.61,12.8,4.86,11,9.23,10.37S140.79,322.81,140.06,316.41Z" style="fill:#b7b29e"/><polygon points="248.78 323.45 267.31 323.45 267.31 337.98 251.96 337.98 248.78 323.45" style="fill:#513d43"/><polygon points="249.95 297.04 270.18 297.3 270.52 314.93 251.99 314.93 249.95 297.04" style="fill:#513d43"/><path d="M255,315.5c1.26-11.17,8.48-19.28,16.13-18.1s12.81,11.19,11.55,22.36-8.49,19.28-16.14,18.11S253.76,326.68,255,315.5Z" style="fill:#513d43"/><path d="M260.36,316.18c.87-7.64,5.8-13.18,11-12.37s8.76,7.64,7.89,15.28-5.8,13.17-11,12.37S259.5,323.81,260.36,316.18Z" style="fill:#513d43"/><path d="M260.94,316.41c.73-6.4,4.86-11,9.24-10.36s7.33,6.4,6.61,12.8-4.86,11-9.24,10.37S260.22,322.81,260.94,316.41Z" style="fill:#513d43"/><path d="M237.31,315.31C238,304,244.87,295.85,252.57,297s13.35,11.29,12.62,22.56-7.56,19.45-15.26,18.27S236.58,326.58,237.31,315.31Z" style="fill:#3d2d31"/><polygon points="178 252.12 126.45 252.12 126.45 261.06 179.89 261.06 178 252.12" style="fill:#60484c"/><polygon points="152.15 252.12 125.74 252.12 125.74 261.06 153.12 261.06 152.15 252.12" style="fill:#513f42"/><polygon points="247.08 256.36 129.55 256.36 129.55 288.89 253.95 288.89 247.08 256.36" style="fill:#cccaba"/><path d="M175.37,256.36H57.84c-5.85,0-5.85,32.53,0,32.53h124.4Z" style="fill:#a8a198"/><polygon points="175.8 288.89 182.24 288.89 177 256.36 138 256.36 175.8 288.89" style="fill:#9b938a"/><rect x="198.62" y="215.52" width="22.34" height="9.97" style="fill:#9b938a"/><polygon points="210.1 215.52 198.62 215.52 198.62 219.4 206.5 219.4 210.1 215.52" style="fill:#cccaba"/><ellipse cx="194.95" cy="220.5" rx="8.18" ry="8.22" style="fill:#665053"/><path d="M191.25,213.18a8.19,8.19,0,0,0,8.11,7.18,8.08,8.08,0,0,0,3.7-.89,8.2,8.2,0,0,0-8.11-7.19A8.09,8.09,0,0,0,191.25,213.18Z" style="fill:#82646a"/><ellipse cx="192.43" cy="220.5" rx="8.18" ry="8.22" style="fill:#513f42"/><path d="M283.33,204.87H229.55c-2.29,0-2.29,28,0,28h53.78C287.69,232.88,287.69,204.87,283.33,204.87Z" style="fill:#665053"/><path d="M231.61,204.87H216c-2.29,0-2.29,28,0,28h15.63C229.09,232.88,229.09,204.87,231.61,204.87Z" style="fill:#513f42"/><path d="M187.23,220.5a5.2,5.2,0,1,0,5.2-5.23A5.22,5.22,0,0,0,187.23,220.5Z" style="fill:#a8a198"/><path d="M189.89,220.5a3.66,3.66,0,1,0,3.66-3.67A3.67,3.67,0,0,0,189.89,220.5Z" style="fill:#665053"/><rect x="140.89" y="185.62" width="11.34" height="9.97" rx="1.15" style="fill:#a8a198"/><polygon points="132.09 208.15 68.5 208.15 35.33 252.08 98.93 252.08 132.09 208.15" style="fill:#6c8eb7"/><polygon points="54.29 243.88 43.42 243.88 38.15 251.29 49.02 251.29 54.29 243.88" style="fill:#83b0dd"/><polygon points="66.69 243.88 55.83 243.88 50.56 251.29 61.43 251.29 66.69 243.88" style="fill:#98c7ed"/><polygon points="79.1 243.88 68.23 243.88 62.97 251.29 73.83 251.29 79.1 243.88" style="fill:#98c7ed"/><polygon points="91.51 243.88 80.64 243.88 75.37 251.29 86.24 251.29 91.51 243.88" style="fill:#83b0dd"/><polygon points="103.92 243.88 93.05 243.88 87.78 251.29 98.65 251.29 103.92 243.88" style="fill:#83b0dd"/><polygon points="60.7 235.18 49.83 235.18 44.57 242.58 55.43 242.58 60.7 235.18" style="fill:#83b0dd"/><polygon points="73.11 235.18 62.24 235.18 56.97 242.58 67.84 242.58 73.11 235.18" style="fill:#83b0dd"/><polygon points="85.52 235.18 74.65 235.18 69.38 242.58 80.25 242.58 85.52 235.18" style="fill:#98c7ed"/><polygon points="97.92 235.18 87.06 235.18 81.79 242.58 92.66 242.58 97.92 235.18" style="fill:#98c7ed"/><polygon points="110.33 235.18 99.46 235.18 94.19 242.58 105.06 242.58 110.33 235.18" style="fill:#83b0dd"/><polygon points="67.12 226.47 56.25 226.47 50.98 233.87 61.85 233.87 67.12 226.47" style="fill:#83b0dd"/><polygon points="79.52 226.47 68.66 226.47 63.39 233.87 74.26 233.87 79.52 226.47" style="fill:#83b0dd"/><polygon points="91.93 226.47 81.06 226.47 75.8 233.87 86.66 233.87 91.93 226.47" style="fill:#98c7ed"/><polygon points="104.34 226.47 93.47 226.47 88.2 233.87 99.07 233.87 104.34 226.47" style="fill:#98c7ed"/><polygon points="116.75 226.47 105.88 226.47 100.61 233.87 111.48 233.87 116.75 226.47" style="fill:#83b0dd"/><polygon points="73.53 217.76 62.66 217.76 57.4 225.17 68.27 225.17 73.53 217.76" style="fill:#83b0dd"/><polygon points="85.94 217.76 75.07 217.76 69.8 225.17 80.67 225.17 85.94 217.76" style="fill:#83b0dd"/><polygon points="98.35 217.76 87.48 217.76 82.21 225.17 93.08 225.17 98.35 217.76" style="fill:#83b0dd"/><polygon points="110.75 217.76 99.88 217.76 94.62 225.17 105.49 225.17 110.75 217.76" style="fill:#98c7ed"/><polygon points="123.16 217.76 112.29 217.76 107.03 225.17 117.89 225.17 123.16 217.76" style="fill:#98c7ed"/><polygon points="79.95 209.06 69.08 209.06 63.81 216.46 74.68 216.46 79.95 209.06" style="fill:#83b0dd"/><polygon points="92.35 209.06 81.48 209.06 76.22 216.46 87.09 216.46 92.35 209.06" style="fill:#83b0dd"/><polygon points="104.76 209.06 93.89 209.06 88.63 216.46 99.49 216.46 104.76 209.06" style="fill:#83b0dd"/><polygon points="117.17 209.06 106.3 209.06 101.03 216.46 111.9 216.46 117.17 209.06" style="fill:#83b0dd"/><polygon points="129.57 209.06 118.71 209.06 113.44 216.46 124.31 216.46 129.57 209.06" style="fill:#98c7ed"/><polygon points="241.53 258.83 225.58 258.83 231.31 285.51 247.27 285.51 241.53 258.83" style="fill:#513f42"/><ellipse cx="238.89" cy="271.54" rx="10.67" ry="10.72" style="fill:#cccaba"/><polygon points="238.53 260.83 230.25 260.83 233.4 282.32 239.07 282.27 238.53 260.83" style="fill:#cccaba"/><path d="M234.58,276.35s.57,3.92,1.54,5.53a10.58,10.58,0,0,0,2.77.38A10.71,10.71,0,0,0,248,266c-.88-.24-4.51-1.55-4.51-1.55Z" style="fill:#999187"/><path d="M232.77,260.81a10.74,10.74,0,0,0-3.73.69l3.35,20.74.38,0a10.73,10.73,0,0,0,0-21.45Z" style="fill:#a8a198"/><path d="M247.14,264.44H243.5s6.42,6.61,5.93,10.07l46.28,6.18.22-5.73Z" style="fill:#bcb3aa"/><path d="M243.47,264.44a14.24,14.24,0,0,1,2.29,10.08L292,280.7l.23-5.73Z" style="fill:#a8a198"/><path d="M281.2,272.58a40.66,40.66,0,0,1,.5,6.74L292,280.7l.23-5.73Z" style="fill:#93897d"/><path d="M291.31,278.75a6.48,6.48,0,1,0,6.48-6.51A6.5,6.5,0,0,0,291.31,278.75Z" style="fill:#cccaba"/><path d="M287.59,278.75a6.48,6.48,0,1,0,6.48-6.51A6.5,6.5,0,0,0,287.59,278.75Z" style="fill:#a8a198"/><polygon points="303.83 276.07 302.24 276.07 301.81 280.33 303.4 280.33 303.83 276.07" style="fill:#999187"/><path d="M321.63,230.87l-21,42.63c1.59,1.43,2.56,3.66,2.81,6.83l20.29-47.23Z" style="fill:#999187"/><path d="M320,230.87,299,273.5c1.59,1.43,2.56,3.66,2.81,6.83L322.1,233.1Z" style="fill:#a8a198"/><path d="M315.9,247.53l6.2-14.43L320,230.87l-5.58,11.3C315,243.85,315.48,245.65,315.9,247.53Z" style="fill:#93897d"/><path d="M318.21,233.52a3.62,3.62,0,1,0,3.62-3.64A3.63,3.63,0,0,0,318.21,233.52Z" style="fill:#cccaba"/><path d="M316.14,233.52a3.62,3.62,0,1,0,3.62-3.64A3.63,3.63,0,0,0,316.14,233.52Z" style="fill:#a8a198"/><path d="M341.57,244.26a8.16,8.16,0,1,1-2.38-15.3,8.5,8.5,0,0,1,4.6,2.56l3.6-2.77a12.63,12.63,0,1,0-3.2,19.18Z" style="fill:#cccaba"/><path d="M337.83,245.17a7.54,7.54,0,0,1-1.33-.11L336,245l-4.78,2.11.42.93a12.55,12.55,0,0,0,12.44,0l-4.66.11Z" style="fill:#c1b9a4"/><path d="M329.69,236.93a8.91,8.91,0,0,1,.1-1.26,8,8,0,0,1,13-5c-1-2.37-4.72-4.13-9.13-4.13a15.5,15.5,0,0,0-3.41.37,12.6,12.6,0,0,0-4.85,7.73A9.21,9.21,0,0,0,329.69,236.93Z" style="fill:#c1b9a4"/><polygon points="233.87 258.83 225.58 258.83 231.31 285.51 239.6 285.51 233.87 258.83" style="fill:#513f42"/><ellipse cx="293.5" cy="278.75" rx="3.92" ry="3.94" style="fill:#513f42"/><ellipse cx="294.19" cy="278.75" rx="2.72" ry="2.73" style="fill:#a8a198"/><path d="M317.47,233.52a2,2,0,1,0,1.95-2.06A2,2,0,0,0,317.47,233.52Z" style="fill:#513f42"/><path d="M318.22,233.45a1.37,1.37,0,1,0,1.37-1.45A1.42,1.42,0,0,0,318.22,233.45Z" style="fill:#a8a198"/><rect x="338.03" y="244.26" width="3.54" height="2.19" style="fill:#cccaba"/><rect x="341.04" y="229.33" width="2.75" height="2.19" style="fill:#cccaba"/><path d="M338.05,244.25a8.07,8.07,0,0,1-5.11.47,8.16,8.16,0,1,1,8.11-13.2l3.23-2.9a10.48,10.48,0,0,0-6.58-4.14,12.63,12.63,0,1,0,2.73,23.6Z" style="fill:#a8a198"/><rect x="145.35" y="185.62" width="6.87" height="9.97" rx="1.15" style="fill:#cccaba"/><rect x="61.87" y="261.97" width="2.29" height="20.39" style="fill:#665053"/><rect x="66.23" y="261.97" width="2.29" height="20.39" style="fill:#665053"/><rect x="70.58" y="261.97" width="2.29" height="20.39" style="fill:#665053"/><rect x="74.93" y="261.97" width="2.29" height="20.39" style="fill:#665053"/><rect x="79.29" y="261.97" width="2.29" height="20.39" style="fill:#665053"/><rect x="83.64" y="261.97" width="2.29" height="20.39" style="fill:#665053"/><rect x="87.99" y="261.97" width="2.29" height="20.39" style="fill:#665053"/><path d="M280,207.25H235.58c-1.89,0-1.89,23.25,0,23.25H280C283.63,230.5,283.63,207.25,280,207.25Z" style="fill:#513f42"/><path d="M280,207.25H235.58c-.5,0-.86,1.62-1.1,4h39.94c2.65,0,3.35,12.59,2.1,19.24H280C283.63,230.5,283.63,207.25,280,207.25Z" style="fill:#3a2d30"/><ellipse cx="243.16" cy="219.93" rx="7.05" ry="8.02" style="fill:#3a2d30"/><ellipse cx="268.59" cy="219.93" rx="7.05" ry="8.02" style="fill:#3a2d30"/><path d="M274.28,219.93c0-3.85-2.74-7-6.12-7s-6.13,3.12-6.13,7,2.74,7,6.13,7S274.28,223.78,274.28,219.93Z" style="fill:#93897d"/><path d="M266.88,213.82c.2,3.42,2.67,6.13,5.72,6.13a5.18,5.18,0,0,0,1-.12c-.2-3.42-2.67-6.13-5.72-6.13A5.1,5.1,0,0,0,266.88,213.82Z" style="fill:#cccaba"/><path d="M248.85,219.93c0-3.85-2.74-7-6.12-7s-6.13,3.12-6.13,7,2.74,7,6.13,7S248.85,223.78,248.85,219.93Z" style="fill:#93897d"/><path d="M241.45,213.82c.2,3.42,2.67,6.13,5.72,6.13a5.18,5.18,0,0,0,1-.12c-.2-3.42-2.67-6.13-5.72-6.13A5.1,5.1,0,0,0,241.45,213.82Z" style="fill:#cccaba"/></svg>